<svg width="20" height="22" viewBox="0 0 20 22" fill="none" xmlns="http://www.w3.org/2000/svg">
<path d="M9.34728 10.582L0.931641 19.3803C1.20488 20.3093 2.07923 21.0198 3.11752 21.0198C3.5547 21.0198 3.93722 20.9105 4.26511 20.6919L13.7737 15.2817L9.34728 10.582Z" fill="#EA4335"/>
<path d="M17.8744 9.05299L13.7759 6.70312L9.18555 10.7471L13.8305 15.2828L17.9291 12.9876C18.6395 12.6051 19.1313 11.84 19.1313 11.0203C19.0767 10.2006 18.5848 9.43553 17.8744 9.05299Z" fill="#FBBC04"/>
<path d="M0.923788 2.66016C0.869141 2.8241 0.869141 3.04269 0.869141 3.26128V18.8359C0.869141 19.0545 0.869141 19.2185 0.923788 19.4371L9.6673 10.8573L0.923788 2.66016Z" fill="#4285F4"/>
<path d="M9.40192 11.0201L13.7737 6.70291L4.31975 1.34742C3.99187 1.12883 3.5547 1.01953 3.11752 1.01953C2.07923 1.01953 1.15023 1.72995 0.931641 2.65897L9.40192 11.0201Z" fill="#34A853"/>
</svg>
