<svg width="21" height="20" viewBox="0 0 21 20" fill="none" xmlns="http://www.w3.org/2000/svg">
<path d="M10.6287 0.656331C10.4521 0.659092 10.2838 0.731798 10.1608 0.858494C10.0377 0.98519 9.97 1.15552 9.97242 1.33211V3.33211C9.97117 3.42045 9.98749 3.50816 10.0204 3.59014C10.0534 3.67212 10.1023 3.74673 10.1643 3.80965C10.2263 3.87256 10.3003 3.92252 10.3818 3.95662C10.4633 3.99072 10.5507 4.00827 10.6391 4.00827C10.7274 4.00827 10.8149 3.99072 10.8964 3.95662C10.9779 3.92252 11.0518 3.87256 11.1139 3.80965C11.1759 3.74673 11.2248 3.67212 11.2577 3.59014C11.2907 3.50816 11.307 3.42045 11.3057 3.33211V1.33211C11.307 1.24292 11.2903 1.15439 11.2567 1.07176C11.2231 0.989135 11.1732 0.914092 11.1101 0.851078C11.0469 0.788064 10.9718 0.73836 10.8891 0.704908C10.8064 0.671457 10.7179 0.654938 10.6287 0.656331ZM4.50367 3.198C4.37116 3.19829 4.24174 3.23806 4.13194 3.31224C4.02213 3.38641 3.93692 3.49163 3.88717 3.61445C3.83743 3.73727 3.82541 3.87213 3.85266 4.00181C3.8799 4.13149 3.94517 4.25011 4.04013 4.34253L5.45419 5.75659C5.51562 5.82057 5.5892 5.87165 5.67062 5.90684C5.75204 5.94203 5.83966 5.96062 5.92835 5.96152C6.01705 5.96242 6.10503 5.94562 6.18715 5.91209C6.26926 5.87857 6.34387 5.82899 6.40658 5.76627C6.4693 5.70356 6.51888 5.62895 6.5524 5.54684C6.58594 5.46472 6.60273 5.37674 6.60183 5.28804C6.60093 5.19935 6.58234 5.11173 6.54715 5.03031C6.51196 4.94889 6.46088 4.87531 6.3969 4.81388L4.98284 3.39982C4.92056 3.3358 4.84605 3.28495 4.76374 3.25028C4.68143 3.21561 4.59299 3.19783 4.50367 3.198ZM16.7537 3.198C16.5805 3.20316 16.4161 3.27554 16.2953 3.39982L14.8813 4.81388C14.8173 4.87531 14.7662 4.94889 14.731 5.03031C14.6958 5.11173 14.6772 5.19935 14.6763 5.28804C14.6754 5.37674 14.6922 5.46472 14.7258 5.54683C14.7593 5.62895 14.8089 5.70355 14.8716 5.76627C14.9343 5.82899 15.0089 5.87856 15.091 5.91209C15.1731 5.94562 15.2611 5.96242 15.3498 5.96152C15.4385 5.96062 15.5261 5.94203 15.6075 5.90684C15.689 5.87165 15.7625 5.82057 15.824 5.75659L17.238 4.34253C17.3344 4.24889 17.4002 4.12833 17.4268 3.99665C17.4534 3.86497 17.4397 3.72831 17.3873 3.60459C17.335 3.48086 17.2464 3.37584 17.1334 3.30329C17.0203 3.23074 16.8879 3.19404 16.7537 3.198ZM10.6391 5.33211C9.40141 5.33211 8.21443 5.82378 7.33926 6.69895C6.4641 7.57412 5.97242 8.7611 5.97242 9.99878C5.97242 11.2365 6.4641 12.4234 7.33926 13.2986C8.21443 14.1738 9.40141 14.6654 10.6391 14.6654C11.8768 14.6654 13.0637 14.1738 13.9389 13.2986C14.8141 12.4234 15.3057 11.2365 15.3057 9.99878C15.3057 8.7611 14.8141 7.57412 13.9389 6.69895C13.0637 5.82378 11.8768 5.33211 10.6391 5.33211ZM1.97242 9.33211C1.88408 9.33086 1.79637 9.34718 1.71439 9.38013C1.63242 9.41307 1.5578 9.46198 1.49489 9.52401C1.43198 9.58604 1.38202 9.65995 1.34792 9.74146C1.31382 9.82296 1.29626 9.91043 1.29626 9.99878C1.29626 10.0871 1.31382 10.1746 1.34792 10.2561C1.38202 10.3376 1.43198 10.4115 1.49489 10.4736C1.5578 10.5356 1.63242 10.5845 1.71439 10.6174C1.79637 10.6504 1.88408 10.6667 1.97242 10.6654H3.97242C4.06076 10.6667 4.14847 10.6504 4.23045 10.6174C4.31243 10.5845 4.38704 10.5356 4.44996 10.4736C4.51287 10.4115 4.56283 10.3376 4.59693 10.2561C4.63102 10.1746 4.64858 10.0871 4.64858 9.99878C4.64858 9.91043 4.63102 9.82296 4.59693 9.74146C4.56283 9.65995 4.51287 9.58604 4.44996 9.52401C4.38704 9.46198 4.31243 9.41307 4.23045 9.38013C4.14847 9.34718 4.06076 9.33086 3.97242 9.33211H1.97242ZM17.3057 9.33211C17.2174 9.33086 17.1297 9.34718 17.0477 9.38013C16.9657 9.41307 16.8911 9.46198 16.8282 9.52401C16.7653 9.58604 16.7153 9.65995 16.6812 9.74146C16.6471 9.82296 16.6296 9.91043 16.6296 9.99878C16.6296 10.0871 16.6471 10.1746 16.6812 10.2561C16.7153 10.3376 16.7653 10.4115 16.8282 10.4736C16.8911 10.5356 16.9657 10.5845 17.0477 10.6174C17.1297 10.6504 17.2174 10.6667 17.3057 10.6654H19.3057C19.3941 10.6667 19.4818 10.6504 19.5638 10.6174C19.6458 10.5845 19.7204 10.5356 19.7833 10.4736C19.8462 10.4115 19.8961 10.3376 19.9302 10.2561C19.9643 10.1746 19.9819 10.0871 19.9819 9.99878C19.9819 9.91043 19.9643 9.82296 19.9302 9.74146C19.8961 9.65995 19.8462 9.58604 19.7833 9.52401C19.7204 9.46198 19.6458 9.41307 19.5638 9.38013C19.4818 9.34718 19.3941 9.33086 19.3057 9.33211H17.3057ZM5.91253 14.0391C5.73933 14.0443 5.57494 14.1167 5.45419 14.241L4.04013 15.655C3.97615 15.7165 3.92507 15.79 3.88988 15.8715C3.85469 15.9529 3.8361 16.0405 3.8352 16.1292C3.8343 16.2179 3.8511 16.3059 3.88463 16.388C3.91816 16.4701 3.96773 16.5447 4.03045 16.6074C4.09317 16.6701 4.16777 16.7197 4.24989 16.7532C4.332 16.7868 4.41998 16.8036 4.50868 16.8027C4.59737 16.8018 4.68499 16.7832 4.76641 16.748C4.84783 16.7128 4.92141 16.6617 4.98284 16.5977L6.3969 15.1837C6.49324 15.09 6.55903 14.9695 6.58567 14.8378C6.61231 14.7061 6.59855 14.5695 6.54619 14.4457C6.49383 14.322 6.40531 14.217 6.29224 14.1444C6.17917 14.0719 6.04682 14.0352 5.91253 14.0391ZM15.3461 14.0391C15.2135 14.0392 15.0839 14.0788 14.9739 14.1528C14.8639 14.2269 14.7785 14.3321 14.7286 14.455C14.6787 14.5779 14.6665 14.7128 14.6937 14.8426C14.7209 14.9724 14.7862 15.0912 14.8813 15.1837L16.2953 16.5977C16.3568 16.6617 16.4303 16.7128 16.5118 16.748C16.5932 16.7832 16.6808 16.8018 16.7695 16.8027C16.8582 16.8036 16.9462 16.7868 17.0283 16.7532C17.1104 16.7197 17.185 16.6701 17.2477 16.6074C17.3104 16.5447 17.36 16.4701 17.3935 16.388C17.4271 16.3059 17.4439 16.2179 17.443 16.1292C17.4421 16.0405 17.4235 15.9529 17.3883 15.8715C17.3531 15.79 17.302 15.7165 17.238 15.655L15.824 14.241C15.7618 14.1771 15.6876 14.1263 15.6055 14.0917C15.5234 14.057 15.4352 14.0391 15.3461 14.0391ZM10.6287 15.9897C10.4521 15.9924 10.2838 16.0651 10.1608 16.1918C10.0377 16.3185 9.97 16.4889 9.97242 16.6654V18.6654C9.97117 18.7538 9.98749 18.8415 10.0204 18.9235C10.0534 19.0055 10.1023 19.0801 10.1643 19.143C10.2263 19.2059 10.3003 19.2559 10.3818 19.29C10.4633 19.324 10.5507 19.3416 10.6391 19.3416C10.7274 19.3416 10.8149 19.324 10.8964 19.29C10.9779 19.2559 11.0518 19.2059 11.1139 19.143C11.1759 19.0801 11.2248 19.0055 11.2577 18.9235C11.2907 18.8415 11.307 18.7538 11.3057 18.6654V16.6654C11.307 16.5763 11.2903 16.4877 11.2567 16.4051C11.2231 16.3225 11.1732 16.2474 11.1101 16.1844C11.0469 16.1214 10.9718 16.0717 10.8891 16.0382C10.8064 16.0048 10.7179 15.9883 10.6287 15.9897Z" fill="#0C0C0D" fill-opacity="0.6"/>
</svg>
