<svg width="144" height="144" viewBox="0 0 144 144" fill="none" xmlns="http://www.w3.org/2000/svg">
<rect width="144" height="144" rx="16" fill="white" fill-opacity="0.1"/>
<path d="M12 12H37.4545V15.6364H12V12ZM44.7273 12H55.6364V15.6364H44.7273V12ZM77.4545 12H84.7273V15.6364H77.4545V12ZM95.6364 12H102.909V15.6364H95.6364V12ZM106.545 12H132V15.6364H106.545V12ZM12 15.6364H15.6364V19.2727H12V15.6364ZM33.8182 15.6364H37.4545V19.2727H33.8182V15.6364ZM44.7273 15.6364H52V19.2727H44.7273V15.6364ZM66.5455 15.6364H70.1818V19.2727H66.5455V15.6364ZM77.4545 15.6364H81.0909V19.2727H77.4545V15.6364ZM84.7273 15.6364H95.6364V19.2727H84.7273V15.6364ZM106.545 15.6364H110.182V19.2727H106.545V15.6364ZM128.364 15.6364H132V19.2727H128.364V15.6364ZM12 19.2727H15.6364V22.9091H12V19.2727ZM19.2727 19.2727H30.1818V22.9091H19.2727V19.2727ZM33.8182 19.2727H37.4545V22.9091H33.8182V19.2727ZM41.0909 19.2727H59.2727V22.9091H41.0909V19.2727ZM62.9091 19.2727H73.8182V22.9091H62.9091V19.2727ZM81.0909 19.2727H84.7273V22.9091H81.0909V19.2727ZM88.3636 19.2727H92V22.9091H88.3636V19.2727ZM106.545 19.2727H110.182V22.9091H106.545V19.2727ZM113.818 19.2727H124.727V22.9091H113.818V19.2727ZM128.364 19.2727H132V22.9091H128.364V19.2727ZM12 22.9091H15.6364V26.5455H12V22.9091ZM19.2727 22.9091H30.1818V26.5455H19.2727V22.9091ZM33.8182 22.9091H37.4545V26.5455H33.8182V22.9091ZM41.0909 22.9091H44.7273V26.5455H41.0909V22.9091ZM52 22.9091H55.6364V26.5455H52V22.9091ZM66.5455 22.9091H70.1818V26.5455H66.5455V22.9091ZM77.4545 22.9091H84.7273V26.5455H77.4545V22.9091ZM92 22.9091H102.909V26.5455H92V22.9091ZM106.545 22.9091H110.182V26.5455H106.545V22.9091ZM113.818 22.9091H124.727V26.5455H113.818V22.9091ZM128.364 22.9091H132V26.5455H128.364V22.9091ZM12 26.5455H15.6364V30.1818H12V26.5455ZM19.2727 26.5455H30.1818V30.1818H19.2727V26.5455ZM33.8182 26.5455H37.4545V30.1818H33.8182V26.5455ZM41.0909 26.5455H44.7273V30.1818H41.0909V26.5455ZM55.6364 26.5455H77.4545V30.1818H55.6364V26.5455ZM84.7273 26.5455H88.3636V30.1818H84.7273V26.5455ZM95.6364 26.5455H99.2727V30.1818H95.6364V26.5455ZM106.545 26.5455H110.182V30.1818H106.545V26.5455ZM113.818 26.5455H124.727V30.1818H113.818V26.5455ZM128.364 26.5455H132V30.1818H128.364V26.5455ZM12 30.1818H15.6364V33.8182H12V30.1818ZM33.8182 30.1818H37.4545V33.8182H33.8182V30.1818ZM41.0909 30.1818H52V33.8182H41.0909V30.1818ZM59.2727 30.1818H66.5455V33.8182H59.2727V30.1818ZM73.8182 30.1818H77.4545V33.8182H73.8182V30.1818ZM81.0909 30.1818H84.7273V33.8182H81.0909V30.1818ZM92 30.1818H95.6364V33.8182H92V30.1818ZM106.545 30.1818H110.182V33.8182H106.545V30.1818ZM128.364 30.1818H132V33.8182H128.364V30.1818ZM12 33.8182H37.4545V37.4545H12V33.8182ZM41.0909 33.8182H44.7273V37.4545H41.0909V33.8182ZM48.3636 33.8182H52V37.4545H48.3636V33.8182ZM55.6364 33.8182H59.2727V37.4545H55.6364V33.8182ZM62.9091 33.8182H66.5455V37.4545H62.9091V33.8182ZM70.1818 33.8182H73.8182V37.4545H70.1818V33.8182ZM77.4545 33.8182H81.0909V37.4545H77.4545V33.8182ZM84.7273 33.8182H88.3636V37.4545H84.7273V33.8182ZM92 33.8182H95.6364V37.4545H92V33.8182ZM99.2727 33.8182H102.909V37.4545H99.2727V33.8182ZM106.545 33.8182H132V37.4545H106.545V33.8182ZM41.0909 37.4545H48.3636V41.0909H41.0909V37.4545ZM55.6364 37.4545H59.2727V41.0909H55.6364V37.4545ZM62.9091 37.4545H66.5455V41.0909H62.9091V37.4545ZM70.1818 37.4545H73.8182V41.0909H70.1818V37.4545ZM77.4545 37.4545H92V41.0909H77.4545V37.4545ZM95.6364 37.4545H99.2727V41.0909H95.6364V37.4545ZM12 41.0909H15.6364V44.7273H12V41.0909ZM19.2727 41.0909H37.4545V44.7273H19.2727V41.0909ZM44.7273 41.0909H48.3636V44.7273H44.7273V41.0909ZM52 41.0909H55.6364V44.7273H52V41.0909ZM59.2727 41.0909H66.5455V44.7273H59.2727V41.0909ZM70.1818 41.0909H77.4545V44.7273H70.1818V41.0909ZM81.0909 41.0909H84.7273V44.7273H81.0909V41.0909ZM92 41.0909H102.909V44.7273H92V41.0909ZM106.545 41.0909H124.727V44.7273H106.545V41.0909ZM12 44.7273H15.6364V48.3636H12V44.7273ZM19.2727 44.7273H33.8182V48.3636H19.2727V44.7273ZM41.0909 44.7273H44.7273V48.3636H41.0909V44.7273ZM48.3636 44.7273H52V48.3636H48.3636V44.7273ZM59.2727 44.7273H62.9091V48.3636H59.2727V44.7273ZM70.1818 44.7273H92V48.3636H70.1818V44.7273ZM95.6364 44.7273H99.2727V48.3636H95.6364V44.7273ZM106.545 44.7273H113.818V48.3636H106.545V44.7273ZM117.455 44.7273H124.727V48.3636H117.455V44.7273ZM128.364 44.7273H132V48.3636H128.364V44.7273ZM12 48.3636H19.2727V52H12V48.3636ZM26.5455 48.3636H37.4545V52H26.5455V48.3636ZM41.0909 48.3636H48.3636V52H41.0909V48.3636ZM52 48.3636H77.4545V52H52V48.3636ZM88.3636 48.3636H92V52H88.3636V48.3636ZM102.909 48.3636H110.182V52H102.909V48.3636ZM113.818 48.3636H117.455V52H113.818V48.3636ZM121.091 48.3636H128.364V52H121.091V48.3636ZM12 52H15.6364V55.6364H12V52ZM19.2727 52H22.9091V55.6364H19.2727V52ZM26.5455 52H33.8182V55.6364H26.5455V52ZM44.7273 52H55.6364V55.6364H44.7273V52ZM59.2727 52H62.9091V55.6364H59.2727V52ZM66.5455 52H70.1818V55.6364H66.5455V52ZM73.8182 52H95.6364V55.6364H73.8182V52ZM99.2727 52H110.182V55.6364H99.2727V52ZM113.818 52H124.727V55.6364H113.818V52ZM128.364 52H132V55.6364H128.364V52ZM12 55.6364H15.6364V59.2727H12V55.6364ZM30.1818 55.6364H41.0909V59.2727H30.1818V55.6364ZM44.7273 55.6364H48.3636V59.2727H44.7273V55.6364ZM52 55.6364H59.2727V59.2727H52V55.6364ZM62.9091 55.6364H66.5455V59.2727H62.9091V55.6364ZM70.1818 55.6364H73.8182V59.2727H70.1818V55.6364ZM81.0909 55.6364H84.7273V59.2727H81.0909V55.6364ZM92 55.6364H99.2727V59.2727H92V55.6364ZM102.909 55.6364H106.545V59.2727H102.909V55.6364ZM113.818 55.6364H121.091V59.2727H113.818V55.6364ZM128.364 55.6364H132V59.2727H128.364V55.6364ZM15.6364 59.2727H30.1818V62.9091H15.6364V59.2727ZM48.3636 59.2727H62.9091V62.9091H48.3636V59.2727ZM66.5455 59.2727H70.1818V62.9091H66.5455V59.2727ZM73.8182 59.2727H81.0909V62.9091H73.8182V59.2727ZM106.545 59.2727H113.818V62.9091H106.545V59.2727ZM117.455 59.2727H121.091V62.9091H117.455V59.2727ZM124.727 59.2727H132V62.9091H124.727V59.2727ZM12 62.9091H19.2727V66.5455H12V62.9091ZM22.9091 62.9091H26.5455V66.5455H22.9091V62.9091ZM33.8182 62.9091H37.4545V66.5455H33.8182V62.9091ZM44.7273 62.9091H52V66.5455H44.7273V62.9091ZM55.6364 62.9091H59.2727V66.5455H55.6364V62.9091ZM66.5455 62.9091H73.8182V66.5455H66.5455V62.9091ZM84.7273 62.9091H88.3636V66.5455H84.7273V62.9091ZM92 62.9091H95.6364V66.5455H92V62.9091ZM99.2727 62.9091H110.182V66.5455H99.2727V62.9091ZM124.727 62.9091H128.364V66.5455H124.727V62.9091ZM15.6364 66.5455H33.8182V70.1818H15.6364V66.5455ZM37.4545 66.5455H59.2727V70.1818H37.4545V66.5455ZM66.5455 66.5455H70.1818V70.1818H66.5455V66.5455ZM81.0909 66.5455H113.818V70.1818H81.0909V66.5455ZM121.091 66.5455H124.727V70.1818H121.091V66.5455ZM12 70.1818H19.2727V73.8182H12V70.1818ZM26.5455 70.1818H44.7273V73.8182H26.5455V70.1818ZM66.5455 70.1818H77.4545V73.8182H66.5455V70.1818ZM92 70.1818H95.6364V73.8182H92V70.1818ZM99.2727 70.1818H106.545V73.8182H99.2727V70.1818ZM110.182 70.1818H121.091V73.8182H110.182V70.1818ZM128.364 70.1818H132V73.8182H128.364V70.1818ZM12 73.8182H22.9091V77.4545H12V73.8182ZM30.1818 73.8182H33.8182V77.4545H30.1818V73.8182ZM44.7273 73.8182H48.3636V77.4545H44.7273V73.8182ZM55.6364 73.8182H59.2727V77.4545H55.6364V73.8182ZM70.1818 73.8182H73.8182V77.4545H70.1818V73.8182ZM77.4545 73.8182H88.3636V77.4545H77.4545V73.8182ZM95.6364 73.8182H99.2727V77.4545H95.6364V73.8182ZM102.909 73.8182H113.818V77.4545H102.909V73.8182ZM117.455 73.8182H132V77.4545H117.455V73.8182ZM15.6364 77.4545H19.2727V81.0909H15.6364V77.4545ZM22.9091 77.4545H52V81.0909H22.9091V77.4545ZM59.2727 77.4545H62.9091V81.0909H59.2727V77.4545ZM66.5455 77.4545H73.8182V81.0909H66.5455V77.4545ZM77.4545 77.4545H81.0909V81.0909H77.4545V77.4545ZM84.7273 77.4545H88.3636V81.0909H84.7273V77.4545ZM92 77.4545H95.6364V81.0909H92V77.4545ZM110.182 77.4545H117.455V81.0909H110.182V77.4545ZM121.091 77.4545H128.364V81.0909H121.091V77.4545ZM12 81.0909H26.5455V84.7273H12V81.0909ZM41.0909 81.0909H55.6364V84.7273H41.0909V81.0909ZM59.2727 81.0909H66.5455V84.7273H59.2727V81.0909ZM88.3636 81.0909H92V84.7273H88.3636V81.0909ZM95.6364 81.0909H132V84.7273H95.6364V81.0909ZM12 84.7273H15.6364V88.3636H12V84.7273ZM22.9091 84.7273H37.4545V88.3636H22.9091V84.7273ZM41.0909 84.7273H44.7273V88.3636H41.0909V84.7273ZM77.4545 84.7273H84.7273V88.3636H77.4545V84.7273ZM92 84.7273H95.6364V88.3636H92V84.7273ZM110.182 84.7273H121.091V88.3636H110.182V84.7273ZM124.727 84.7273H132V88.3636H124.727V84.7273ZM12 88.3636H15.6364V92H12V88.3636ZM22.9091 88.3636H30.1818V92H22.9091V88.3636ZM44.7273 88.3636H52V92H44.7273V88.3636ZM59.2727 88.3636H73.8182V92H59.2727V88.3636ZM81.0909 88.3636H88.3636V92H81.0909V88.3636ZM95.6364 88.3636H99.2727V92H95.6364V88.3636ZM102.909 88.3636H110.182V92H102.909V88.3636ZM121.091 88.3636H124.727V92H121.091V88.3636ZM128.364 88.3636H132V92H128.364V88.3636ZM12 92H15.6364V95.6364H12V92ZM22.9091 92H30.1818V95.6364H22.9091V92ZM33.8182 92H37.4545V95.6364H33.8182V92ZM41.0909 92H55.6364V95.6364H41.0909V92ZM92 92H95.6364V95.6364H92V92ZM106.545 92H110.182V95.6364H106.545V92ZM124.727 92H128.364V95.6364H124.727V92ZM12 95.6364H15.6364V99.2727H12V95.6364ZM22.9091 95.6364H26.5455V99.2727H22.9091V95.6364ZM37.4545 95.6364H41.0909V99.2727H37.4545V95.6364ZM44.7273 95.6364H66.5455V99.2727H44.7273V95.6364ZM70.1818 95.6364H73.8182V99.2727H70.1818V95.6364ZM81.0909 95.6364H92V99.2727H81.0909V95.6364ZM99.2727 95.6364H106.545V99.2727H99.2727V95.6364ZM110.182 95.6364H113.818V99.2727H110.182V95.6364ZM117.455 95.6364H132V99.2727H117.455V95.6364ZM12 99.2727H15.6364V102.909H12V99.2727ZM19.2727 99.2727H22.9091V102.909H19.2727V99.2727ZM30.1818 99.2727H48.3636V102.909H30.1818V99.2727ZM55.6364 99.2727H59.2727V102.909H55.6364V99.2727ZM62.9091 99.2727H66.5455V102.909H62.9091V99.2727ZM73.8182 99.2727H84.7273V102.909H73.8182V99.2727ZM92 99.2727H95.6364V102.909H92V99.2727ZM99.2727 99.2727H117.455V102.909H99.2727V99.2727ZM41.0909 102.909H52V106.545H41.0909V102.909ZM55.6364 102.909H59.2727V106.545H55.6364V102.909ZM66.5455 102.909H92V106.545H66.5455V102.909ZM95.6364 102.909H102.909V106.545H95.6364V102.909ZM113.818 102.909H117.455V106.545H113.818V102.909ZM121.091 102.909H124.727V106.545H121.091V102.909ZM128.364 102.909H132V106.545H128.364V102.909ZM12 106.545H37.4545V110.182H12V106.545ZM48.3636 106.545H77.4545V110.182H48.3636V106.545ZM88.3636 106.545H102.909V110.182H88.3636V106.545ZM106.545 106.545H110.182V110.182H106.545V106.545ZM113.818 106.545H117.455V110.182H113.818V106.545ZM121.091 106.545H128.364V110.182H121.091V106.545ZM12 110.182H15.6364V113.818H12V110.182ZM33.8182 110.182H37.4545V113.818H33.8182V110.182ZM41.0909 110.182H44.7273V113.818H41.0909V110.182ZM48.3636 110.182H59.2727V113.818H48.3636V110.182ZM62.9091 110.182H70.1818V113.818H62.9091V110.182ZM73.8182 110.182H81.0909V113.818H73.8182V110.182ZM84.7273 110.182H92V113.818H84.7273V110.182ZM95.6364 110.182H102.909V113.818H95.6364V110.182ZM113.818 110.182H128.364V113.818H113.818V110.182ZM12 113.818H15.6364V117.455H12V113.818ZM19.2727 113.818H30.1818V117.455H19.2727V113.818ZM33.8182 113.818H37.4545V117.455H33.8182V113.818ZM41.0909 113.818H44.7273V117.455H41.0909V113.818ZM48.3636 113.818H55.6364V117.455H48.3636V113.818ZM62.9091 113.818H66.5455V117.455H62.9091V113.818ZM70.1818 113.818H73.8182V117.455H70.1818V113.818ZM81.0909 113.818H84.7273V117.455H81.0909V113.818ZM92 113.818H95.6364V117.455H92V113.818ZM99.2727 113.818H121.091V117.455H99.2727V113.818ZM124.727 113.818H128.364V117.455H124.727V113.818ZM12 117.455H15.6364V121.091H12V117.455ZM19.2727 117.455H30.1818V121.091H19.2727V117.455ZM33.8182 117.455H37.4545V121.091H33.8182V117.455ZM41.0909 117.455H48.3636V121.091H41.0909V117.455ZM52 117.455H59.2727V121.091H52V117.455ZM62.9091 117.455H70.1818V121.091H62.9091V117.455ZM73.8182 117.455H92V121.091H73.8182V117.455ZM95.6364 117.455H106.545V121.091H95.6364V117.455ZM113.818 117.455H117.455V121.091H113.818V117.455ZM121.091 117.455H132V121.091H121.091V117.455ZM12 121.091H15.6364V124.727H12V121.091ZM19.2727 121.091H30.1818V124.727H19.2727V121.091ZM33.8182 121.091H37.4545V124.727H33.8182V121.091ZM41.0909 121.091H44.7273V124.727H41.0909V121.091ZM48.3636 121.091H52V124.727H48.3636V121.091ZM59.2727 121.091H62.9091V124.727H59.2727V121.091ZM66.5455 121.091H77.4545V124.727H66.5455V121.091ZM84.7273 121.091H102.909V124.727H84.7273V121.091ZM106.545 121.091H113.818V124.727H106.545V121.091ZM117.455 121.091H124.727V124.727H117.455V121.091ZM12 124.727H15.6364V128.364H12V124.727ZM33.8182 124.727H37.4545V128.364H33.8182V124.727ZM44.7273 124.727H48.3636V128.364H44.7273V124.727ZM55.6364 124.727H59.2727V128.364H55.6364V124.727ZM66.5455 124.727H70.1818V128.364H66.5455V124.727ZM88.3636 124.727H99.2727V128.364H88.3636V124.727ZM102.909 124.727H110.182V128.364H102.909V124.727ZM113.818 124.727H124.727V128.364H113.818V124.727ZM12 128.364H37.4545V132H12V128.364ZM41.0909 128.364H48.3636V132H41.0909V128.364ZM62.9091 128.364H84.7273V132H62.9091V128.364ZM92 128.364H106.545V132H92V128.364ZM110.182 128.364H113.818V132H110.182V128.364ZM124.727 128.364H128.364V132H124.727V128.364Z" fill="white"/>
</svg>
