<svg width="21" height="22" viewBox="0 0 21 22" fill="none" xmlns="http://www.w3.org/2000/svg">
<path d="M16.8289 1.01953H4.90908C2.67661 1.01953 0.869141 2.82703 0.869141 5.05953V16.982C0.869141 19.212 2.67661 21.0195 4.90908 21.0195H16.8314C19.0613 21.0195 20.8713 19.212 20.8713 16.9795V5.05953C20.8688 2.82703 19.0614 1.01953 16.8289 1.01953Z" fill="url(#paint0_linear_1_9)"/>
<path d="M10.7753 5.61213L11.1803 4.91213C11.4303 4.47463 11.9878 4.32713 12.4252 4.57713C12.8627 4.82713 13.0102 5.38463 12.7602 5.82213L8.85781 12.5771H11.6803C12.5952 12.5771 13.1077 13.6521 12.7102 14.3971H4.43538C3.93038 14.3971 3.52539 13.9921 3.52539 13.4871C3.52539 12.9821 3.93038 12.5771 4.43538 12.5771H6.75534L9.72529 7.42963L8.79781 5.81963C8.54781 5.38213 8.69531 4.82963 9.1328 4.57463C9.57029 4.32463 10.1228 4.47213 10.3778 4.90963L10.7753 5.61213ZM7.26533 15.3346L6.39034 16.8521C6.14035 17.2896 5.58286 17.4371 5.14536 17.1871C4.70787 16.9371 4.56037 16.3796 4.81037 15.9421L5.46036 14.8171C6.19535 14.5896 6.79284 14.7646 7.26533 15.3346ZM14.8002 12.5821H17.1677C17.6727 12.5821 18.0777 12.9871 18.0777 13.4921C18.0777 13.9971 17.6727 14.4021 17.1677 14.4021H15.8527L16.7402 15.9421C16.9902 16.3796 16.8427 16.9321 16.4052 17.1871C15.9677 17.4371 15.4152 17.2896 15.1602 16.8521C13.6652 14.2596 12.5427 12.3196 11.7978 11.0271C11.0353 9.71213 11.5803 8.39213 12.1178 7.94463C12.7152 8.96963 13.6077 10.5171 14.8002 12.5821Z" fill="white"/>
<defs>
<linearGradient id="paint0_linear_1_9" x1="10.8702" y1="1.01953" x2="10.8702" y2="21.0195" gradientUnits="userSpaceOnUse">
<stop stop-color="#18BFFB"/>
<stop offset="1" stop-color="#2072F3"/>
</linearGradient>
</defs>
</svg>
