<svg width="32" height="32" viewBox="0 0 32 32" fill="none" xmlns="http://www.w3.org/2000/svg">
<g clip-path="url(#clip0_1_122)">
<g clip-path="url(#clip1_1_122)">
<g clip-path="url(#clip2_1_122)">
<g clip-path="url(#clip3_1_122)">
<path d="M0 21.3333H32V32H0V21.3333Z" fill="black"/>
<path d="M0 10.6667H32V21.3334H0V10.6667Z" fill="white"/>
<path d="M0 0H32V10.6667H0V0Z" fill="#CE1126"/>
<path d="M16.0428 16.128L19.6955 19.5189L19.4355 13.3606C19.3973 12.4272 18.5862 12.6413 17.9971 12.978C17.4002 13.3605 16.7192 13.3605 15.9999 13.108C15.2807 13.3605 14.5998 13.3605 14.0029 12.978C13.4138 12.6413 12.6029 12.4272 12.5645 13.3605L12.3044 19.5189L16.0429 16.128L16.0428 16.128Z" fill="white" stroke="#C09300" stroke-width="0.0677331" stroke-linejoin="round"/>
<path d="M12.9847 13.1462L12.7322 19.1366L12.3037 19.5188L12.564 13.3605C12.6863 13.2763 12.9007 13.1462 12.9848 13.1462L12.9847 13.1462ZM13.4978 13.575L13.2835 18.5859L12.8552 19.0243L13.1153 13.2382C13.1996 13.3223 13.4521 13.5288 13.4978 13.5747L13.4978 13.575ZM13.9645 13.9574L13.7962 18.1367L13.4519 18.4732L13.6662 13.7049C13.7502 13.7891 13.9185 13.9115 13.9645 13.9574ZM14.4695 14.1718L14.3012 17.7337L13.9645 18.0068L14.1329 14.0417C14.2171 14.08 14.3854 14.1718 14.4696 14.1718H14.4695ZM14.9362 14.1718L14.8137 17.1401L14.4694 17.4768L14.5995 14.2101C14.6835 14.2101 14.8978 14.2101 14.9362 14.1718Z" fill="#C09300"/>
<path d="M19.0146 13.1462L19.2671 19.1366L19.6956 19.5188L19.4353 13.3605C19.313 13.2763 19.0986 13.1462 19.0145 13.1462L19.0146 13.1462ZM18.5015 13.575L18.7158 18.5859L19.1441 19.0243L18.884 13.2382C18.7997 13.3223 18.5472 13.5288 18.5015 13.5747L18.5015 13.575ZM18.0348 13.9574L18.2031 18.1367L18.5474 18.4732L18.3331 13.7049C18.2491 13.7891 18.0808 13.9115 18.0348 13.9574ZM17.5298 14.1718L17.6981 17.7337L18.0348 18.0068L17.8664 14.0417C17.7822 14.08 17.6139 14.1718 17.5297 14.1718H17.5298ZM17.0631 14.1718L17.1856 17.1401L17.5299 17.4768L17.3998 14.2101C17.3158 14.2101 17.1015 14.2101 17.0631 14.1718Z" fill="#C09300"/>
<path d="M16.1682 16.8032L16.6809 19.1368L16.5124 19.3051L16.3364 19.1749L16.0458 17.094L16.1681 19.175L15.9997 19.3892L15.8314 19.1751L15.9538 17.0942L15.6632 19.1751L15.487 19.3052L15.3187 19.137L15.8313 16.8034H16.1681L16.1682 16.8032Z" fill="#C09300" stroke="#C09300" stroke-width="0.0572798"/>
<path d="M14.8519 15.7782L13.8343 19.3891L15.2346 19.6034L15.8313 16.8875L14.8519 15.7781V15.7782Z" fill="white" stroke="#C09300" stroke-width="0.0634131" stroke-linejoin="round"/>
<path d="M14.5154 17.0102L14.6378 17.3085L15.2994 16.6766" stroke="#C09300" stroke-width="0.0677331" stroke-linejoin="round"/>
<path d="M14.9735 16.2625L15.112 17.5609L15.5328 17.0101M15.3644 17.224L15.5943 18.0174M15.6844 17.7259L15.2195 18.432M15.3645 19.1369L15.2157 18.4331L15.0858 17.7171L14.7743 18.139L14.6377 17.6526L14.2017 18.0998L14.4234 18.9132L14.7294 18.41L14.8977 18.9227L15.2118 18.434" stroke="#C09300" stroke-width="0.0677331" stroke-linejoin="round"/>
<path d="M14.1324 19.3051L14.4151 18.9081L14.5992 19.5191L14.8518 19.0907L15.0201 19.6035" stroke="#C09300" stroke-width="0.0677331" stroke-linejoin="round"/>
<path d="M17.1474 15.7782L18.165 19.3891L16.7647 19.6034L16.168 16.8875L17.1474 15.7781V15.7782Z" fill="white" stroke="#C09300" stroke-width="0.0634131" stroke-linejoin="round"/>
<path d="M17.4839 17.0102L17.3615 17.3085L16.6999 16.6766" stroke="#C09300" stroke-width="0.0677331" stroke-linejoin="round"/>
<path d="M17.0258 16.2625L16.8873 17.5609L16.4665 17.0101M16.6349 17.224L16.405 18.0174M16.3149 17.7259L16.7798 18.432M16.6348 19.1369L16.7836 18.4331L16.9135 17.7171L17.225 18.139L17.3616 17.6526L17.7976 18.0998L17.5759 18.9132L17.2699 18.41L17.1016 18.9227L16.7875 18.434" stroke="#C09300" stroke-width="0.0677331" stroke-linejoin="round"/>
<path d="M17.8669 19.3051L17.5842 18.9081L17.4001 19.5191L17.1475 19.0907L16.9792 19.6035" stroke="#C09300" stroke-width="0.0677331" stroke-linejoin="round"/>
<path d="M15.9996 21.0032C17.0633 21.0032 18.0809 20.919 18.6776 20.7507C18.9302 20.7048 18.9302 20.5748 18.9302 20.4064C19.1828 20.3223 19.0526 20.024 19.2286 20.024C19.0526 20.0701 19.0144 19.7257 18.8002 19.7718C18.8002 19.4732 18.5017 19.435 18.2492 19.519C17.7442 19.6875 16.849 19.7257 15.9996 19.7257C15.1504 19.6874 14.2627 19.6874 13.75 19.519C13.4976 19.4351 13.1993 19.4733 13.1993 19.7718C12.985 19.7257 12.9467 20.0701 12.7708 20.0241C12.9468 20.0241 12.8167 20.3224 13.0692 20.4065C13.0692 20.5749 13.0692 20.705 13.3293 20.7508C13.9184 20.9191 14.9362 21.0033 15.9996 21.0033V21.0032Z" fill="white" stroke="#C09300" stroke-width="0.126826" stroke-linecap="round" stroke-linejoin="round"/>
<path d="M14.5538 19.3888C14.898 19.4347 15.2806 19.473 15.5791 19.4347C15.7472 19.4347 15.8698 19.7254 15.5331 19.7714C15.2348 19.8095 14.768 19.7714 14.5155 19.7254C14.3012 19.6871 13.8345 19.603 13.5361 19.5187C13.2377 19.3888 13.452 19.1364 13.6202 19.1746C13.8805 19.2587 14.2171 19.343 14.5538 19.3888ZM17.446 19.3888C17.1016 19.4347 16.7192 19.473 16.4284 19.4347C16.2523 19.4347 16.1299 19.7254 16.4666 19.7714C16.7651 19.8095 17.2318 19.7714 17.4841 19.7254C17.6985 19.6871 18.1652 19.603 18.4635 19.5187C18.762 19.3888 18.5478 19.1364 18.3794 19.1746C18.1193 19.2587 17.7826 19.343 17.4461 19.3888H17.446Z" fill="white" stroke="#C09300" stroke-width="0.0677331" stroke-linecap="round" stroke-linejoin="round"/>
<path d="M13.4978 19.2208C13.2377 19.1749 13.1153 19.4732 13.1995 19.6414C13.2377 19.5573 13.4137 19.5573 13.452 19.4732C13.4978 19.3432 13.4137 19.3432 13.4978 19.2208ZM14.5154 20.0032C14.5154 19.835 14.6836 19.8557 14.6836 19.6874C14.6836 19.6033 14.6378 19.473 14.5537 19.473C14.4694 19.473 14.3852 19.5573 14.3852 19.6414C14.3469 19.8098 14.5154 19.835 14.5154 20.0031V20.0032ZM15.7266 19.5189C15.9788 19.5189 15.9539 19.8557 15.8314 20.024C15.8314 19.9016 15.6172 19.8557 15.6172 19.7716C15.6172 19.6414 15.8105 19.6414 15.7265 19.5189H15.7266ZM18.5015 19.2208C18.7616 19.1749 18.8841 19.4732 18.7999 19.6414C18.7616 19.5573 18.5856 19.5573 18.5474 19.4732C18.5015 19.3432 18.5858 19.3432 18.5015 19.2208H18.5015ZM17.4839 20.0032C17.4839 19.835 17.3157 19.8557 17.3157 19.6874C17.3157 19.6033 17.3616 19.473 17.4458 19.473C17.5299 19.473 17.6141 19.5573 17.6141 19.6414C17.6525 19.8098 17.4839 19.835 17.4839 20.0031L17.4839 20.0032ZM16.2727 19.5189C16.0203 19.5189 16.0453 19.8557 16.1678 20.024C16.1678 19.9016 16.3819 19.8557 16.3819 19.7716C16.3819 19.6414 16.1885 19.6414 16.2727 19.5189Z" fill="white" stroke="#C09300" stroke-width="0.0677331" stroke-linecap="round" stroke-linejoin="round"/>
<path d="M13.5821 19.305C13.6663 19.305 13.7963 19.3433 13.8346 19.3891L13.5818 19.3049L13.5821 19.305ZM14.0023 19.4352C14.0483 19.4352 14.2166 19.4733 14.3008 19.5192L14.0021 19.4349L14.0023 19.4352ZM15.533 19.6032C15.4488 19.6032 15.2805 19.6032 15.2347 19.6413L15.5328 19.6029L15.533 19.6032ZM15.0663 19.6032C15.0204 19.5572 14.8521 19.5572 14.768 19.6032H15.0662H15.0663ZM18.4178 19.305C18.3336 19.305 18.2111 19.3433 18.1652 19.3891L18.4178 19.305ZM17.997 19.4352C17.9511 19.4352 17.7827 19.4733 17.6986 19.5192L17.9972 19.4349L17.997 19.4352ZM16.4663 19.6032C16.5506 19.6032 16.7188 19.6032 16.7647 19.6413L16.466 19.6029L16.4663 19.6032ZM16.933 19.6032C16.9788 19.5572 17.1473 19.5572 17.2314 19.6032H16.9327H16.933Z" fill="white" stroke="#C09300" stroke-width="0.0475198" stroke-linecap="round" stroke-linejoin="round"/>
<path d="M13.5111 19.9776C13.4826 19.9721 13.4676 19.9496 13.4748 19.9229C13.4836 19.8904 13.5095 19.8719 13.5342 19.8806C13.5498 19.8862 13.5784 19.915 13.5785 19.9254C13.5787 19.9372 13.5636 19.9655 13.5571 19.9656C13.5543 19.9656 13.5499 19.968 13.5474 19.971C13.542 19.9773 13.5254 19.9803 13.5111 19.9776V19.9776ZM16.4407 20.1866C16.43 20.1827 16.4132 20.159 16.4132 20.148C16.4133 20.1274 16.4438 20.0937 16.4628 20.0936C16.4721 20.0935 16.4977 20.1068 16.5073 20.1167C16.5246 20.1347 16.5208 20.1643 16.499 20.1811C16.4884 20.1894 16.4564 20.1924 16.4407 20.1866V20.1866ZM16.4599 20.3189C16.4375 20.3113 16.4293 20.3003 16.4275 20.2755C16.4256 20.2496 16.4281 20.2456 16.4555 20.2307L16.4749 20.22L16.4934 20.2283C16.5189 20.2398 16.5304 20.2521 16.5313 20.2693C16.5322 20.2878 16.5185 20.3068 16.4972 20.3163C16.4784 20.3249 16.4772 20.3249 16.4598 20.319L16.4599 20.3189Z" fill="#C09300"/>
<path d="M13.7463 19.7381C13.7279 19.7376 13.7026 19.7545 13.688 19.7632C13.6533 19.7712 13.6131 19.7925 13.5797 19.7698C13.5467 19.7597 13.5029 19.7677 13.498 19.8081C13.5064 19.8429 13.5551 19.8628 13.5847 19.8398C13.6065 19.8111 13.6663 19.7943 13.6729 19.8431C13.6486 19.8799 13.6513 19.9289 13.6313 19.9681C13.628 19.9925 13.6178 20.0157 13.6047 20.0364C13.58 20.0389 13.5537 20.036 13.5329 20.0514C13.4995 20.0532 13.4655 20.0698 13.4463 20.0981C13.4248 20.1289 13.4041 20.1602 13.3979 20.1981C13.4036 20.2367 13.4479 20.2478 13.4812 20.2498C13.5168 20.2595 13.5524 20.2724 13.5878 20.2831C13.6458 20.296 13.7 20.3169 13.7579 20.3297C13.8424 20.3551 13.9311 20.3669 14.0162 20.3897C14.0251 20.3926 14.0335 20.3952 14.0429 20.3963C14.0782 20.4036 14.0966 20.3652 14.0995 20.3363C14.1171 20.2744 14.1305 20.2115 14.1479 20.1496C14.1599 20.1247 14.1744 20.0687 14.1263 20.0813C14.0988 20.0977 14.0755 20.1225 14.0413 20.1246C13.9947 20.1272 14.0213 20.175 14.0397 20.1946C14.0437 20.2259 14.0338 20.2633 14.013 20.2879C13.9853 20.3055 13.9505 20.2849 13.9213 20.2779C13.8907 20.2784 13.8294 20.2628 13.858 20.2213C13.8681 20.1905 13.869 20.1567 13.8813 20.1262C13.897 20.0935 13.8993 20.0578 13.9064 20.023C13.8872 19.9815 13.8541 20.0366 13.828 20.0413C13.81 20.0538 13.7424 20.0591 13.7781 20.0913C13.8087 20.1146 13.7852 20.1551 13.7797 20.1846C13.7777 20.2257 13.735 20.2355 13.7014 20.2262C13.6679 20.2246 13.6214 20.1998 13.6496 20.163C13.6561 20.1323 13.6669 20.1022 13.6731 20.0712C13.6857 20.034 13.6963 19.9986 13.7097 19.9613C13.7155 19.9282 13.7273 19.8968 13.743 19.8679C13.744 19.8314 13.7685 19.7999 13.7681 19.7629C13.7655 19.7448 13.7574 19.7383 13.7464 19.7379L13.7463 19.7381ZM13.5546 20.1248C13.5586 20.1241 13.5627 20.1246 13.5664 20.1264C13.5797 20.1321 13.58 20.1429 13.5664 20.1548C13.5603 20.1599 13.5536 20.1649 13.5513 20.1648C13.5264 20.1627 13.519 20.1589 13.518 20.1499C13.5169 20.1418 13.5196 20.1394 13.5362 20.1315C13.5421 20.1285 13.5482 20.1262 13.5546 20.1248H13.5546ZM13.4994 20.3925C13.4729 20.3677 13.4772 20.3495 13.5163 20.3204C13.533 20.3079 13.5432 20.3093 13.5623 20.3268C13.5918 20.3536 13.593 20.3707 13.567 20.3937C13.5542 20.4051 13.5485 20.4074 13.5335 20.4076C13.5179 20.4077 13.5135 20.4058 13.4994 20.3925ZM13.6621 20.4416C13.656 20.4401 13.6502 20.4375 13.6452 20.4337C13.6402 20.4299 13.636 20.4252 13.6329 20.4198C13.6298 20.4143 13.6278 20.4083 13.6271 20.4021C13.6264 20.3959 13.627 20.3896 13.6288 20.3836C13.6358 20.3604 13.6397 20.3581 13.6736 20.3578C13.7118 20.3574 13.7192 20.3637 13.7195 20.3973C13.7198 20.4162 13.7183 20.4206 13.7088 20.4293C13.7024 20.4346 13.6949 20.4385 13.6868 20.4406C13.6787 20.4427 13.6703 20.443 13.6621 20.4415V20.4416ZM18.4146 20.4459C18.4025 20.4357 18.4 20.4312 18.3999 20.4184C18.3997 20.3965 18.4123 20.3804 18.4397 20.368C18.4761 20.3517 18.4909 20.3539 18.5046 20.378C18.5228 20.41 18.5219 20.4232 18.5001 20.4448C18.4881 20.4567 18.4858 20.4574 18.4583 20.4576C18.4312 20.4578 18.4281 20.4571 18.4146 20.4459H18.4146ZM13.8781 20.5072C13.8586 20.502 13.8486 20.4875 13.8483 20.4642C13.8481 20.4463 13.8494 20.4435 13.8618 20.4338C13.8699 20.4275 13.8826 20.422 13.8928 20.4207C13.907 20.4187 13.9121 20.42 13.9236 20.428C13.9529 20.4487 13.9592 20.4691 13.9423 20.4888C13.9241 20.51 13.9069 20.5149 13.8781 20.5072ZM15.0471 20.5595C15.0429 20.5541 15.0333 20.5509 15.0323 20.5442C15.034 20.5146 15.0355 20.4846 15.0449 20.4563C15.05 20.4284 15.0455 20.3992 15.0552 20.372C15.0652 20.3226 15.0652 20.2717 15.0767 20.2226C15.0772 20.1972 15.0796 20.1719 15.087 20.1476C15.0953 20.1091 15.0877 20.0688 15.099 20.0308C15.0978 20.0165 15.1142 19.9783 15.1287 20.0009C15.1496 20.0317 15.1772 20.0567 15.2044 20.0818C15.2278 20.0952 15.2063 20.1151 15.1902 20.1218C15.168 20.1305 15.1626 20.1549 15.1642 20.1763C15.1611 20.1984 15.1522 20.2193 15.1513 20.2419C15.1467 20.2751 15.1476 20.3088 15.1433 20.342C15.1336 20.3745 15.1372 20.4092 15.134 20.4427C15.1346 20.4639 15.1244 20.4832 15.1258 20.5045C15.1232 20.5262 15.1223 20.5522 15.1041 20.567C15.0865 20.5759 15.0612 20.5744 15.0471 20.5595ZM16.6311 20.0368C16.6054 20.0563 16.5824 20.0792 16.5594 20.1019C16.5279 20.1258 16.5854 20.1397 16.5928 20.1602C16.6012 20.1914 16.6008 20.2247 16.6029 20.2568C16.6124 20.2862 16.6166 20.3175 16.6145 20.3485C16.6118 20.3816 16.5684 20.3747 16.5495 20.3935C16.5232 20.4045 16.5127 20.4303 16.4928 20.4484C16.4796 20.4742 16.4761 20.5059 16.4744 20.5351C16.4763 20.559 16.4583 20.5858 16.4744 20.6068C16.4766 20.6098 16.479 20.6139 16.4811 20.6168C16.4865 20.6245 16.4994 20.6184 16.5078 20.6202C16.5346 20.6186 16.5627 20.6227 16.5878 20.6118C16.6523 20.6007 16.7175 20.5998 16.7828 20.5968C16.8228 20.5981 16.8612 20.5842 16.9011 20.5851C16.9324 20.592 16.9464 20.5582 16.9461 20.5335C16.9284 20.4987 16.9437 20.4573 16.9295 20.4219C16.9169 20.3859 16.9218 20.3456 16.9161 20.3085C16.9153 20.2791 16.8783 20.2684 16.8594 20.2901C16.8413 20.3085 16.8119 20.3122 16.7978 20.3351C16.782 20.3672 16.8313 20.3673 16.8394 20.3918C16.8489 20.4166 16.8458 20.444 16.8478 20.4702C16.8539 20.5018 16.8195 20.5035 16.7978 20.5068C16.7692 20.5175 16.729 20.5247 16.7128 20.4901C16.7027 20.4645 16.7041 20.4372 16.7012 20.4101C16.7005 20.3626 16.6891 20.3158 16.6863 20.2685C16.6835 20.21 16.6734 20.1518 16.6696 20.0935C16.669 20.0692 16.6657 20.0295 16.6312 20.0368H16.6311ZM16.5978 20.4768L16.6145 20.4784L16.6161 20.4984L16.6178 20.5184L16.5961 20.5252C16.589 20.5273 16.5818 20.529 16.5744 20.5302C16.571 20.5281 16.5677 20.5259 16.5644 20.5235C16.5527 20.515 16.5557 20.503 16.5711 20.4868C16.5798 20.4778 16.5839 20.476 16.5978 20.4768V20.4768ZM14.9997 19.9819C14.9794 19.9891 14.9537 20.0188 14.933 20.0186C14.8861 20.0219 14.8926 20.0676 14.9263 20.0835C14.9307 20.0974 14.9266 20.1149 14.9279 20.1302C14.9345 20.1723 14.908 20.2062 14.913 20.2486C14.9106 20.295 14.8966 20.3402 14.8946 20.3869C14.8815 20.4351 14.8813 20.4846 14.873 20.5336C14.8675 20.5775 14.8357 20.562 14.808 20.5502C14.8078 20.5312 14.8066 20.5126 14.8064 20.4936C14.8179 20.45 14.7829 20.4373 14.748 20.4319C14.7115 20.4354 14.6935 20.404 14.7014 20.3719C14.7171 20.3533 14.7567 20.3584 14.7814 20.3552C14.8337 20.3661 14.8317 20.2959 14.8048 20.2719C14.7864 20.238 14.7408 20.2234 14.7281 20.1886C14.7332 20.1424 14.7025 20.0962 14.6648 20.0736C14.6066 20.0695 14.5628 20.1196 14.5414 20.1685C14.5173 20.1755 14.4931 20.1828 14.4697 20.1919C14.4318 20.2013 14.3779 20.2669 14.4297 20.2919C14.4587 20.2999 14.547 20.32 14.5081 20.3602C14.4861 20.3979 14.444 20.3986 14.4064 20.3885C14.3678 20.3885 14.3248 20.3698 14.3264 20.3252C14.3185 20.2852 14.3198 20.2421 14.3013 20.2052C14.2935 20.1604 14.2426 20.1709 14.2397 20.2119C14.2006 20.2404 14.2058 20.2864 14.233 20.3202C14.2501 20.3591 14.2332 20.4043 14.2163 20.4402C14.2062 20.4869 14.1547 20.4885 14.1181 20.5035C14.0999 20.5106 14.0311 20.4994 14.0563 20.5386C14.0965 20.5527 14.1445 20.5655 14.1863 20.5552C14.2302 20.5498 14.2683 20.5198 14.2897 20.4819C14.3191 20.452 14.3698 20.4677 14.408 20.467C14.4492 20.4668 14.4913 20.4958 14.5313 20.4769C14.5429 20.4469 14.5964 20.3972 14.6129 20.4486C14.6101 20.4947 14.6508 20.5194 14.6929 20.5137C14.739 20.511 14.7219 20.5462 14.7212 20.5736C14.7243 20.6235 14.7564 20.6496 14.798 20.6703C14.8121 20.6741 14.827 20.6728 14.8412 20.6703C14.8812 20.6578 14.9241 20.64 14.9362 20.5953C14.9525 20.559 14.9528 20.518 14.9646 20.4803C14.974 20.42 14.9863 20.3598 14.9879 20.2987C15.0027 20.2432 14.9985 20.1847 15.0096 20.1286C15.0167 20.0869 15.0219 20.0453 15.0263 20.0036C15.0214 19.9814 15.0118 19.9776 14.9997 19.982V19.9819ZM14.6381 20.2035C14.6461 20.2046 14.6505 20.2144 14.6514 20.2318C14.6522 20.2513 14.6623 20.2671 14.6746 20.2702C14.6844 20.2726 14.6835 20.283 14.673 20.2902C14.6669 20.2944 14.6559 20.297 14.6363 20.2969C14.6055 20.2967 14.5864 20.2887 14.5697 20.2718L14.5597 20.2619L14.5746 20.2519C14.5822 20.2461 14.5959 20.2342 14.6047 20.2252C14.6199 20.2098 14.6299 20.2026 14.638 20.2036L14.6381 20.2035ZM18.1596 19.7835C18.1298 19.7849 18.1002 19.7894 18.0713 19.7968C18.0159 19.7933 17.988 19.8516 18.0413 19.8802C18.0735 19.962 18.1235 19.8632 18.1746 19.8701C18.2514 19.8851 18.2578 19.9678 18.2697 20.0301C18.274 20.0918 18.2918 20.1518 18.3097 20.2101C18.361 20.2672 18.2713 20.3029 18.233 20.2584C18.2005 20.223 18.1306 20.1795 18.0914 20.2285C18.0431 20.2488 18.0411 20.3133 18.0012 20.3318C17.9368 20.3515 17.9287 20.2722 17.8946 20.2384C17.8633 20.1946 17.8034 20.1907 17.7546 20.1752C17.7317 20.1288 17.7437 20.0501 17.6963 20.0185C17.6565 20.0347 17.5836 20.1093 17.6447 20.1435C17.7042 20.1947 17.6186 20.2182 17.5913 20.2535C17.5523 20.297 17.546 20.3568 17.5396 20.4118C17.4725 20.449 17.4594 20.3699 17.4513 20.3203C17.446 20.261 17.396 20.2783 17.3612 20.3003C17.3105 20.3208 17.2851 20.3691 17.2496 20.4069C17.2453 20.4414 17.2516 20.4792 17.2512 20.5152C17.2628 20.5585 17.3154 20.5381 17.3479 20.5352C17.4002 20.5134 17.4215 20.5687 17.3796 20.6003C17.3513 20.6363 17.2612 20.6174 17.2696 20.6752C17.2986 20.6786 17.3288 20.6775 17.358 20.6752C17.4161 20.6592 17.4785 20.6182 17.4846 20.5535C17.4922 20.497 17.5735 20.5074 17.6179 20.4952C17.6734 20.4792 17.7403 20.4751 17.7529 20.5452C17.7907 20.585 17.8729 20.6297 17.9146 20.5752C17.957 20.5494 17.9773 20.5039 17.9746 20.4552C17.966 20.4134 18.0423 20.4119 18.0613 20.4352C18.089 20.481 18.176 20.4675 18.218 20.4419C18.2626 20.409 18.2722 20.3509 18.3363 20.3501C18.4314 20.3217 18.5301 20.3053 18.6229 20.2701C18.6981 20.2538 18.6117 20.2063 18.593 20.1785C18.5357 20.1502 18.4859 20.2661 18.4212 20.2085C18.3714 20.1703 18.3748 20.0977 18.3563 20.0418C18.3436 19.9694 18.3468 19.8859 18.2946 19.8285C18.2589 19.7903 18.2101 19.7812 18.1597 19.7835H18.1596ZM17.7963 20.2885C17.803 20.2883 17.8106 20.2916 17.8229 20.2984C17.8464 20.3114 17.8629 20.3327 17.8629 20.3502C17.8629 20.3615 17.8601 20.3622 17.8429 20.3701C17.8324 20.3749 17.8205 20.3803 17.8163 20.3802C17.8067 20.38 17.783 20.3611 17.7829 20.3535C17.7829 20.3503 17.7799 20.3382 17.7763 20.3284C17.77 20.3114 17.7709 20.3116 17.7796 20.3002C17.7851 20.2928 17.7896 20.2886 17.7963 20.2884L17.7963 20.2885ZM18.1447 20.3068C18.1644 20.3055 18.1762 20.3116 18.1847 20.3268C18.1943 20.3444 18.1877 20.3578 18.1629 20.3684C18.1521 20.3732 18.1412 20.377 18.1396 20.3768C18.138 20.3766 18.129 20.3714 18.1196 20.3651C18.1052 20.3557 18.1031 20.351 18.1029 20.3402C18.1027 20.3233 18.1216 20.3083 18.1446 20.3068H18.1447ZM17.6679 20.3118C17.6737 20.3109 17.6791 20.3139 17.6863 20.3201C17.6959 20.3284 17.6989 20.335 17.7012 20.3518C17.7029 20.3635 17.7027 20.3786 17.7012 20.3851C17.6987 20.3972 17.6984 20.3967 17.6713 20.3968C17.6371 20.3972 17.634 20.3934 17.6345 20.3619C17.6351 20.3418 17.6352 20.3364 17.6463 20.3252C17.6548 20.3165 17.6621 20.3127 17.6679 20.3118L17.6679 20.3118ZM17.3745 20.3885C17.3803 20.3897 17.3855 20.3925 17.3897 20.3967C17.3939 20.4008 17.3967 20.406 17.398 20.4118C17.4014 20.4288 17.3984 20.4365 17.3847 20.4435C17.3728 20.4495 17.3455 20.4515 17.3379 20.4469C17.3339 20.4443 17.3305 20.4409 17.3279 20.4368C17.3243 20.4304 17.325 20.4272 17.3295 20.4235C17.3328 20.4208 17.3363 20.4171 17.3362 20.4152C17.3362 20.4132 17.3399 20.4065 17.3446 20.4003C17.3479 20.3956 17.3524 20.392 17.3578 20.3899C17.3631 20.3878 17.3689 20.3873 17.3745 20.3885L17.3745 20.3885ZM17.8679 20.4518C17.8775 20.4518 17.8855 20.4551 17.8913 20.4602C17.9011 20.4688 17.9008 20.4815 17.8896 20.4902C17.8824 20.4957 17.8432 20.4952 17.8296 20.4902C17.8236 20.4879 17.8213 20.4848 17.8212 20.4784C17.8211 20.471 17.8233 20.4664 17.8362 20.4602C17.8472 20.455 17.8584 20.4519 17.8679 20.4518L17.8679 20.4518ZM16.9522 20.7088C16.9471 20.7054 16.9395 20.7026 16.9471 20.697C16.9563 20.6808 16.9747 20.6752 16.9911 20.6692C17.0203 20.6561 17.0456 20.6355 17.0643 20.6096C17.067 20.5918 17.0869 20.5822 17.0868 20.5637C17.087 20.5383 17.0885 20.5124 17.0824 20.4876C17.0755 20.4649 17.0584 20.4475 17.0383 20.4357C17.0247 20.4248 17.0024 20.4218 16.9973 20.4029C16.9945 20.3846 17.0108 20.3707 17.0165 20.3543C17.0284 20.3319 17.0384 20.3083 17.0512 20.2863C17.0651 20.271 17.0864 20.2855 17.0936 20.3004C17.1037 20.3151 17.1126 20.3311 17.1176 20.3482C17.1337 20.3659 17.148 20.3866 17.1538 20.4102C17.1617 20.4267 17.1743 20.4423 17.1736 20.4617C17.1736 20.4839 17.186 20.5037 17.1853 20.526C17.186 20.5559 17.1859 20.5871 17.1751 20.6153C17.1676 20.631 17.1527 20.6404 17.1427 20.6544C17.1257 20.6702 17.1069 20.6853 17.0851 20.6937C17.0697 20.6986 17.0608 20.7164 17.0415 20.7121C17.014 20.7126 16.9861 20.7164 16.9589 20.7119C16.9607 20.7148 16.9506 20.707 16.9523 20.7088H16.9522ZM16.5868 20.7328C16.5739 20.7195 16.5711 20.7139 16.571 20.7008C16.5708 20.6876 16.5733 20.6823 16.586 20.6695C16.6095 20.6459 16.6208 20.6454 16.6612 20.6658C16.6997 20.6853 16.7128 20.6871 16.7162 20.6733C16.7195 20.6599 16.7417 20.6477 16.7628 20.6477C16.7744 20.647 16.7857 20.6508 16.7944 20.6584C16.8078 20.6689 16.8084 20.6706 16.8088 20.6947C16.809 20.7194 16.8087 20.7203 16.7933 20.734C16.7785 20.747 16.7761 20.7478 16.7578 20.7459C16.7345 20.7436 16.7205 20.7329 16.7168 20.7146C16.714 20.7012 16.7093 20.698 16.7058 20.7071C16.7047 20.71 16.6988 20.7136 16.693 20.7151C16.6822 20.7178 16.6638 20.7294 16.6507 20.7418C16.6457 20.7464 16.6371 20.7486 16.623 20.7487C16.6041 20.7489 16.6014 20.7478 16.5868 20.7328ZM15.5298 20.2581C15.4943 20.2585 15.4562 20.2883 15.4514 20.3232C15.4595 20.3632 15.4929 20.4026 15.4714 20.4448C15.4863 20.4988 15.4309 20.5193 15.393 20.4882C15.3703 20.4363 15.3588 20.3796 15.3248 20.3331C15.2819 20.321 15.2632 20.3895 15.233 20.4131C15.248 20.4534 15.2915 20.4895 15.2965 20.5398C15.3068 20.5886 15.2772 20.6428 15.2348 20.6682C15.1982 20.7031 15.148 20.6906 15.1031 20.6982C15.0484 20.7302 15.1432 20.7418 15.1681 20.7432C15.2239 20.7488 15.2819 20.7415 15.3231 20.6998C15.3641 20.6803 15.3609 20.6094 15.4097 20.6015C15.4944 20.5978 15.5784 20.6146 15.6631 20.6166C15.7084 20.6274 15.7784 20.6111 15.8097 20.6448C15.8098 20.7039 15.8599 20.7403 15.9081 20.7632C15.9346 20.7706 15.9627 20.7376 15.9897 20.7315C16.0412 20.7151 16.0256 20.6514 16.0563 20.6264C16.1443 20.6218 16.2332 20.6227 16.3214 20.6215C16.3382 20.6219 16.3431 20.598 16.3547 20.5882C16.3527 20.5541 16.3515 20.5203 16.3463 20.4865C16.3294 20.4436 16.3491 20.3882 16.318 20.3516C16.2738 20.3395 16.2361 20.38 16.1913 20.3832C16.1419 20.4052 16.1003 20.4509 16.098 20.5066C16.0688 20.5544 16.0219 20.498 16.038 20.4582C16.0362 20.4409 16.0418 20.4207 16.0364 20.4049C16.0094 20.3725 15.962 20.383 15.9247 20.3782C15.8704 20.3804 15.8174 20.3686 15.7631 20.3699C15.7154 20.3663 15.6659 20.3741 15.6198 20.3616C15.5647 20.36 15.5723 20.3061 15.5631 20.2683C15.5534 20.2613 15.5416 20.2578 15.5297 20.2582L15.5298 20.2581ZM15.6364 20.4548C15.6547 20.4551 15.672 20.4575 15.6898 20.4598C15.7127 20.4636 15.7372 20.4519 15.7598 20.4598C15.8119 20.4687 15.864 20.4666 15.9164 20.4715C15.9303 20.4713 15.9402 20.4814 15.9498 20.4899C15.9499 20.5263 15.9498 20.5635 15.9498 20.5998C15.9482 20.6136 15.9538 20.6317 15.9415 20.6414C15.9375 20.6445 15.933 20.6468 15.9281 20.6482C15.9136 20.6444 15.8983 20.635 15.8913 20.6215C15.8892 20.6024 15.8924 20.5839 15.893 20.5648C15.8927 20.5599 15.8952 20.5522 15.893 20.5482C15.882 20.5398 15.8686 20.5352 15.8547 20.5348C15.8094 20.5332 15.765 20.53 15.7198 20.5282C15.682 20.5258 15.6433 20.5314 15.6064 20.5215C15.5921 20.5163 15.5735 20.5181 15.5648 20.5032C15.5522 20.4886 15.5703 20.4714 15.5831 20.4648C15.5999 20.4575 15.6181 20.4541 15.6364 20.4548H15.6364ZM16.238 20.4682C16.2466 20.468 16.2492 20.4708 16.2531 20.4864C16.2555 20.4966 16.2584 20.5087 16.2598 20.5131C16.2617 20.5195 16.2586 20.5215 16.2498 20.5248C16.2234 20.5348 16.1972 20.5338 16.1881 20.5215C16.184 20.5159 16.1888 20.4983 16.1964 20.4915C16.2119 20.4776 16.229 20.4682 16.238 20.4682Z" fill="#C09300"/>
<path d="M15.9986 17.4523C17.7395 16.1133 17.5902 14.1519 17.5902 14.1519C17.5443 14.1611 17.5006 14.1656 17.4547 14.1656C17.0895 14.1656 16.2185 13.9567 16.0153 13.6914C15.7977 13.9316 14.9075 14.1656 14.5447 14.1656C14.4989 14.1656 14.4529 14.1611 14.4093 14.1519C14.4093 14.1519 14.2576 16.1133 15.9986 17.4523Z" fill="white" stroke="#C09300" stroke-width="0.0613331"/>
<path d="M17.4514 14.2955C17.4364 14.2964 17.4213 14.2969 17.4061 14.2969C17.0752 14.2969 16.3064 14.1271 16.0101 13.8725C15.6997 14.1077 14.9184 14.2968 14.5928 14.2968C14.5776 14.2967 14.5624 14.2951 14.5475 14.2922C14.5467 14.3664 14.5506 14.4433 14.5552 14.5132C14.5724 14.7746 14.6183 15.037 14.6879 15.2893C14.907 16.0837 15.3554 16.7588 15.9984 17.2709C16.6419 16.7584 17.0909 16.0827 17.3104 15.2877C17.3802 15.0354 17.4261 14.7731 17.4435 14.5117C17.4481 14.4432 17.4519 14.3682 17.4514 14.2955H17.4514Z" fill="white" stroke="#C09300" stroke-width="0.0488531"/>
<path d="M15.4332 14.135C15.1201 14.2334 14.781 14.2966 14.5933 14.2966C14.578 14.2966 14.5632 14.2945 14.5482 14.2916C14.5475 14.3658 14.552 14.4434 14.5566 14.5133C14.5741 14.7754 14.6183 15.0351 14.6883 15.2883C14.8357 15.823 15.0886 16.3034 15.4332 16.7166V14.135ZM16.533 14.1302V16.7568C16.8953 16.3344 17.1587 15.8392 17.3113 15.2869C17.3813 15.0337 17.4254 14.774 17.4431 14.5119C17.4475 14.4434 17.4519 14.3679 17.4513 14.2952C17.4363 14.2962 17.4215 14.2969 17.4063 14.2969C17.2073 14.2969 16.8505 14.2345 16.5329 14.1302L16.533 14.1302Z" fill="#C09300"/>
<path d="M16.6562 13.4982C16.6917 13.5003 16.6081 13.3079 16.6081 13.3079C16.7022 13.4041 17.0577 13.4271 17.0577 13.4271C16.8443 13.3329 16.6311 12.622 16.6562 12.0554C16.6792 11.4866 16.5747 11.2628 16.491 11.1791C16.3843 11.0724 16.0414 10.9784 15.8156 10.9659C15.688 10.9595 15.7089 11.062 15.7089 11.062C15.4726 11.0013 15.2364 10.9783 15.1296 11.0494C15.0292 11.1164 15.0083 11.4509 15.0816 11.3924C15.2592 11.2502 15.414 11.3798 15.5206 11.5346C15.6147 11.6706 15.6085 12.0552 15.4725 12.5048C15.3304 12.9773 14.9413 13.45 14.9413 13.45C15.1525 13.45 15.4496 13.2618 15.4496 13.2618L15.3785 13.5566C15.6022 13.4499 15.78 13.2847 15.78 13.2847L15.9933 13.5085C16.0643 13.4144 16.2065 13.2847 16.2065 13.2847C16.2065 13.2847 16.3843 13.473 16.6561 13.4981L16.6562 13.4982Z" fill="white" stroke="#C09300" stroke-width="0.0649597"/>
<path d="M15.7927 12.1371C15.7927 12.1371 15.6735 13.0133 15.4498 13.2621M15.981 12.1142C15.981 12.1142 15.9349 13.0008 15.7802 13.2852M16.1479 12.1499C16.1479 12.1499 16.1479 13.1202 16.2065 13.2854M16.3591 12.1979C16.3591 12.1979 16.4072 13.0134 16.608 13.3083" stroke="#C09300" stroke-width="0.0677331"/>
<path d="M15.5772 11.7126C15.5668 11.6353 15.5479 11.5746 15.5207 11.5349C15.4141 11.3802 15.2594 11.2505 15.0817 11.3927C15.0817 11.3927 15.1423 11.2045 15.272 11.1983C15.3723 11.192 15.6002 11.2735 15.801 11.6164C15.801 11.6164 15.6525 11.583 15.617 11.6144C15.55 11.6729 15.5772 11.7126 15.5772 11.7126Z" fill="#C09300" stroke="#C09300" stroke-width="0.0188799"/>
<path d="M15.0631 11.1606C15.0777 11.1125 15.1008 11.0686 15.13 11.0498C15.2367 10.9787 15.473 11.0017 15.7092 11.0623C15.7092 11.0623 15.6883 10.9599 15.8159 10.9662C16.0417 10.9787 16.3847 11.0728 16.4913 11.1795C16.5163 11.2067 16.5457 11.2464 16.5707 11.307H16.5666C16.5143 11.2338 16.3658 11.238 16.3303 11.2422C16.2738 11.2484 16.2383 11.2463 16.1629 11.2651C16.1274 11.2735 16.073 11.2839 16.0437 11.3069C16.0208 11.3257 16.0019 11.3947 15.9664 11.3947C15.9099 11.3947 15.9141 11.3802 15.8995 11.3634C15.8807 11.3405 15.8701 11.3069 15.8514 11.309C15.7929 11.3195 15.6987 11.2735 15.5796 11.1794C15.4604 11.0853 15.4144 11.0623 15.2596 11.0728C15.1071 11.0853 15.0589 11.1711 15.0589 11.1711L15.0632 11.1606H15.0631Z" fill="#C09300" stroke="#C09300" stroke-width="0.0188799"/>
<path d="M15.9369 11.2986C15.9716 11.2986 15.9996 11.2705 15.9996 11.2359C15.9996 11.2012 15.9716 11.1732 15.9369 11.1732C15.9023 11.1732 15.8742 11.2012 15.8742 11.2359C15.8742 11.2705 15.9023 11.2986 15.9369 11.2986Z" fill="white"/>
</g>
</g>
</g>
<rect x="-0.5" y="0.5" width="33" height="33" rx="16.5" stroke="black" stroke-opacity="0.04"/>
</g>
<defs>
<clipPath id="clip0_1_122">
<rect width="32" height="32" rx="16" fill="white"/>
</clipPath>
<clipPath id="clip1_1_122">
<rect width="32" height="32" fill="white"/>
</clipPath>
<clipPath id="clip2_1_122">
<rect width="32" height="32" fill="white"/>
</clipPath>
<clipPath id="clip3_1_122">
<rect width="32" height="32" fill="white"/>
</clipPath>
</defs>
</svg>
