<svg width="32" height="32" viewBox="0 0 32 32" fill="none" xmlns="http://www.w3.org/2000/svg">
<g clip-path="url(#clip0_1_54)">
<g clip-path="url(#clip1_1_54)">
<g clip-path="url(#clip2_1_54)">
<g clip-path="url(#clip3_1_54)">
<path fill-rule="evenodd" clip-rule="evenodd" d="M0 0H60.8006V2.46156H0V0ZM0 4.92312H60.8006V7.38469H0V4.92312ZM0 9.84625H60.8006V12.3078H0V9.84625ZM0 14.7694H60.8006V17.2309H0V14.7694ZM0 19.6925H60.8006V22.1541H0V19.6925ZM0 24.6156H60.8006V27.0772H0V24.6156ZM0 29.5387H60.8006V32.0003H0V29.5387Z" fill="#BD3D44"/>
<path fill-rule="evenodd" clip-rule="evenodd" d="M0 2.46155H60.8006V4.92311H0V2.46155ZM0 7.38467H60.8006V9.84624H0V7.38467ZM0 12.3078H60.8006V14.7694H0V12.3078ZM0 17.2309H60.8006V19.6925H0V17.2309ZM0 22.154H60.8006V24.6156H0V22.154ZM0 27.0772H60.8006V29.5387H0V27.0772Z" fill="white"/>
<path fill-rule="evenodd" clip-rule="evenodd" d="M0 0H24.3202V17.2309H0V0Z" fill="#192F5D"/>
<path fill-rule="evenodd" clip-rule="evenodd" d="M2.0266 0.737488L2.24814 1.4186H2.96396L2.38475 1.83953L2.60605 2.5204L2.0266 2.09947L1.44739 2.5204L1.66869 1.83953L1.08923 1.4186H1.80555L2.0266 0.737488ZM6.08005 0.737488L6.30135 1.4186H7.01741L6.43821 1.83953L6.65926 2.5204L6.08005 2.09972L5.50085 2.52064L5.72189 1.83978L5.14269 1.41885H5.85876L6.08005 0.737488ZM10.1335 0.737488L10.3548 1.4186H11.0709L10.4917 1.83953L10.713 2.5204L10.1335 2.09947L9.5543 2.5204L9.7756 1.83953L9.19614 1.4186H9.91246L10.1335 0.737488ZM14.1867 0.737488L14.408 1.4186H15.1241L14.5449 1.83953L14.7662 2.5204L14.1867 2.09947L13.6075 2.5204L13.8288 1.83953L13.2494 1.4186H13.9657L14.1867 0.737488ZM18.2402 0.737488L18.4615 1.4186H19.1775L18.5981 1.83953L18.8196 2.5204L18.2402 2.09972L17.661 2.52064L17.882 1.83978L17.3028 1.41885H18.0189L18.2402 0.737488ZM22.2936 0.737488L22.5149 1.4186H23.231L22.6515 1.83953L22.8731 2.5204L22.2936 2.09947L21.7144 2.5204L21.9355 1.83953L21.3563 1.4186H22.0723L22.2936 0.737488ZM4.05345 2.46058L4.27474 3.1417H4.99081L4.4116 3.56262L4.63265 4.24349L4.05345 3.82256L3.47424 4.24349L3.69529 3.56262L3.11608 3.1417H3.83215L4.05345 2.46058ZM8.10666 2.46058L8.32795 3.1417H9.04402L8.46481 3.56262L8.68611 4.24349L8.10666 3.82256L7.52745 4.24349L7.74874 3.56262L7.16929 3.1417H7.88561L8.10666 2.46058ZM12.1601 2.46058L12.3814 3.1417H13.0975L12.5183 3.56262L12.7396 4.24349L12.1601 3.82256L11.5809 4.24349L11.8022 3.56262L11.2227 3.1417H11.9391L12.1601 2.46058ZM16.2136 2.46058L16.4349 3.1417H17.1509L16.5717 3.56262L16.7928 4.24349L16.2136 3.82256L15.6344 4.24349L15.8557 3.56262L15.2762 3.1417H15.9925L16.2136 2.46058ZM20.2668 2.46058L20.4881 3.1417H21.2041L20.6247 3.56262L20.8462 4.24349L20.2668 3.82256L19.6876 4.24349L19.9086 3.56262L19.3294 3.1417H20.0455L20.2668 2.46058ZM2.0266 4.18368L2.24814 4.86479H2.96396L2.38475 5.28572L2.60605 5.96659L2.0266 5.54566L1.44739 5.96659L1.66869 5.28572L1.08923 4.86479H1.80555L2.0266 4.18368ZM6.08005 4.18368L6.30135 4.86479H7.01741L6.43821 5.28572L6.65926 5.96659L6.08005 5.54566L5.50085 5.96659L5.72189 5.28572L5.14269 4.86479H5.85876L6.08005 4.18368ZM10.1335 4.18368L10.3548 4.86479H11.0709L10.4917 5.28572L10.713 5.96659L10.1335 5.54566L9.5543 5.96659L9.7756 5.28572L9.19614 4.86479H9.91246L10.1335 4.18368ZM14.1867 4.18368L14.408 4.86479H15.1241L14.5449 5.28572L14.7662 5.96659L14.1867 5.54566L13.6075 5.96659L13.8288 5.28572L13.2494 4.86479H13.9657L14.1867 4.18368ZM18.2402 4.18368L18.4615 4.86479H19.1775L18.5981 5.28572L18.8196 5.96659L18.2402 5.54566L17.661 5.96659L17.882 5.28572L17.3028 4.86479H18.0189L18.2402 4.18368ZM22.2936 4.18368L22.5149 4.86479H23.231L22.6515 5.28572L22.8731 5.96659L22.2936 5.54566L21.7144 5.96659L21.9355 5.28572L21.3563 4.86479H22.0723L22.2936 4.18368ZM4.05345 5.90677L4.27474 6.58788H4.99081L4.4116 7.00881L4.63265 7.68968L4.05345 7.26875L3.47424 7.68968L3.69529 7.00881L3.11608 6.58788H3.83215L4.05345 5.90677ZM8.10666 5.90677L8.32795 6.58788H9.04402L8.46481 7.00881L8.68611 7.68968L8.10666 7.26875L7.52745 7.68968L7.74874 7.00881L7.16929 6.58788H7.88561L8.10666 5.90677ZM12.1601 5.90677L12.3814 6.58788H13.0975L12.5183 7.00881L12.7396 7.68968L12.1601 7.26875L11.5809 7.68968L11.8022 7.00881L11.2227 6.58788H11.9391L12.1601 5.90677ZM16.2136 5.90677L16.4349 6.58788H17.1509L16.5717 7.00881L16.7928 7.68968L16.2136 7.26875L15.6344 7.68968L15.8557 7.00881L15.2762 6.58788H15.9925L16.2136 5.90677ZM20.2668 5.90677L20.4881 6.58788H21.2041L20.6247 7.00881L20.8462 7.68968L20.2668 7.26875L19.6876 7.68968L19.9086 7.00881L19.3294 6.58788H20.0455L20.2668 5.90677ZM2.0266 7.62986L2.24814 8.31098H2.96396L2.38475 8.7319L2.60605 9.41277L2.0266 8.99185L1.44739 9.41277L1.66869 8.7319L1.08923 8.31098H1.80555L2.0266 7.62986ZM6.08005 7.62986L6.30135 8.31098H7.01741L6.43821 8.7319L6.65926 9.41277L6.08005 8.99185L5.50085 9.41277L5.72189 8.7319L5.14269 8.31098H5.85876L6.08005 7.62986ZM10.1335 7.62986L10.3548 8.31098H11.0709L10.4917 8.7319L10.713 9.41277L10.1335 8.99185L9.5543 9.41277L9.7756 8.7319L9.19614 8.31098H9.91246L10.1335 7.62986ZM14.1867 7.62986L14.408 8.31098H15.1241L14.5449 8.7319L14.7662 9.41277L14.1867 8.99185L13.6075 9.41277L13.8288 8.7319L13.2494 8.31098H13.9657L14.1867 7.62986ZM18.2402 7.62986L18.4615 8.31098H19.1775L18.5981 8.7319L18.8196 9.41277L18.2402 8.99185L17.661 9.41277L17.882 8.7319L17.3028 8.31098H18.0189L18.2402 7.62986ZM22.2936 7.62986L22.5149 8.31098H23.231L22.6515 8.7319L22.8731 9.41277L22.2936 8.99185L21.7144 9.41277L21.9355 8.7319L21.3563 8.31098H22.0723L22.2936 7.62986ZM4.05345 9.35296L4.27474 10.0341H4.99081L4.4116 10.455L4.63265 11.1359L4.05345 10.7149L3.47424 11.1359L3.69529 10.455L3.11608 10.0341H3.83215L4.05345 9.35296ZM8.10666 9.35296L8.32795 10.0341H9.04402L8.46481 10.455L8.68611 11.1359L8.10666 10.7149L7.52745 11.1359L7.74874 10.455L7.16929 10.0341H7.88561L8.10666 9.35296ZM12.1601 9.35296L12.3814 10.0341H13.0975L12.5183 10.455L12.7396 11.1359L12.1601 10.7149L11.5809 11.1359L11.8022 10.455L11.2227 10.0341H11.9391L12.1601 9.35296ZM16.2136 9.35296L16.4349 10.0341H17.1509L16.5717 10.455L16.7928 11.1359L16.2136 10.7149L15.6344 11.1359L15.8557 10.455L15.2762 10.0341H15.9925L16.2136 9.35296ZM20.2668 9.35296L20.4881 10.0341H21.2041L20.6247 10.455L20.8462 11.1359L20.2668 10.7149L19.6876 11.1359L19.9086 10.455L19.3294 10.0341H20.0455L20.2668 9.35296Z" fill="white"/>
<path fill-rule="evenodd" clip-rule="evenodd" d="M2.0266 11.076L2.24814 11.7572H2.96396L2.38475 12.1781L2.60605 12.859L2.0266 12.438L1.44739 12.859L1.66869 12.1781L1.08923 11.7572H1.80555L2.0266 11.076ZM6.08005 11.076L6.30135 11.7572H7.01741L6.43821 12.1781L6.65926 12.859L6.08005 12.438L5.50085 12.859L5.72189 12.1781L5.14269 11.7572H5.85876L6.08005 11.076ZM10.1335 11.076L10.3548 11.7572H11.0709L10.4917 12.1781L10.713 12.859L10.1335 12.438L9.5543 12.859L9.7756 12.1781L9.19614 11.7572H9.91246L10.1335 11.076ZM14.1867 11.076L14.408 11.7572H15.1241L14.5449 12.1781L14.7662 12.859L14.1867 12.438L13.6075 12.859L13.8288 12.1781L13.2494 11.7572H13.9657L14.1867 11.076ZM18.2402 11.076L18.4615 11.7572H19.1775L18.5981 12.1781L18.8196 12.859L18.2402 12.438L17.661 12.859L17.882 12.1781L17.3028 11.7572H18.0189L18.2402 11.076ZM22.2936 11.076L22.5149 11.7572H23.231L22.6515 12.1781L22.8731 12.859L22.2936 12.438L21.7144 12.859L21.9355 12.1781L21.3563 11.7572H22.0723L22.2936 11.076ZM4.05345 12.7991L4.27474 13.4803H4.99081L4.4116 13.9012L4.63265 14.5821L4.05345 14.1611L3.47424 14.5821L3.69529 13.9012L3.11608 13.4803H3.83215L4.05345 12.7991ZM8.10666 12.7991L8.32795 13.4803H9.04402L8.46481 13.9012L8.68611 14.5821L8.10666 14.1611L7.52745 14.5821L7.74874 13.9012L7.16929 13.4803H7.88561L8.10666 12.7991ZM12.1601 12.7991L12.3814 13.4803H13.0975L12.5183 13.9012L12.7396 14.5821L12.1601 14.1611L11.5809 14.5821L11.8022 13.9012L11.2227 13.4803H11.9391L12.1601 12.7991ZM16.2136 12.7991L16.4349 13.4803H17.1509L16.5717 13.9012L16.7928 14.5821L16.2136 14.1611L15.6344 14.5821L15.8557 13.9012L15.2762 13.4803H15.9925L16.2136 12.7991ZM20.2668 12.7991L20.4881 13.4803H21.2041L20.6247 13.9012L20.8462 14.5821L20.2668 14.1611L19.6876 14.5821L19.9086 13.9012L19.3294 13.4803H20.0455L20.2668 12.7991Z" fill="white"/>
<path fill-rule="evenodd" clip-rule="evenodd" d="M2.0266 14.5222L2.24814 15.2033H2.96396L2.38475 15.6243L2.60605 16.3051L2.0266 15.8842L1.44739 16.3051L1.66869 15.6243L1.08923 15.2033H1.80555L2.0266 14.5222ZM6.08005 14.5222L6.30135 15.2033H7.01741L6.43821 15.6243L6.65926 16.3051L6.08005 15.8842L5.50085 16.3051L5.72189 15.6243L5.14269 15.2033H5.85876L6.08005 14.5222ZM10.1335 14.5222L10.3548 15.2033H11.0709L10.4917 15.6243L10.713 16.3051L10.1335 15.8842L9.5543 16.3051L9.7756 15.6243L9.19614 15.2033H9.91246L10.1335 14.5222ZM14.1867 14.5222L14.408 15.2033H15.1241L14.5449 15.6243L14.7662 16.3051L14.1867 15.8842L13.6075 16.3051L13.8288 15.6243L13.2494 15.2033H13.9657L14.1867 14.5222ZM18.2402 14.5222L18.4615 15.2033H19.1775L18.5981 15.6243L18.8196 16.3051L18.2402 15.8842L17.661 16.3051L17.882 15.6243L17.3028 15.2033H18.0189L18.2402 14.5222ZM22.2936 14.5222L22.5149 15.2033H23.231L22.6515 15.6243L22.8731 16.3051L22.2936 15.8842L21.7144 16.3051L21.9355 15.6243L21.3563 15.2033H22.0723L22.2936 14.5222Z" fill="white"/>
</g>
</g>
</g>
<rect x="-0.5" y="0.5" width="33" height="33" rx="16.5" stroke="black" stroke-opacity="0.04"/>
</g>
<defs>
<clipPath id="clip0_1_54">
<rect width="32" height="32" rx="16" fill="white"/>
</clipPath>
<clipPath id="clip1_1_54">
<rect width="32" height="32" fill="white"/>
</clipPath>
<clipPath id="clip2_1_54">
<rect width="32" height="32" fill="white"/>
</clipPath>
<clipPath id="clip3_1_54">
<rect width="32" height="32" fill="white"/>
</clipPath>
</defs>
</svg>
