<svg width="32" height="32" viewBox="0 0 32 32" fill="none" xmlns="http://www.w3.org/2000/svg">
<g clip-path="url(#clip0_1_3772)">
<g clip-path="url(#clip1_1_3772)">
<g clip-path="url(#clip2_1_3772)">
<g clip-path="url(#clip3_1_3772)">
<path d="M5.07104 0H27.7132V32H5.07104V0Z" fill="white"/>
<path d="M-6.25 0H5.07113V32H-6.25V0ZM27.7133 0H39.0344V32H27.7133V0ZM8.45675 15.4634L7.57756 15.7639L11.6686 19.3543C11.9779 20.2771 11.5611 20.5491 11.2954 21.0331L15.7367 20.4693L15.6211 24.9388L16.5409 24.9124L16.3403 20.48L20.7859 21.007C20.5108 20.4259 20.2659 20.1174 20.5205 19.1884L24.6089 15.7868L23.8934 15.5278C23.3084 15.0764 24.1462 13.3538 24.2726 12.2666C24.2726 12.2666 21.8854 13.0876 21.7289 12.658L21.121 11.4902L18.9493 13.8758C18.7121 13.9327 18.611 13.8383 18.5553 13.6378L19.5586 8.65244L17.9699 9.546C17.8369 9.60288 17.7039 9.55381 17.6162 9.39881L16.0884 6.33175L14.5128 9.51625C14.3941 9.63038 14.2752 9.64356 14.1766 9.566L12.6636 8.7175L13.5718 13.6639C13.4995 13.8603 13.3265 13.9156 13.123 13.8093L11.047 11.4507C10.7754 11.8858 10.5914 12.5967 10.2324 12.756C9.87344 12.9053 8.67119 12.4546 7.86538 12.2788C8.14063 13.2722 9.00138 14.9226 8.45662 15.4636L8.45675 15.4634Z" fill="#BF0A30"/>
</g>
</g>
</g>
<rect x="-0.5" y="0.5" width="33" height="33" rx="16.5" stroke="black" stroke-opacity="0.04"/>
</g>
<defs>
<clipPath id="clip0_1_3772">
<rect width="32" height="32" rx="16" fill="white"/>
</clipPath>
<clipPath id="clip1_1_3772">
<rect width="32" height="32" fill="white"/>
</clipPath>
<clipPath id="clip2_1_3772">
<rect width="32" height="32" fill="white"/>
</clipPath>
<clipPath id="clip3_1_3772">
<rect width="32" height="32" fill="white"/>
</clipPath>
</defs>
</svg>
