<svg width="20" height="20" viewBox="0 0 20 20" fill="none" xmlns="http://www.w3.org/2000/svg">
<g clip-path="url(#clip0_1_950)">
<g clip-path="url(#clip1_1_950)">
<g clip-path="url(#clip2_1_950)">
<g clip-path="url(#clip3_1_950)">
<path fill-rule="evenodd" clip-rule="evenodd" d="M0 0H38.0004V1.53848H0V0ZM0 3.07695H38.0004V4.61543H0V3.07695ZM0 6.15391H38.0004V7.69238H0V6.15391ZM0 9.23086H38.0004V10.7693H0V9.23086ZM0 12.3078H38.0004V13.8463H0V12.3078ZM0 15.3848H38.0004V16.9232H0V15.3848ZM0 18.4617H38.0004V20.0002H0V18.4617Z" fill="#BD3D44"/>
<path fill-rule="evenodd" clip-rule="evenodd" d="M0 1.53857H38.0004V3.07705H0V1.53857ZM0 4.61553H38.0004V6.154H0V4.61553ZM0 7.69248H38.0004V9.23096H0V7.69248ZM0 10.7694H38.0004V12.3079H0V10.7694ZM0 13.8464H38.0004V15.3849H0V13.8464ZM0 16.9233H38.0004V18.4618H0V16.9233Z" fill="white"/>
<path fill-rule="evenodd" clip-rule="evenodd" d="M0 0H15.2001V10.7693H0V0Z" fill="#192F5D"/>
<path fill-rule="evenodd" clip-rule="evenodd" d="M1.26662 0.460938L1.40509 0.886634H1.85247L1.49047 1.14971L1.62878 1.57526L1.26662 1.31218L0.904619 1.57526L1.04293 1.14971L0.680771 0.886634H1.12847L1.26662 0.460938ZM3.80003 0.460938L3.93834 0.886634H4.38588L4.02388 1.14971L4.16204 1.57526L3.80003 1.31233L3.43803 1.57541L3.57618 1.14987L3.21418 0.886788H3.66172L3.80003 0.460938ZM6.33344 0.460938L6.47175 0.886634H6.91929L6.55729 1.14971L6.6956 1.57526L6.33344 1.31218L5.97144 1.57526L6.10975 1.14971L5.74759 0.886634H6.19529L6.33344 0.460938ZM8.8667 0.460938L9.00501 0.886634H9.45255L9.09055 1.14971L9.22886 1.57526L8.8667 1.31218L8.50469 1.57526L8.643 1.14971L8.28085 0.886634H8.72854L8.8667 0.460938ZM11.4001 0.460938L11.5384 0.886634H11.986L11.6238 1.14971L11.7623 1.57526L11.4001 1.31233L11.0381 1.57541L11.1763 1.14987L10.8143 0.886788H11.2618L11.4001 0.460938ZM13.9335 0.460938L14.0718 0.886634H14.5194L14.1572 1.14971L14.2957 1.57526L13.9335 1.31218L13.5715 1.57526L13.7097 1.14971L13.3477 0.886634H13.7952L13.9335 0.460938ZM2.5334 1.53787L2.67171 1.96357H3.11926L2.75725 2.22665L2.89541 2.65219L2.5334 2.38911L2.1714 2.65219L2.30956 2.22665L1.94755 1.96357H2.3951L2.5334 1.53787ZM5.06666 1.53787L5.20497 1.96357H5.65251L5.29051 2.22665L5.42882 2.65219L5.06666 2.38911L4.70466 2.65219L4.84297 2.22665L4.48081 1.96357H4.9285L5.06666 1.53787ZM7.60007 1.53787L7.73838 1.96357H8.18592L7.82392 2.22665L7.96223 2.65219L7.60007 2.38911L7.23807 2.65219L7.37638 2.22665L7.01422 1.96357H7.46191L7.60007 1.53787ZM10.1335 1.53787L10.2718 1.96357H10.7193L10.3573 2.22665L10.4955 2.65219L10.1335 2.38911L9.77148 2.65219L9.90979 2.22665L9.54763 1.96357H9.99532L10.1335 1.53787ZM12.6667 1.53787L12.805 1.96357H13.2526L12.8904 2.22665L13.0289 2.65219L12.6667 2.38911L12.3047 2.65219L12.4429 2.22665L12.0809 1.96357H12.5284L12.6667 1.53787ZM1.26662 2.6148L1.40509 3.0405H1.85247L1.49047 3.30358L1.62878 3.72912L1.26662 3.46604L0.904619 3.72912L1.04293 3.30358L0.680771 3.0405H1.12847L1.26662 2.6148ZM3.80003 2.6148L3.93834 3.0405H4.38588L4.02388 3.30358L4.16204 3.72912L3.80003 3.46604L3.43803 3.72912L3.57618 3.30358L3.21418 3.0405H3.66172L3.80003 2.6148ZM6.33344 2.6148L6.47175 3.0405H6.91929L6.55729 3.30358L6.6956 3.72912L6.33344 3.46604L5.97144 3.72912L6.10975 3.30358L5.74759 3.0405H6.19529L6.33344 2.6148ZM8.8667 2.6148L9.00501 3.0405H9.45255L9.09055 3.30358L9.22886 3.72912L8.8667 3.46604L8.50469 3.72912L8.643 3.30358L8.28085 3.0405H8.72854L8.8667 2.6148ZM11.4001 2.6148L11.5384 3.0405H11.986L11.6238 3.30358L11.7623 3.72912L11.4001 3.46604L11.0381 3.72912L11.1763 3.30358L10.8143 3.0405H11.2618L11.4001 2.6148ZM13.9335 2.6148L14.0718 3.0405H14.5194L14.1572 3.30358L14.2957 3.72912L13.9335 3.46604L13.5715 3.72912L13.7097 3.30358L13.3477 3.0405H13.7952L13.9335 2.6148ZM2.5334 3.69174L2.67171 4.11743H3.11926L2.75725 4.38051L2.89541 4.80606L2.5334 4.54298L2.1714 4.80606L2.30956 4.38051L1.94755 4.11743H2.3951L2.5334 3.69174ZM5.06666 3.69174L5.20497 4.11743H5.65251L5.29051 4.38051L5.42882 4.80606L5.06666 4.54298L4.70466 4.80606L4.84297 4.38051L4.48081 4.11743H4.9285L5.06666 3.69174ZM7.60007 3.69174L7.73838 4.11743H8.18592L7.82392 4.38051L7.96223 4.80606L7.60007 4.54298L7.23807 4.80606L7.37638 4.38051L7.01422 4.11743H7.46191L7.60007 3.69174ZM10.1335 3.69174L10.2718 4.11743H10.7193L10.3573 4.38051L10.4955 4.80606L10.1335 4.54298L9.77148 4.80606L9.90979 4.38051L9.54763 4.11743H9.99532L10.1335 3.69174ZM12.6667 3.69174L12.805 4.11743H13.2526L12.8904 4.38051L13.0289 4.80606L12.6667 4.54298L12.3047 4.80606L12.4429 4.38051L12.0809 4.11743H12.5284L12.6667 3.69174ZM1.26662 4.76867L1.40509 5.19437H1.85247L1.49047 5.45745L1.62878 5.88299L1.26662 5.61991L0.904619 5.88299L1.04293 5.45745L0.680771 5.19437H1.12847L1.26662 4.76867ZM3.80003 4.76867L3.93834 5.19437H4.38588L4.02388 5.45745L4.16204 5.88299L3.80003 5.61991L3.43803 5.88299L3.57618 5.45745L3.21418 5.19437H3.66172L3.80003 4.76867ZM6.33344 4.76867L6.47175 5.19437H6.91929L6.55729 5.45745L6.6956 5.88299L6.33344 5.61991L5.97144 5.88299L6.10975 5.45745L5.74759 5.19437H6.19529L6.33344 4.76867ZM8.8667 4.76867L9.00501 5.19437H9.45255L9.09055 5.45745L9.22886 5.88299L8.8667 5.61991L8.50469 5.88299L8.643 5.45745L8.28085 5.19437H8.72854L8.8667 4.76867ZM11.4001 4.76867L11.5384 5.19437H11.986L11.6238 5.45745L11.7623 5.88299L11.4001 5.61991L11.0381 5.88299L11.1763 5.45745L10.8143 5.19437H11.2618L11.4001 4.76867ZM13.9335 4.76867L14.0718 5.19437H14.5194L14.1572 5.45745L14.2957 5.88299L13.9335 5.61991L13.5715 5.88299L13.7097 5.45745L13.3477 5.19437H13.7952L13.9335 4.76867ZM2.5334 5.84561L2.67171 6.2713H3.11926L2.75725 6.53438L2.89541 6.95992L2.5334 6.69684L2.1714 6.95992L2.30956 6.53438L1.94755 6.2713H2.3951L2.5334 5.84561ZM5.06666 5.84561L5.20497 6.2713H5.65251L5.29051 6.53438L5.42882 6.95992L5.06666 6.69684L4.70466 6.95992L4.84297 6.53438L4.48081 6.2713H4.9285L5.06666 5.84561ZM7.60007 5.84561L7.73838 6.2713H8.18592L7.82392 6.53438L7.96223 6.95992L7.60007 6.69684L7.23807 6.95992L7.37638 6.53438L7.01422 6.2713H7.46191L7.60007 5.84561ZM10.1335 5.84561L10.2718 6.2713H10.7193L10.3573 6.53438L10.4955 6.95992L10.1335 6.69684L9.77148 6.95992L9.90979 6.53438L9.54763 6.2713H9.99532L10.1335 5.84561ZM12.6667 5.84561L12.805 6.2713H13.2526L12.8904 6.53438L13.0289 6.95992L12.6667 6.69684L12.3047 6.95992L12.4429 6.53438L12.0809 6.2713H12.5284L12.6667 5.84561Z" fill="white"/>
<path fill-rule="evenodd" clip-rule="evenodd" d="M1.26662 6.92261L1.40509 7.3483H1.85247L1.49047 7.61138L1.62878 8.03693L1.26662 7.77385L0.904619 8.03693L1.04293 7.61138L0.680771 7.3483H1.12847L1.26662 6.92261ZM3.80003 6.92261L3.93834 7.3483H4.38588L4.02388 7.61138L4.16204 8.03693L3.80003 7.77385L3.43803 8.03693L3.57618 7.61138L3.21418 7.3483H3.66172L3.80003 6.92261ZM6.33344 6.92261L6.47175 7.3483H6.91929L6.55729 7.61138L6.6956 8.03693L6.33344 7.77385L5.97144 8.03693L6.10975 7.61138L5.74759 7.3483H6.19529L6.33344 6.92261ZM8.8667 6.92261L9.00501 7.3483H9.45255L9.09055 7.61138L9.22886 8.03693L8.8667 7.77385L8.50469 8.03693L8.643 7.61138L8.28085 7.3483H8.72854L8.8667 6.92261ZM11.4001 6.92261L11.5384 7.3483H11.986L11.6238 7.61138L11.7623 8.03693L11.4001 7.77385L11.0381 8.03693L11.1763 7.61138L10.8143 7.3483H11.2618L11.4001 6.92261ZM13.9335 6.92261L14.0718 7.3483H14.5194L14.1572 7.61138L14.2957 8.03693L13.9335 7.77385L13.5715 8.03693L13.7097 7.61138L13.3477 7.3483H13.7952L13.9335 6.92261ZM2.5334 7.99954L2.67171 8.42524H3.11926L2.75725 8.68832L2.89541 9.11386L2.5334 8.85078L2.1714 9.11386L2.30956 8.68832L1.94755 8.42524H2.3951L2.5334 7.99954ZM5.06666 7.99954L5.20497 8.42524H5.65251L5.29051 8.68832L5.42882 9.11386L5.06666 8.85078L4.70466 9.11386L4.84297 8.68832L4.48081 8.42524H4.9285L5.06666 7.99954ZM7.60007 7.99954L7.73838 8.42524H8.18592L7.82392 8.68832L7.96223 9.11386L7.60007 8.85078L7.23807 9.11386L7.37638 8.68832L7.01422 8.42524H7.46191L7.60007 7.99954ZM10.1335 7.99954L10.2718 8.42524H10.7193L10.3573 8.68832L10.4955 9.11386L10.1335 8.85078L9.77148 9.11386L9.90979 8.68832L9.54763 8.42524H9.99532L10.1335 7.99954ZM12.6667 7.99954L12.805 8.42524H13.2526L12.8904 8.68832L13.0289 9.11386L12.6667 8.85078L12.3047 9.11386L12.4429 8.68832L12.0809 8.42524H12.5284L12.6667 7.99954Z" fill="white"/>
<path fill-rule="evenodd" clip-rule="evenodd" d="M1.26662 9.07642L1.40509 9.50211H1.85247L1.49047 9.76519L1.62878 10.1907L1.26662 9.92766L0.904619 10.1907L1.04293 9.76519L0.680771 9.50211H1.12847L1.26662 9.07642ZM3.80003 9.07642L3.93834 9.50211H4.38588L4.02388 9.76519L4.16204 10.1907L3.80003 9.92766L3.43803 10.1907L3.57618 9.76519L3.21418 9.50211H3.66172L3.80003 9.07642ZM6.33344 9.07642L6.47175 9.50211H6.91929L6.55729 9.76519L6.6956 10.1907L6.33344 9.92766L5.97144 10.1907L6.10975 9.76519L5.74759 9.50211H6.19529L6.33344 9.07642ZM8.8667 9.07642L9.00501 9.50211H9.45255L9.09055 9.76519L9.22886 10.1907L8.8667 9.92766L8.50469 10.1907L8.643 9.76519L8.28085 9.50211H8.72854L8.8667 9.07642ZM11.4001 9.07642L11.5384 9.50211H11.986L11.6238 9.76519L11.7623 10.1907L11.4001 9.92766L11.0381 10.1907L11.1763 9.76519L10.8143 9.50211H11.2618L11.4001 9.07642ZM13.9335 9.07642L14.0718 9.50211H14.5194L14.1572 9.76519L14.2957 10.1907L13.9335 9.92766L13.5715 10.1907L13.7097 9.76519L13.3477 9.50211H13.7952L13.9335 9.07642Z" fill="white"/>
</g>
</g>
</g>
</g>
<defs>
<clipPath id="clip0_1_950">
<rect width="20" height="20" rx="10" fill="white"/>
</clipPath>
<clipPath id="clip1_1_950">
<rect width="20" height="20" fill="white"/>
</clipPath>
<clipPath id="clip2_1_950">
<rect width="20" height="20" fill="white"/>
</clipPath>
<clipPath id="clip3_1_950">
<rect width="20" height="20" fill="white"/>
</clipPath>
</defs>
</svg>
