<svg width="81" height="20" viewBox="0 0 81 20" fill="none" xmlns="http://www.w3.org/2000/svg">
<path d="M21.0302 7.02393H29.1168V8.52405H25.9371V16.957H24.1886V8.52405H21.0231V7.02393H21.0302ZM28.7713 9.7648H30.2659V11.1528H30.2941C30.3435 10.9565 30.4351 10.7672 30.5691 10.585C30.7031 10.4027 30.8652 10.2275 31.0556 10.0802C31.2459 9.92603 31.4574 9.80686 31.6901 9.70872C31.9227 9.61759 32.1624 9.56852 32.4022 9.56852C32.5855 9.56852 32.7194 9.57553 32.7899 9.58254C32.8604 9.58955 32.9309 9.60357 33.0085 9.61058V11.1387C32.8957 11.1177 32.7829 11.1037 32.663 11.0897C32.5432 11.0757 32.4304 11.0686 32.3176 11.0686C32.0496 11.0686 31.7958 11.1247 31.5561 11.2299C31.3164 11.335 31.112 11.4962 30.9357 11.6995C30.7595 11.9098 30.6185 12.1622 30.5127 12.4706C30.4069 12.7791 30.3576 13.1296 30.3576 13.5291V16.95H28.7642V9.7648L28.7713 9.7648ZM40.3337 16.957H38.7685V15.9545H38.7403C38.5429 16.3191 38.2538 16.6065 37.8661 16.8238C37.4783 17.0411 37.0835 17.1532 36.6816 17.1532C35.7299 17.1532 35.0389 16.9219 34.6159 16.4523C34.1929 15.9826 33.9814 15.2746 33.9814 14.3283V9.7648H35.5748V14.174C35.5748 14.8049 35.6946 15.2536 35.9414 15.5129C36.1811 15.7723 36.5265 15.9055 36.9636 15.9055C37.3021 15.9055 37.577 15.8564 37.8026 15.7513C38.0282 15.6461 38.2115 15.5129 38.3455 15.3377C38.4865 15.1694 38.5852 14.9591 38.6487 14.7208C38.7121 14.4825 38.7403 14.2231 38.7403 13.9427V9.77181H40.3337V16.957ZM43.048 14.6507C43.0973 15.1134 43.2736 15.4358 43.5768 15.6251C43.887 15.8073 44.2536 15.9055 44.6836 15.9055C44.8317 15.9055 45.0009 15.8915 45.1913 15.8704C45.3816 15.8494 45.5649 15.8003 45.7271 15.7372C45.8963 15.6742 46.0302 15.576 46.143 15.4498C46.2488 15.3237 46.2981 15.1624 46.2911 14.9591C46.284 14.7559 46.2065 14.5876 46.0655 14.4614C45.9245 14.3283 45.7482 14.2301 45.5297 14.146C45.3111 14.0689 45.0644 13.9988 44.7823 13.9427C44.5003 13.8866 44.2183 13.8235 43.9293 13.7604C43.6332 13.6974 43.3441 13.6132 43.0691 13.5221C42.7942 13.431 42.5474 13.3048 42.3289 13.1436C42.1103 12.9894 41.9341 12.7861 41.8071 12.5407C41.6732 12.2954 41.6097 11.994 41.6097 11.6294C41.6097 11.2369 41.7084 10.9144 41.8988 10.648C42.0892 10.3817 42.3359 10.1714 42.625 10.0101C42.9211 9.84892 43.2454 9.73676 43.605 9.66666C43.9645 9.60357 44.31 9.56852 44.6343 9.56852C45.0079 9.56852 45.3675 9.61058 45.7059 9.68769C46.0443 9.7648 46.3545 9.89098 46.6295 10.0732C46.9045 10.2485 47.1301 10.4798 47.3134 10.7602C47.4967 11.0406 47.6095 11.3841 47.6588 11.7837H45.995C45.9174 11.4051 45.7482 11.1458 45.4733 11.0196C45.1983 10.8864 44.881 10.8233 44.5285 10.8233C44.4157 10.8233 44.2818 10.8303 44.1267 10.8513C43.9716 10.8724 43.8306 10.9074 43.6896 10.9565C43.5556 11.0056 43.4428 11.0827 43.3441 11.1808C43.2524 11.2789 43.2031 11.4051 43.2031 11.5663C43.2031 11.7626 43.2736 11.9168 43.4075 12.036C43.5415 12.1552 43.7178 12.2533 43.9363 12.3374C44.1549 12.4145 44.4016 12.4846 44.6836 12.5407C44.9656 12.5968 45.2547 12.6599 45.5508 12.723C45.8399 12.7861 46.1219 12.8702 46.4039 12.9613C46.6859 13.0524 46.9327 13.1786 47.1512 13.3399C47.3698 13.5011 47.546 13.6974 47.68 13.9357C47.8139 14.174 47.8844 14.4755 47.8844 14.826C47.8844 15.2536 47.7857 15.6111 47.5883 15.9125C47.3909 16.2069 47.1371 16.4523 46.8269 16.6345C46.5167 16.8168 46.1642 16.957 45.7835 17.0411C45.4028 17.1252 45.0221 17.1673 44.6484 17.1673C44.1901 17.1673 43.7671 17.1182 43.3794 17.013C42.9916 16.9079 42.6532 16.7537 42.3712 16.5504C42.0892 16.3401 41.8636 16.0807 41.7014 15.7723C41.5392 15.4639 41.4546 15.0923 41.4405 14.6647H43.048V14.6507ZM48.3075 9.7648H49.513V7.60575H51.1064V9.7648H52.5446V10.9495H51.1064V14.7909C51.1064 14.9591 51.1134 15.0993 51.1275 15.2255C51.1416 15.3447 51.1769 15.4498 51.2262 15.534C51.2756 15.6181 51.3531 15.6812 51.4589 15.7232C51.5646 15.7653 51.6986 15.7863 51.8819 15.7863C51.9947 15.7863 52.1075 15.7863 52.2203 15.7793C52.3331 15.7723 52.4459 15.7583 52.5587 15.7302V16.957C52.3825 16.978 52.2062 16.992 52.0441 17.013C51.8749 17.0341 51.7057 17.0411 51.5294 17.0411C51.1064 17.0411 50.768 16.999 50.5142 16.9219C50.2604 16.8448 50.0559 16.7256 49.9149 16.5714C49.7668 16.4172 49.6752 16.2279 49.6188 15.9966C49.5694 15.7653 49.5342 15.4989 49.5271 15.2045V10.9635H48.3216V9.7648H48.3075ZM53.6727 9.7648H55.1814V10.7392H55.2096C55.4352 10.3186 55.7454 10.0242 56.1473 9.84191C56.5492 9.65965 56.9792 9.56852 57.4516 9.56852C58.0227 9.56852 58.5162 9.66666 58.9392 9.86995C59.3622 10.0662 59.7147 10.3396 59.9967 10.6901C60.2787 11.0406 60.4832 11.4472 60.6242 11.9098C60.7652 12.3725 60.8357 12.8702 60.8357 13.3959C60.8357 13.8796 60.7722 14.3493 60.6453 14.7979C60.5184 15.2536 60.3281 15.6531 60.0743 16.0036C59.8205 16.3541 59.4962 16.6275 59.1013 16.8378C58.7065 17.0481 58.2483 17.1532 57.7124 17.1532C57.4798 17.1532 57.2471 17.1322 57.0145 17.0902C56.7818 17.0481 56.5562 16.978 56.3447 16.8869C56.1332 16.7957 55.9287 16.6766 55.7525 16.5294C55.5692 16.3822 55.4211 16.2139 55.2942 16.0246H55.266V19.6137H53.6727V9.7648ZM59.2423 13.3679C59.2423 13.0454 59.2 12.73 59.1154 12.4216C59.0308 12.1131 58.9039 11.8467 58.7347 11.6084C58.5655 11.3701 58.354 11.1808 58.1073 11.0406C57.8535 10.9004 57.5644 10.8233 57.2401 10.8233C56.5703 10.8233 56.0627 11.0546 55.7243 11.5173C55.3859 11.9799 55.2167 12.5968 55.2167 13.3679C55.2167 13.7324 55.259 14.0689 55.3506 14.3773C55.4423 14.6858 55.5692 14.9521 55.7525 15.1764C55.9287 15.4008 56.1402 15.576 56.387 15.7022C56.6338 15.8354 56.9228 15.8985 57.2471 15.8985C57.6137 15.8985 57.9169 15.8214 58.1707 15.6742C58.4245 15.5269 58.629 15.3307 58.7911 15.0993C58.9533 14.861 59.0731 14.5946 59.1436 14.2932C59.2071 13.9918 59.2423 13.6833 59.2423 13.3679ZM62.0554 7.02393H63.6487V8.52405H62.0554V7.02393ZM62.0554 9.7648H63.6487V16.957H62.0554V9.7648ZM65.0729 7.02393H66.6662V16.957H65.0729V7.02393ZM71.552 17.1532C70.9739 17.1532 70.4592 17.0551 70.008 16.8658C69.5568 16.6766 69.1761 16.4102 68.8588 16.0807C68.5486 15.7443 68.3089 15.3447 68.1468 14.882C67.9846 14.4194 67.9 13.9077 67.9 13.3539C67.9 12.8071 67.9846 12.3024 68.1468 11.8397C68.3089 11.3771 68.5486 10.9775 68.8588 10.641C69.169 10.3046 69.5568 10.0452 70.008 9.85593C70.4592 9.66666 70.9739 9.56852 71.552 9.56852C72.1301 9.56852 72.6448 9.66666 73.096 9.85593C73.5472 10.0452 73.928 10.3116 74.2452 10.641C74.5554 10.9775 74.7951 11.3771 74.9573 11.8397C75.1194 12.3024 75.204 12.8071 75.204 13.3539C75.204 13.9077 75.1194 14.4194 74.9573 14.882C74.7951 15.3447 74.5554 15.7443 74.2452 16.0807C73.935 16.4172 73.5472 16.6766 73.096 16.8658C72.6448 17.0551 72.1301 17.1532 71.552 17.1532ZM71.552 15.8985C71.9045 15.8985 72.2147 15.8214 72.4756 15.6742C72.7365 15.5269 72.948 15.3307 73.1172 15.0923C73.2864 14.854 73.4062 14.5806 73.4908 14.2792C73.5684 13.9778 73.6107 13.6693 73.6107 13.3539C73.6107 13.0454 73.5684 12.744 73.4908 12.4356C73.4133 12.1271 73.2864 11.8608 73.1172 11.6224C72.948 11.3841 72.7365 11.1948 72.4756 11.0476C72.2147 10.9004 71.9045 10.8233 71.552 10.8233C71.1995 10.8233 70.8893 10.9004 70.6285 11.0476C70.3676 11.1948 70.1561 11.3911 69.9869 11.6224C69.8177 11.8608 69.6978 12.1271 69.6132 12.4356C69.5357 12.744 69.4934 13.0454 69.4934 13.3539C69.4934 13.6693 69.5357 13.9778 69.6132 14.2792C69.6908 14.5806 69.8177 14.854 69.9869 15.0923C70.1561 15.3307 70.3676 15.5269 70.6285 15.6742C70.8893 15.8284 71.1995 15.8985 71.552 15.8985ZM75.6693 9.7648H76.8749V7.60575H78.4683V9.7648H79.9065V10.9495H78.4683V14.7909C78.4683 14.9591 78.4753 15.0993 78.4894 15.2255C78.5035 15.3447 78.5388 15.4498 78.5882 15.534C78.6375 15.6181 78.715 15.6812 78.8208 15.7232C78.9266 15.7653 79.0605 15.7863 79.2438 15.7863C79.3566 15.7863 79.4694 15.7863 79.5822 15.7793C79.695 15.7723 79.8078 15.7583 79.9206 15.7302V16.957C79.7444 16.978 79.5681 16.992 79.406 17.013C79.2368 17.0341 79.0676 17.0411 78.8913 17.0411C78.4683 17.0411 78.1299 16.999 77.8761 16.9219C77.6223 16.8448 77.4178 16.7256 77.2768 16.5714C77.1287 16.4172 77.0371 16.2279 76.9807 15.9966C76.9313 15.7653 76.8961 15.4989 76.889 15.2045V10.9635H75.6835V9.7648L75.6693 9.7648Z" fill="#191919"/>
<path d="M19.1689 7.02408H11.8649L9.6088 0.112305L7.34568 7.02407L0.0416565 7.01707L5.95679 11.2931L3.69367 18.1979L9.6088 13.9288L15.5169 18.1979L13.2608 11.2931L19.1689 7.02408Z" fill="#00B67A"/>
<path d="M13.7684 12.8563L13.2608 11.293L9.6088 13.9289L13.7684 12.8563Z" fill="#005128"/>
</svg>
