<svg width="40" height="40" viewBox="0 0 40 40" fill="none" xmlns="http://www.w3.org/2000/svg">
<rect width="40" height="40" rx="8" fill="#907F6F" fill-opacity="0.1"/>
<path fill-rule="evenodd" clip-rule="evenodd" d="M15.7437 18.115L15.5005 18.1371L15.1026 17.9823L14.6715 17.7612L14.572 17.4294L14.5499 16.9319L14.2846 16.5339L14.1852 16.1137L14.0083 15.6272L13.6546 15.3397L13.1572 15.3618L12.6267 15.9147L12.1845 15.7046L11.9303 15.4945L11.8861 15.0965L11.7977 14.7316L11.5324 14.422L11.3003 14.1898L11.1566 13.9355H10.1176L10.0292 14.2341H9.55389H8.36016L7.15536 13.7365L6.38164 13.3938L6.48112 13.25L5.69635 13.3274L5 13.3827L5.02211 14.024L5.11053 14.5879L5.17685 15.0633L5.26528 15.5056L5.55266 15.6936L5.8732 16.2022L5.76267 16.5229L5.46423 16.7882L5.23212 16.755L5.17685 16.7992L5.42002 17.2194L5.75161 17.3853L5.86215 17.5732L5.96163 17.4848L6.30427 17.7943L6.53639 18.0155L6.54744 18.4025L6.41481 18.9222L6.69113 19.0991L7.06694 19.4419L7.38748 19.8509L7.46485 20.2821H7.57539L7.88487 20.0278L7.91803 19.8952L7.75224 19.5745L7.57539 19.2538L7.288 19.2318L7.32116 18.8558L7.22168 18.5241L7.11115 18.2146L7.06694 17.5511L6.7685 17.1973L6.71324 16.943L6.56955 16.7661V16.3017L6.45901 16.3128L6.44796 16.0695L6.37059 16.0253L6.32638 15.8484L6.01689 15.3618L5.90636 15.0744L6.01689 14.5326L6.02794 14.2009L6.2269 13.9134L6.49218 14.1014L6.70218 14.0682L7.04483 14.3557L6.95641 14.6321L6.98956 15.1739L7.15536 15.7046L7.12221 15.9258L7.31011 16.2796L7.56433 16.6444L7.87382 16.7108L7.89592 17.1973L8.17225 17.5511L8.43753 17.7169L8.24962 18.1482L8.32699 18.3251L8.78017 18.6126L8.99019 19.0548L9.49863 19.6077L9.91865 20.3153L10.0623 20.6802V20.9566L10.2281 21.2772L10.1839 21.5205L10.0071 21.7085L10.0402 21.9075L9.83022 21.9739L9.91865 22.3276L10.1618 22.7699L10.7587 23.179L10.9687 23.4997L11.5656 23.7208L11.9082 23.7651L12.0298 23.953L12.5051 24.2958L13.1572 24.6275L13.6104 24.727L14.1409 25.0476L14.5942 25.1803L15.0031 25.3683L15.3236 25.302L15.8542 25.0366L16.2078 24.9813L16.6942 25.1693L16.9816 25.4015L17.6006 26.1644L17.6448 25.9543L17.7332 25.7884L17.6559 25.6558L18.0206 25.0808H18.8164L18.8607 24.8376L18.7723 24.7933L18.717 24.6385L18.507 24.4727L18.308 24.2405L18.5843 24.2294L18.6396 23.8314H19.2144L19.7891 23.8425L19.8001 23.7318L19.8775 23.6987L19.977 23.7872L20.2533 23.3559L20.3749 23.3449L20.4965 23.3338L20.6292 23.5218L20.8612 22.9689L20.9939 22.6593L20.8945 22.5378L21.0933 22.1065L21.4802 21.6864L21.5466 21.3436L21.4139 21.1888L21.0381 21.2551L20.4965 21.222L19.8223 21.3878L19.3801 21.5758L19.2475 21.7859L19.1148 22.383L18.9159 22.792L18.4848 23.0795L18.0869 23.2011L17.6006 23.3338L17.1253 23.4002L16.5505 23.5992L16.3405 23.3007L15.7105 23.1127L15.5226 22.7699L15.4341 22.3609L15.1026 21.8301L15.0583 21.2884L14.9147 20.9345L14.8705 20.5475L14.992 20.2048L15.191 19.2538L15.39 18.7452L15.7437 18.115ZM30.5445 23.8369L30.5802 23.6379L30.4252 23.4278L30.6041 23.3062L30.6876 23.0298L30.6757 22.6538L30.7711 22.5322H31.284L31.6657 22.7092L31.8447 22.6981L31.9282 22.9524L32.298 22.9303L32.2502 23.1403L32.5485 23.1735L32.8467 23.4278L32.5723 23.7153L32.2621 23.5605L31.952 23.5937L31.7374 23.5605L31.6061 23.6931L31.3437 23.7374L31.2602 23.5605L31.0336 23.66L30.7115 24.1465L30.5564 24.036L30.5445 23.8369ZM27.3242 23.979L27.2001 24.1465L26.9931 23.979L26.793 23.6287L26.8483 23.4003L27.0138 23.3394L27.1035 23.3698L27.3587 23.4612L27.545 23.6896L27.6002 23.9637L27.3242 23.979ZM30.3662 21.4922L30.2874 21.5698L30.2481 21.6474L30.1299 21.694H30.0315L30.0118 21.6785L29.9331 21.7095L29.8346 21.7251L29.7165 21.694L29.6378 21.7095L29.6181 21.6319L29.6772 21.6009L29.7165 21.5543L29.7952 21.5233L29.8543 21.4612H29.9331L29.9921 21.4301L30.0315 21.4767L30.1299 21.5077L30.2283 21.4767L30.3662 21.3215H30.4252V21.3526L30.3662 21.4922ZM29.9865 20.1646L30.0217 20.1107H29.9164L29.8988 20.1242L29.8286 20.1915L29.8637 20.2183H29.9339L29.969 20.2587L29.9164 20.3125L29.8461 20.326L29.8111 20.3798L29.7409 20.3932V20.4201L29.7058 20.4471L29.6356 20.4605L29.6181 20.4874L29.6532 20.5143L29.6707 20.4874L29.7936 20.4471L29.8637 20.4067L29.8988 20.3529L29.969 20.3125L29.9865 20.2587V20.1646ZM28.8877 19.7538L28.83 19.7072L28.8109 19.7616L28.8493 19.7538L28.8685 19.8004L28.9262 19.8314L28.9069 19.8391L28.9646 19.8702L28.9838 19.909L28.9454 19.9323V19.9556L29.003 19.9788L28.9646 19.9944L29.0799 20.0099L29.1376 20.0409V20.0565L29.2144 20.1108V20.0487L29.1376 20.0021L29.0415 19.9866L29.003 19.9633V19.8935L28.9646 19.8391L28.9262 19.8236V19.7926L28.8877 19.7538ZM27.4387 18.5389L27.4791 18.5107L27.5094 18.5531L27.4993 18.5815L27.5094 18.6097L27.4892 18.6664L27.5194 18.7089L27.5396 18.8363L27.5598 18.8788L27.6002 18.9496L27.58 19.0487L27.5901 19.1337L27.5699 19.1762L27.5396 19.1904L27.4993 19.247L27.469 19.2753H27.4387L27.4085 19.3036H27.3782V19.247L27.3479 19.2187L27.358 19.1337L27.3277 19.1762L27.3076 19.162L27.247 19.1054L27.2168 19.0629L27.1966 19.0204L27.2672 18.9779L27.3177 19.077L27.3277 18.9921L27.2975 18.9779L27.2874 18.9355L27.2975 18.893L27.358 18.808L27.3782 18.7513L27.3681 18.7372L27.3984 18.6805V18.6097L27.3782 18.5107L27.3883 18.4965H27.4185L27.4387 18.5389ZM28.0771 18.5104L28.0649 18.4965H28.0526L28.0037 18.5591L28.0526 18.5451L28.126 18.5591L28.1627 18.5799L28.236 18.6009L28.2728 18.6147L28.3217 18.6635L28.3828 18.6913V18.7122L28.3706 18.747L28.3339 18.7748L28.3217 18.8026L28.3339 18.8166L28.3095 18.8304L28.2484 18.8235L28.236 18.8374L28.285 18.8583L28.3095 18.9L28.3217 18.8931L28.3339 18.8444L28.3584 18.8235L28.3706 18.7888V18.7678L28.3828 18.754L28.4073 18.6982V18.6844L28.3461 18.6565L28.3095 18.6287L28.285 18.6009L28.2728 18.5939L28.2116 18.5869L28.1138 18.5383L28.0771 18.5104ZM27.3636 17.3866L27.3984 17.427H27.4053L27.454 17.4472L27.468 17.4068L27.4818 17.427H27.5166L27.5445 17.3866H27.5724L27.5932 17.3463L27.6002 17.4472L27.5932 17.4875H27.5724H27.5445L27.468 17.5279H27.4471L27.3427 17.6086L27.294 17.6893H27.2661L27.2523 17.6692L27.2313 17.6086L27.1966 17.4875L27.2383 17.548L27.2453 17.5884H27.2801L27.3149 17.548L27.3427 17.427L27.3219 17.4068L27.3358 17.3463L27.3427 17.2858L27.3636 17.3866ZM27.7281 17.3098L27.6494 17.2858H27.6001L27.6592 17.3339H27.6888L27.738 17.346L27.7675 17.3339L27.7872 17.346L27.8167 17.4303V17.4664L27.8561 17.4905V17.5146L27.8659 17.5508L27.9151 17.5628L27.9447 17.5749L27.9348 17.611L27.9151 17.6472L27.8955 17.6592V17.7315L27.8757 17.7676V17.8038L27.8561 17.8519L27.8659 17.9001L27.8167 17.9483H27.797L27.7675 18.0085L27.8069 18.0206L27.8167 18.0688L27.8463 18.0929L27.8659 18.0688L27.8757 17.9604L27.9053 17.8399L27.9151 17.8158L27.9644 17.7676H28.0037L27.984 17.6833L28.0037 17.623V17.5989L27.9348 17.5387L27.8955 17.5266L27.8757 17.4544L27.7872 17.3339L27.7478 17.2977L27.7281 17.3098ZM33.5235 23.3606L33.4455 23.35L33.3804 23.3394L33.3283 23.3606V23.4137L33.3023 23.4243L33.2502 23.4456L33.2632 23.488L33.2893 23.4987L33.3153 23.5623L33.2893 23.6049V23.6473L33.2502 23.7217L33.3283 23.7323L33.3673 23.7111L33.4195 23.7217L33.4455 23.743L33.4715 23.7323L33.5497 23.7217L33.5886 23.7111L33.7059 23.7217L33.797 23.7004L33.836 23.7323L33.9011 23.7111L33.9272 23.7323L34.0183 23.743L34.0573 23.7217L34.1355 23.7111H34.1875L34.2266 23.7004L34.2657 23.6792L34.3047 23.6154L34.3438 23.573L34.4609 23.5411L34.4349 23.5093L34.4479 23.4349L34.4219 23.4456L34.3438 23.4137H34.3177L34.2917 23.3925L34.1875 23.3818L34.1745 23.3925L34.0964 23.3712V23.3925L33.9922 23.3712H33.9532L33.9011 23.3606L33.836 23.3712L33.81 23.3606L33.7579 23.3712L33.7189 23.3606L33.6408 23.3712L33.6017 23.3606H33.5235Z" fill="#0C0C0D" fill-opacity="0.88"/>
</svg>
