<svg width="40" height="40" viewBox="0 0 40 40" fill="none" xmlns="http://www.w3.org/2000/svg">
<rect width="40" height="40" rx="8" fill="#907F6F" fill-opacity="0.1"/>
<path fill-rule="evenodd" clip-rule="evenodd" d="M23.1922 7.67404L23.812 7.98391L24.2251 8.3833H24.7485L24.9275 8.21803L25.4026 8.0872L25.4921 8.4797L25.4715 8.63808L25.6643 9.10633L25.7056 9.53326L25.2305 9.45751L25.0308 9.609L25.3544 9.98084L25.623 10.4973L25.4508 10.5042L25.5816 10.7314L25.6781 10.8075L25.5266 10.78L25.4578 10.9315L25.437 11.0761L25.6299 11.3928L25.499 11.4892L25.4784 11.565L25.4164 11.6958L25.2167 11.7716L25.1203 11.8886L25.2098 12.0746L25.1892 12.1228L25.3682 12.1985L25.6712 12.3913L26.2426 12.9081L26.4698 13.1973L26.704 13.7069L26.6695 13.9479L26.3734 14.0306L26.16 14.2165L25.8432 14.2509L25.6986 14.0099L25.6228 13.6793L25.2579 13.2248L25.492 13.1491L25.0719 12.7704L24.8517 12.6874L24.8449 12.77L24.7554 12.8045L24.7071 12.7218L24.5901 12.6805L24.4593 12.6116L24.4661 12.4189L24.5281 12.3638L24.4593 12.288L24.4317 12.047L24.3697 11.9782L24.1356 11.9299L23.9015 11.8129L23.4676 11.9365L23.3024 12.143L22.9719 12.267L23.0613 12.0604L22.903 11.8883L23.0407 11.5922L22.7308 11.3649L22.4967 11.5164L22.2488 11.8263L22.1593 12.1086L21.815 12.1293L21.7255 12.3359L22.056 12.632L22.3866 12.7077L22.483 12.9005L22.8342 13.0313L23.0958 12.7145L23.502 12.8867L23.7431 12.9005L23.9015 13.1277L23.4401 13.2517L23.3713 13.4927L23.1096 13.713L23.0476 14.0229L23.5366 14.2639L23.8533 14.6978L24.232 15.104L24.6107 15.4415L24.7209 15.772L24.5281 15.8959L24.6933 16.13L24.9619 16.2677L25.017 16.6258L25.0239 16.977L24.8311 17.0183L24.6865 17.4935L24.5281 18.0788L24.294 18.6021L23.8533 19.0084L23.3988 19.3871L22.9788 19.4353L22.7791 19.6281L22.6206 19.4904L22.4485 19.7039L21.9527 19.9311L21.5533 19.9931L21.5052 20.4613L21.2917 20.4889L21.1402 20.1652L21.2022 20L20.665 19.8554L20.4998 19.9311L20.4991 19.9309L20.0522 20.3021L19.7973 20.7222L19.7561 21.032L20.121 21.4934L20.5686 22.0718L20.9611 22.3472L21.2434 22.6985L21.5189 23.5179L21.5464 24.296L21.2503 24.5852L20.8302 24.8744L20.541 25.2394L20.0866 25.6526L19.9282 25.3702L20.0109 25.0673L19.7088 24.8201L19.7079 24.8206L19.3773 24.7586L19.1983 24.5245L18.9573 24.07L18.5924 23.8631L18.2619 23.8769L18.2826 23.5256H17.9452L17.959 24.0146L17.8074 24.6619L17.711 25.0544L17.7592 25.3711L18.014 25.3849L18.1999 25.7912L18.2895 26.1699L18.5236 26.4247L18.7577 26.4728L18.971 26.7068L19.0676 26.7478L19.3086 27.0163L19.4807 27.3124L19.522 27.6085L19.4876 27.8082L19.5289 27.9597L19.5634 28.2214L19.7079 28.3453L19.8664 28.7378V28.8824L19.5909 28.9169L19.2122 28.5863L18.7439 28.2351L18.6889 28.0079L18.4547 27.7118L18.3858 27.3469L18.2344 27.1058L18.2619 26.7822L18.1656 26.5966L18.0071 26.4316L17.9244 26.2112L17.7042 25.9633L17.5044 25.7498L17.4562 26.0115L17.3668 25.7636L17.3943 25.4882L17.4769 25.0682L17.6284 24.6137L17.8074 24.2005L17.6215 23.7942L17.6077 23.5877L17.5389 23.3397L17.2428 22.9886L17.1188 22.7682L17.2428 22.6856L17.3391 22.3068L17.1395 22.0107L16.8571 21.6871L16.6161 21.3015L16.7676 21.2189L16.8709 20.7437L17.1395 20.723L17.3323 20.5303L17.5389 20.4269L17.594 20.2691L17.8763 19.9798L17.8418 19.7933L17.5801 19.9242L17.4011 19.8416L17.0912 19.6763L17.1463 19.3114L16.8916 19.2218L16.7262 18.8156L16.3407 18.8913L16.2924 18.368L16.5816 17.9961L16.5197 17.6312L16.4302 17.2937L16.2442 17.1905L16.0583 16.9288L15.8448 16.9632L15.4249 16.8944L15.5074 16.7084L15.2596 16.433L15.0392 16.619L14.7018 16.5156L14.3299 16.7911L14.0614 17.1216L13.7722 17.1767L13.5794 17.0597L13.3797 17.0459L13.0836 16.9495L12.9046 17.0597L12.7255 17.3902L12.6223 17.039L12.4087 17.1354L11.9612 17.0872L11.5136 16.9907L11.1693 16.7911L10.8594 16.7084L10.6873 16.495L10.46 16.433L10.0193 16.1438L9.68878 16.0061L9.55795 16.1093L8.96575 15.7995L8.53883 15.524L8.31847 15.0352L8.6008 15.0971L8.55948 14.8699L8.3529 14.6426L8.29782 14.2846L7.76759 13.7612L7.11343 13.5891L6.91372 13.2448L6.59009 13.0382L6.4868 12.9143L6.36285 12.6664L6.32841 12.4942L6.07364 12.3909L5.97035 12.4391L5.75688 12.026L5.83263 11.9296L5.75 11.8263L6.03232 11.6197L6.25267 11.5302L6.65206 11.5922L6.69338 11.3098L7.13408 11.2616L7.20294 11.0826L7.67808 10.8485L7.69185 10.7521L7.57479 10.4973L7.77448 10.3871L7.16851 9.62966L7.79514 9.45751L7.93285 9.3611L7.864 8.58298L8.60769 8.72759L8.71786 8.5279L8.54571 8.10097L8.80737 8.05966L8.93821 7.77044L9.05527 7.73601L9.28251 8.03899L9.67501 8.26623L10.2397 8.42461L10.6391 8.77579L10.7355 9.27847L10.942 9.47128L11.3896 9.54703L11.8854 9.60211L12.4363 9.87755L12.6704 9.92575L13.0147 10.3251L13.3383 10.5868L13.724 10.573L14.5021 10.6763L14.9428 10.6144L15.3284 10.6763L15.9757 10.9449H16.4026L16.6299 11.0757L16.9329 10.8416L17.4286 10.6901L17.952 10.6763L18.2894 10.5248L18.4271 10.2907L18.5924 10.1392L18.4615 9.99462L18.2619 9.82935L18.2963 9.54703L18.5166 9.58834L18.9229 9.67786L19.1433 9.44374L19.584 9.27847L19.6735 8.98926L19.8457 8.86531L20.3139 8.81023L20.6169 8.85843L20.5618 8.70694L20.066 8.40395L19.7079 8.26623L19.5358 8.42461L19.157 8.35575L18.9987 8.41084L18.8059 8.23869L18.7851 7.80487L18.7439 7.48123L19.2535 7.6465L19.5564 7.37794L19.4256 7.18513L19.4118 6.73754L19.5013 6.59982L19.3292 6.3657L19.0744 6.26929L19.1914 6.05583L19.5427 5.98008L19.9696 5.96631L20.5618 6.09715L20.9749 6.24864L21.5052 6.67557L21.7668 6.86149L22.0767 7.12315L22.5037 7.53631L23.1922 7.67404ZM20.43 24.6059L20.4309 24.6059L20.2387 24.3451L20.43 24.6059ZM20.851 23.4709V23.4697L20.7271 23.1739V23.1749L20.851 23.4709ZM20.7407 22.7339L20.7408 22.7329L20.6031 22.423L20.2656 22.1132L19.9626 21.7275L19.5702 21.2042L19.0681 20.936L19.0675 20.9369L19.5702 21.2055L19.9627 21.7289L20.2657 22.1144L20.6031 22.4243L20.7407 22.7339ZM19.3768 20.6605L19.1707 20.2746H18.7025L18.4615 19.8752L18.1865 19.5246L18.0002 19.5868L18.1861 19.5254L18.4616 19.8765L18.7026 20.2759H19.1709L19.3768 20.6605ZM21.5808 21.1979L21.2847 21.4113L20.9474 21.2736L20.8785 20.8949L21.03 20.6952L21.4293 20.5712L21.6566 20.5781L21.7668 20.7503L21.6291 20.9431L21.5808 21.1979ZM25.9123 33.9916L26.0775 33.9847L26.112 33.8607L25.988 33.7299L25.7952 33.5922L25.4233 33.6817L25.9123 33.9916ZM27.7852 33.3873L27.8404 33.284L28.1778 33.1875L28.4532 33.1669L28.5771 33.1118L28.7218 33.1669L28.5702 33.2909L28.1502 33.4836L27.8127 33.6076L27.5304 33.9382L27.1861 34.0346L27.1448 33.9864L27.193 33.8349L27.3858 33.5663L27.7852 33.3873ZM25.1891 33.151L25.0583 33.0339L24.9481 33.1922H24.7278L24.5763 33.4471L24.7897 33.4539L25.0583 33.392L25.5196 33.3024L25.437 33.1166L25.1891 33.151ZM27.007 33.0339L26.9314 33.2818L26.3391 33.4058L25.8227 33.3506L25.8364 33.1854L26.1532 33.0959L26.3873 33.2267L26.649 33.1922L27.007 33.0339ZM22.2281 32.4983L21.4845 32.4501L21.4431 32.2986L21.2779 32.2642L20.9749 32.092L20.5066 32.0645L20.2174 32.4845L20.5686 32.519L20.6237 32.7049L21.3261 32.8908L21.4914 32.8357L21.7737 32.877L22.2144 33.0491L22.5724 33.1249L22.9718 33.1593L23.323 33.1456L23.743 33.3246L24.1975 33.1593L23.7362 32.8976L23.1577 32.8151L23.0338 32.5258L22.3246 32.3123L22.2281 32.4983ZM31.6688 32.2013L31.4484 32.5043L31.4347 32.1738L31.5104 32.0154L31.5999 31.8639L31.6826 31.9948L31.6688 32.2013ZM28.6665 31.1343L28.8181 30.9829L28.7286 30.8382L28.336 30.8589L28.4049 31.0517L28.6665 31.1343ZM30.0852 30.8248L30.2092 31.1622L29.8923 30.9763L29.5687 30.9419L29.3415 30.9695L29.073 30.9557L29.1763 30.7146L29.6583 30.694L30.0852 30.8248ZM34.1341 32.0446L34.2029 30.6054L33.7828 30.5228L33.5005 30.3644L33.17 30.2129H32.8257L32.3712 30.4745L32.0269 30.9428L31.6344 30.6812L31.5449 29.965L31.483 29.7997L30.8563 29.6207L30.6566 29.7653L30.1333 29.8686L30.2916 30.089L30.6359 30.1715L30.7874 30.4332H31.359L31.3865 30.5503L31.1111 30.5434L30.6841 30.7018L30.9733 30.9221L30.9665 31.115L31.0422 31.2734L31.1937 31.2389L31.3176 31.0185L31.8892 31.4317L32.206 31.4661L32.9427 31.8449L33.1012 32.2098L33.17 32.6918L32.9152 32.8158L32.7224 33.1739L33.2181 33.1601L33.3215 33.0362L33.7071 33.1256L34.0239 33.4906L34.1341 32.0446ZM28.0674 28.8284L27.7575 29.2691L27.4615 29.3518L27.0896 29.2691L26.4355 29.2898L26.098 29.3518L26.043 29.6892L26.3873 30.0817L26.6007 29.882L27.3307 29.7305L27.2962 29.9302L27.1241 29.8682L26.9519 30.1299L26.6007 30.302L26.9519 30.8667L26.8762 31.0182L27.2067 31.5278L27.1861 31.817L26.9726 31.9478L26.828 31.7894L27.0345 31.4314L26.6421 31.6035L26.5525 31.4795L26.6077 31.3074L26.3391 31.0457L26.3873 30.6188L26.1187 30.7496L26.1325 31.2661L26.1187 31.8996L25.8639 31.9616L25.7056 31.8377L25.8364 31.4314L25.7951 31.0044L25.6298 30.9975L25.5196 30.6946L25.6917 30.4053L25.7538 30.0542L25.9603 29.3862L26.0361 29.2072L26.3666 28.8767L26.6765 29.0075L27.1654 29.0695L27.6129 29.0488L27.9986 28.7321L28.0674 28.8284ZM29.3965 29.3439L29.4171 28.9583L29.3758 28.7723L29.1417 28.7379L29.1073 28.4969L28.9833 28.6553L28.9144 29.0065L29.0315 29.5711L29.183 29.8535L29.2932 29.7983L29.1348 29.5643L29.1968 29.2957L29.3965 29.3439ZM21.9804 28.5657L22.0492 28.8618L22.3177 29.1166L22.5725 29.027L22.8204 29.0546L23.0477 28.8342L23.2336 28.7929L23.6054 28.9169L23.9222 28.8205L24.1012 28.2076L24.2458 28.0561L24.3629 27.5534H24.8105L25.1547 27.6292L24.9482 28.0286L25.2512 28.4417L25.1893 28.6483L25.6299 29.0546L25.1685 29.1097L25.0446 29.4127L25.0584 29.8121L24.6796 30.115L24.6521 30.5558L24.48 31.2305L24.4318 31.0722L23.9772 31.2719L23.8327 31.0033L23.5573 30.9758L23.3644 30.8312L22.8962 30.9965L22.7653 30.7761L22.5037 30.8036L22.1869 30.7554L22.1456 30.1632L21.9528 30.0393L21.7668 29.6606L21.7118 29.2749L21.7531 28.8618L21.9804 28.5657ZM19.9833 32.0511L20.4103 32.0442L20.4585 31.3625L20.5755 30.8116L20.3965 30.5293L20.1142 30.488L19.9833 30.247L19.9213 29.9371L19.7836 29.9234L19.5564 29.7719L19.7148 29.4137L19.4187 29.2072L19.1845 28.8353L18.854 28.5323L18.4546 28.5254L18.0759 28.0503L17.8555 27.8713L17.5388 27.5683L17.1807 27.1345L16.5679 27.0518L16.32 27.0312L16.3613 27.2585L16.7882 27.7474L17.0912 27.9953L17.3047 28.374L17.6627 28.6494L17.8142 28.9937L17.9313 29.3725L18.2687 29.7443L18.5579 30.3641L18.7438 30.6946L19.0261 31.0526L19.1845 31.3212L19.6735 31.6862L19.9833 32.0511ZM28.9007 14.3606L29.0109 14.5121L28.9213 14.7806L28.7079 14.636L28.5633 14.7393L28.5702 14.9941L28.2741 14.8701L28.1914 14.6636L28.281 14.395L28.515 14.4501L28.5839 14.2642L28.9007 14.3606ZM30.6361 13.3885L30.5947 13.0373L30.3468 12.5828L30.4363 12.1353L30.2435 11.7841L29.6789 11.1712L29.3484 11.2539L29.3621 11.5293L29.7133 12.0251L29.7822 12.5622L29.6651 12.7343L29.3552 13.175L29.0041 12.9616V13.7466L28.5702 13.6571L27.9023 13.7879L27.7646 14.0909L27.496 14.3181L27.4203 14.6004L27.1242 14.7382L27.3996 15.0411L27.6819 15.1651L27.7439 15.5645L27.9918 15.7367L28.164 15.5507L28.1089 14.8001L27.5993 14.4765L28.0263 14.4627L28.3774 14.2562L28.9696 14.1597L29.1348 14.4902L29.4585 14.6624L29.7615 14.1529L30.395 14.1253L30.7668 13.9187L30.8082 13.6088L30.6361 13.3885ZM29.7751 9.95263L30.085 10.0421L30.2089 9.86311L30.6221 10.352L30.1814 10.4691L30.1539 10.9029L29.4033 10.6068L29.5135 11.0819L29.121 11.0888L28.7973 10.655L28.756 10.3176L29.1141 10.2969L28.8111 9.69096L28.6872 9.35355L29.4102 9.80802L29.7751 9.95263ZM24.8105 27.5534L25.1547 27.6292L25.4301 27.4772L25.3544 27.2569L25.6161 27.2363L25.6299 27.0641L25.2994 26.9333L25.0377 26.8093L25.0102 26.6165L24.7967 26.3893L24.6383 26.3961L24.4593 26.7404L24.1769 27.0434L24.1701 27.2638L24.1632 27.5461L23.9772 27.5324L23.9015 27.6838L23.7087 27.4566L23.5296 27.732L23.268 28.0832L22.7997 28.1796L22.6344 28.2623L22.5656 28.6341L22.2695 28.7167L21.9804 28.5657L22.0492 28.8618L22.3177 29.1166L22.5725 29.027L22.8204 29.0546L23.0477 28.8342L23.2336 28.7929L23.6054 28.9169L23.9222 28.8205L24.1012 28.2076L24.2458 28.0561L24.3629 27.5534H24.8105ZM28.3498 25.7351L28.4118 26.0312L28.4531 26.279L28.3429 26.6784L28.1708 26.2308L28.0055 26.4581L28.1501 26.7817L28.0537 26.9883L27.5786 26.7335L27.4477 26.4098L27.5511 26.2033L27.2894 25.9898L27.1792 26.1758L27.0002 26.1551L26.7247 26.403L26.6559 26.2721L26.7798 25.9003L27.0139 25.7764L27.2136 25.6111L27.3652 25.8108L27.6544 25.6937L27.7025 25.494L27.978 25.4803L27.9229 25.1429L28.2603 25.3494L28.3085 25.5698L28.3498 25.7351ZM27.2206 25.054L27.3444 24.9094V24.4893L27.0966 24.9163L27.131 24.6202L26.9175 24.6477L26.9037 24.9163L26.8143 25.0403L26.7454 25.1642L27.0139 25.4672L27.1241 25.3363L27.2206 25.054ZM25.258 25.3363L24.7691 25.7563L24.9344 25.4465L25.1961 25.171L25.4026 24.868L25.561 24.4273L25.6712 24.7922L25.4301 25.0333L25.258 25.3363ZM26.711 24.3371L26.4631 24.1994L26.5457 24.406L26.5389 24.6332L26.5733 24.8398L26.8074 24.7089L26.9658 24.5162L26.952 24.3371H26.711ZM27.8472 24.0758L28.0124 24.5716L27.7026 24.4545L27.7232 24.606L27.8472 24.8746L27.6681 24.9779L27.6268 24.6611L27.5028 24.6404L27.4203 24.3719L27.6474 24.4063L27.6268 24.2411L27.3513 23.9036L27.7232 23.9105L27.8472 24.0758ZM26.2015 24.0632L26.2634 23.6777L26.1051 23.5193L25.7745 23.5055L26.0155 23.8429L26.2015 24.0632ZM25.8158 21.2752L26.0775 21.4061L26.1739 21.289L26.229 21.3992L26.2015 21.5851L26.3805 21.9018L26.3391 22.2668L26.1395 22.4114L26.1326 22.7695L26.2703 23.1206L26.4769 23.1689L26.6421 23.1206L27.1586 23.3617L27.1517 23.6027L27.2963 23.7128L27.2757 23.9126L26.952 23.6991L26.7799 23.465L26.6973 23.6303L26.4218 23.3617L26.0775 23.4305L25.8709 23.3342L25.864 23.1482L25.9742 23.0381L25.8434 22.9347L25.8158 23.0931L25.5886 22.8383L25.4991 22.6455L25.4233 22.2255L25.6024 22.3701L25.5266 21.6746L25.5817 21.2752H25.8158ZM25.4165 19.3818L25.32 19.7468L25.0447 19.368L24.9413 19.0444L25.0722 18.6106L25.2994 18.2732L25.506 18.404L25.4991 18.6725L25.4165 19.3818Z" fill="#0C0C0D" fill-opacity="0.88"/>
</svg>
