<svg width="40" height="40" viewBox="0 0 40 40" fill="none" xmlns="http://www.w3.org/2000/svg">
<rect width="40" height="40" rx="8" fill="#907F6F" fill-opacity="0.1"/>
<path fill-rule="evenodd" clip-rule="evenodd" d="M27.4104 7.79304L27.5433 7.50195L27.7845 7.6072V7.71542L27.8897 7.65982L27.9175 7.92591L27.9424 7.79286H28.1032L28.2639 7.92591L28.3415 7.76804L28.4495 7.90108L28.3415 7.9537L28.4495 7.98132L28.4219 8.24741L28.1835 8.40545L28.3165 8.69916H27.9978L28.0504 8.8322L28.3415 8.80458L28.53 8.91261L28.663 8.99024L28.8486 9.65527L28.8208 9.4974L28.9291 9.52223L28.7682 9.28394L28.9539 9.1787H28.8486L29.4057 8.99024L29.5941 9.07048V9.41698L29.9932 10.0294L30.5503 10.642L30.7359 10.7196L30.4976 10.8525L30.6028 11.2516L30.8163 11.44L30.578 11.3846L30.8441 11.7061L30.7359 11.7311L30.7637 11.9168L31.4815 12.4766L31.5618 12.2383L31.6948 12.3962L32.1217 12.424V12.69L32.5983 12.8479L32.7591 13.38L32.8394 13.4355L32.9198 13.4605L32.9724 13.4881L33.0529 13.5131L33.1054 13.5408V13.9121L33.3437 13.9925L33.7428 14.6577L32.2796 14.1533L31.7752 13.8068L31.4287 13.4605L31.4011 13.1694L31.0297 12.69L30.6028 12.1579L30.47 11.7838L29.9378 11.5731L29.8602 11.3596L29.7798 11.4651L29.8326 11.7061L30.1512 11.7838V11.9444L30.5254 12.4488L30.337 12.3435L30.3646 12.424L30.3924 12.4766L30.2593 12.4488L30.1789 12.3713L30.0182 12.2383V12.3157L30.0984 12.9283L30.6028 13.6212L30.7359 13.7016L30.7637 13.5408H30.8689L30.8441 14.3112H30.7359V14.0729L30.4172 14.472L30.5503 14.6577L30.337 15.0567L30.4172 15.1896H30.2841L30.1263 15.8022L30.4172 16.6003L30.6028 17.2129L30.7359 18.144H30.8967L31.002 17.9029L31.2681 18.144L31.2154 17.8253L31.4011 18.1162V17.7449L31.3234 17.6646L31.4287 17.4512H31.5091L31.9083 17.3708L31.9887 17.5038L31.8804 17.5593L32.2796 17.6369L32.5734 18.2244L32.7868 18.3823L33.0778 18.6484L33.1581 18.8619L33.5572 19.8734L33.8509 21.2841L33.718 21.9741L33.3437 22.0821L33.4519 22.4258L33.3189 22.5063L33.4048 22.5949L33.2911 22.5645L33.3715 22.3482L33.2883 22.1625L32.9004 21.8188L32.9254 21.4725L33.1581 21.6027L33.0832 21.3257L33.1637 21.2562L32.5761 20.0507L32.4681 20.2891L32.5734 19.6878L32.36 19.128L32.3876 19.0752C32.2906 18.8527 32.2582 18.6868 32.2908 18.5526C32.3063 18.4893 32.2977 18.4275 32.289 18.3653C32.2779 18.2846 32.2666 18.2031 32.3074 18.1162C32.2959 18.0585 32.2761 18.041 32.2667 18.0327C32.2584 18.0254 32.2583 18.0254 32.2796 18.011L32.1743 17.9029L32.2546 18.0636L32.1991 17.9721V17.9583L32.1715 17.9251L32.166 17.9196L32.0939 17.7975H32.0663H31.9333L31.8804 17.7699L31.8556 17.7449L31.8804 17.5842L31.8556 17.7173L31.8278 17.7975H31.8556H31.9333L31.9887 17.8503L32.0413 17.8779L32.1217 17.9583L32.1743 17.9834L32.1991 18.011L32.227 18.9671L32.36 19.1556V19.1805L32.3322 19.3136H32.4127L32.5206 19.5797L32.4182 20.4056L32.2159 20.8571L32.1743 20.9099L32.2104 20.8683L32.1715 20.9569L31.8278 20.6937L31.5119 20.7491L31.1905 21.0152L31.063 20.9127L31.0075 20.8877L30.0984 20.3499L29.4388 20.5634L29.0869 21.0402L29.0675 21.3339L29.353 21.4391L29.5471 22.3954L29.4057 22.7721L28.9485 22.8525L28.5078 23.0355L28.4827 23.2239L28.3997 23.4596L27.9673 23.9417L27.4436 24.1828L27.2135 24.0277L27.1443 24.0249L26.5123 24.1274L26.08 24.4711L25.789 24.4407L25.6476 24.158L24.7803 24.1552L24.6695 24.7066L24.8579 24.9588L24.7027 25.2498L24.0653 25.3524H23.982L23.8408 25.1695L23.3503 25.1889L22.3053 26.1478L22.1585 26.1783L22.1413 26.1545L22.1384 26.1597C22.1375 26.1606 22.1144 26.1658 22.087 26.1714C22.0596 26.1771 22.0325 26.1865 22.0268 26.1924C22.019 26.2006 22.0136 26.2325 22.0043 26.3268C21.9963 26.4072 21.9892 26.4524 21.9842 26.4555C21.9799 26.4582 21.9368 26.475 21.8883 26.493C21.8399 26.5109 21.7953 26.53 21.7893 26.5353C21.7792 26.5441 21.7784 26.5656 21.7784 26.82V27.0954L21.6805 27.1564L21.5826 27.2174L21.3526 27.1664C21.2154 27.1359 21.1165 27.1167 21.1075 27.119C21.0991 27.1211 21.0897 27.129 21.0866 27.1366C21.0783 27.1568 20.9291 27.8087 20.9291 27.8251C20.9291 27.8327 20.9451 27.8672 20.9648 27.9018C20.9844 27.9365 20.999 27.9662 20.9973 27.9679C20.9956 27.9696 20.9514 27.9583 20.899 27.9426C20.8467 27.9269 20.7976 27.9141 20.79 27.9141C20.7823 27.9141 20.667 27.9627 20.5338 28.0223L20.5018 28.0367C20.2681 28.1412 20.2459 28.1511 20.2467 28.1585C20.2468 28.1596 20.2475 28.1607 20.248 28.162C20.2498 28.1667 20.2513 28.176 20.2513 28.1826C20.2513 28.1923 20.2558 28.1945 20.2747 28.1945C20.2876 28.1945 20.3324 28.206 20.3744 28.2201C20.4367 28.2408 20.4514 28.248 20.4539 28.259C20.4699 28.3276 20.5754 28.8203 20.5754 28.8265C20.5754 28.831 20.5386 28.8765 20.4938 28.9275C20.4489 28.9787 20.4081 29.0267 20.4029 29.0343C20.3944 29.0468 20.3944 29.0579 20.4034 29.1403C20.409 29.1909 20.4152 29.2425 20.4171 29.2549L20.4204 29.2773L20.0983 29.4968C19.9212 29.6175 19.773 29.7175 19.7691 29.7188C19.7653 29.7201 19.6807 29.7271 19.5814 29.7344C19.48 29.7417 19.3972 29.7504 19.3926 29.7543C19.3881 29.758 19.3515 29.8156 19.3116 29.8823C19.2717 29.9489 19.2352 30.005 19.2305 30.0067C19.2259 30.0085 19.1192 29.9985 18.9934 29.9844C18.7757 29.96 18.7641 29.9592 18.7512 29.9695C18.7437 29.9755 18.6559 30.0737 18.5563 30.1878L18.3751 30.3956L18.3753 30.4248C18.3756 30.4987 18.4 30.7338 18.4081 30.7421C18.4135 30.7473 18.4801 30.7603 18.5814 30.7758C18.6719 30.7896 18.747 30.8019 18.7482 30.8031C18.7494 30.8043 18.7722 30.8922 18.7987 30.9981L18.847 31.191L18.7914 31.2076L18.7358 31.2242L18.497 31.1765L18.2581 31.1288L18.1323 31.195L18.1241 31.1994L18.1253 31.2009C18.1204 31.2051 17.7331 31.4046 17.73 31.4046C17.7283 31.4046 17.7269 31.3724 17.7269 31.3329L17.7286 31.2611H17.7269V31.1092V30.9573L17.6194 30.8354C17.5233 30.7265 17.5097 30.7136 17.4921 30.7132C17.4746 30.7129 17.4415 30.7407 17.204 30.9558C17.0563 31.0896 16.9338 31.1988 16.9318 31.1988C16.9297 31.1988 16.9014 31.1779 16.8688 31.1522C16.8363 31.1265 16.805 31.1055 16.7992 31.1055C16.7935 31.1055 16.7256 31.1345 16.6482 31.1698L16.5076 31.234L16.2802 31.1247L16.0529 31.0155L16.0653 30.96L16.0247 31.023L15.781 30.9121L15.4461 31.0345L15.2815 31.3666L14.832 31.4258L14.6608 31.6311L14.2009 31.3933L14.2158 30.9974L13.9655 30.9298L13.6686 30.5167L13.1349 30.2307L13.0783 30.089L12.5239 29.9752L12.2099 30.1692L11.9631 30.1169L12.1042 29.5512L12.0327 29.3154L11.8622 29.3503L11.949 29.1894L12.0863 29.2802L12.0864 29.1024L11.8992 29.0255L11.8965 29.1162L11.8385 28.8836L12.0071 28.6005L12.1896 28.8629L12.5372 28.812L12.3169 28.2605L12.1069 28.2868L12.1142 28.2681C12.0268 28.2761 11.9663 28.2813 11.9657 28.2805C11.9649 28.2795 11.9624 28.2557 11.9603 28.2276L11.9566 28.1763L12.0343 28.0851C12.077 28.0349 12.1121 27.9909 12.1121 27.9873C12.1121 27.9837 12.0348 27.9033 11.9406 27.8085L11.7692 27.636V27.4232V27.2103L11.6916 27.1466C11.6476 27.1105 11.6157 27.0801 11.618 27.0763C11.6202 27.0726 11.637 27.0495 11.6554 27.0249L11.6888 26.9804L11.7711 27.0285L11.9304 27.1216C11.9738 27.1469 12.006 27.1623 12.0038 27.1567C12.0018 27.1514 11.9734 27.1096 11.9407 27.0639C11.9081 27.0183 11.8815 26.9796 11.8815 26.9779C11.8815 26.9722 12.0558 26.8233 12.0624 26.8233C12.0661 26.8233 12.1798 26.8698 12.3152 26.9268C12.4506 26.9838 12.5626 27.0291 12.5644 27.0274C12.566 27.0257 12.5395 26.991 12.5052 26.9503C12.471 26.9096 12.4429 26.8734 12.443 26.8701C12.4431 26.8666 12.5 26.7838 12.5694 26.6861C12.6387 26.5884 12.6972 26.5057 12.6993 26.5022C12.7014 26.4987 12.6901 26.4654 12.6741 26.4281L12.6449 26.3603L12.4362 26.2429L12.2273 26.1255H11.9409H11.8815L11.6024 26.1839L11.4222 26.3639L11.0481 26.2309L10.7294 26.5774L10.7572 27.0818L10.8624 26.9765L10.7294 27.4559L10.8402 27.8798L10.8299 27.8837L10.8301 27.8844C10.8303 27.8853 10.8305 27.8868 10.8307 27.8878C10.8309 27.8886 10.8311 27.8892 10.8311 27.8892C10.8355 27.8892 10.864 27.9885 10.9024 28.1372L10.9664 28.3849L11.0019 28.4223C11.0214 28.4429 11.0667 28.4898 11.1026 28.5267C11.159 28.5844 11.1658 28.5937 11.1524 28.5936C11.1439 28.5936 11.0867 28.588 11.0252 28.5814C10.9636 28.5747 10.9127 28.5699 10.9122 28.5705C10.9118 28.5713 10.8822 28.6373 10.8465 28.7172L10.7818 28.8627L10.6743 28.9167L10.5668 28.9706L10.5666 29.0174C10.5666 29.0432 10.5644 29.0673 10.5619 29.0709C10.5592 29.0748 10.5268 29.0433 10.4825 28.9938C10.4414 28.9478 10.4054 28.906 10.4024 28.901C10.3985 28.8941 10.4155 28.873 10.4694 28.8185C10.512 28.7754 10.5418 28.7403 10.5418 28.7331C10.5418 28.7265 10.5238 28.679 10.5017 28.6277C10.4706 28.5552 10.4584 28.5333 10.447 28.5291C10.4368 28.5254 10.345 28.539 10.1406 28.5746C9.97998 28.6026 9.8461 28.6245 9.84318 28.6236C9.84028 28.6225 9.77448 28.518 9.69685 28.3912C9.61923 28.2643 9.50416 28.0858 9.44109 27.9945C9.37802 27.9032 9.32641 27.8254 9.32641 27.8218C9.32641 27.8181 9.34893 27.7527 9.37657 27.6763C9.42323 27.5475 9.42649 27.5358 9.42063 27.5127C9.41716 27.499 9.41493 27.4871 9.41574 27.4863C9.41869 27.4833 9.81608 27.6097 9.8264 27.6169C9.83232 27.621 9.91545 27.6862 10.0112 27.7617L10.1853 27.8987L10.1512 27.9007C10.1313 27.9018 10.118 27.9051 10.1192 27.9088C10.1219 27.917 10.3257 28.0702 10.3292 28.0667C10.3317 28.0642 10.2486 27.9339 10.2309 27.9127C10.226 27.9067 10.2147 27.9015 10.2058 27.9012L10.1897 27.9007L10.2052 27.8965C10.2193 27.8926 10.2257 27.8778 10.2698 27.7473L10.3187 27.6025L10.3203 27.5983L10.3054 27.5751L10.067 27.0873L9.71784 26.9681L9.62081 26.7963L9.03882 26.1838L8.82815 26.1201L8.81434 26.0978L8.31837 24.9699L8.32938 24.9588L8.54826 25.0337L8.89476 24.848L8.84214 24.6097L9.0278 24.7428L9.29389 24.6345L9.02221 24.5403L9.07728 24.4842L9.0442 24.4621L8.96845 24.4296L8.88091 24.4576L8.85099 24.4404L8.79868 24.4302L8.75802 24.4318L8.69743 24.4527L8.68254 24.4189L8.65021 24.4L8.61134 24.3921L8.55605 24.396L8.53222 24.3879L8.49442 24.3546L8.43542 24.3404L8.27091 24.3625L8.19211 24.4047L8.17003 24.4092L8.14151 24.413L8.11721 24.4087L8.10754 24.4023L8.18881 24.3886L8.2165 24.3808L8.22762 24.3697L8.24109 24.3498L8.24267 24.3147L8.15935 24.3511L8.12933 24.3456L8.08753 24.3458L8.05713 24.3872L8.03882 24.4203L8.02411 24.4668L8.00969 24.5493L8.00733 24.6783L8.01291 24.7298L8.02542 24.7561L8.04932 24.7746L8.11702 24.7762L8.14085 24.7842L8.17933 24.8228L8.20845 24.8139L8.23934 24.8176L8.27055 24.835L8.29964 24.8646L8.32782 24.9019L8.29113 24.9249L8.25721 24.9411L8.23266 24.9663L8.20266 24.9933L8.15124 24.9813L8.10767 24.9526L8.05387 24.9331L8.04546 24.9106L8.04175 24.8925L8.02836 24.8681L8.00565 24.8451L7.97594 24.837L7.91747 24.862L7.84535 24.8592L7.8048 24.8818L7.75933 24.8418L7.71226 24.8205L7.62789 24.8111L7.5337 24.8455L7.45206 24.8514L7.40094 24.8368L7.36468 24.807L7.34789 24.7782L7.32706 24.7014L7.34034 24.6885L7.3531 24.6855L7.37914 24.6697L7.45756 24.6033L7.47268 24.5751L7.49083 24.5271L7.47316 24.4675L7.43593 24.4513L7.42335 24.4309L7.39541 24.3316L7.3623 24.3028L7.31391 24.2873L7.30504 24.2685L7.30812 24.2428L7.43562 24.23L7.55346 24.2271L7.59124 24.244L7.65591 24.2492L7.7324 24.2427L7.74772 24.2073L7.75311 24.1785L7.72557 24.1687L7.70256 24.1647L7.67865 24.1135L7.67673 24.0858L7.59935 24.0616L7.56609 24.0342L7.47505 23.9985L7.45136 23.9565L7.41307 23.8618L7.39298 23.8333L7.36919 23.8194L7.3681 23.7957L7.38797 23.7987L7.40676 23.8108L7.42947 23.8174L7.44038 23.8135L7.45083 23.7972L7.42193 23.7604L7.38995 23.733L7.37774 23.7042L7.37253 23.6768L7.41238 23.7038L7.44226 23.7432L7.5007 23.7894L7.54752 23.84L7.5729 23.8352L7.62432 23.8309L7.63595 23.8264L7.56897 23.808L7.52272 23.7581L7.51452 23.7284L7.5141 23.6937L7.52638 23.6619L7.5499 23.6399L7.57665 23.5909L7.58811 23.5388L7.59777 23.5125L7.59318 23.48L7.57925 23.5364L7.56465 23.5712L7.55591 23.6061L7.5005 23.6764L7.47457 23.6968L7.44759 23.6877L7.42045 23.6636L7.3965 23.6346L7.43328 23.5998L7.4075 23.6027L7.35593 23.6246L7.33209 23.6165L7.29058 23.5815L7.18952 23.5479L7.16384 23.5716L7.12323 23.6L7.09493 23.613L7.08067 23.623L7.00327 23.6535L6.99452 23.6558L6.86959 23.6852L6.85657 23.685L6.79942 23.6716L6.76195 23.6685L6.73739 23.6609L6.71061 23.6283L6.68826 23.6296L6.67087 23.6386L6.64859 23.6666L6.6486 23.6993L6.60988 23.7775L6.58147 23.8022L6.58357 23.7737L6.57856 23.7392L6.55219 23.6923L6.50389 23.665L6.43424 23.658L6.39356 23.6433L6.38285 23.6238L6.37204 23.616L6.36153 23.6219L6.35747 23.6286L6.35825 23.6385L6.35464 23.6412L6.34651 23.6383L6.28717 23.5614L6.27022 23.5176L6.27411 23.4633L6.29516 23.4618L6.31045 23.465L6.3516 23.4921L6.36117 23.4939L6.36796 23.4862L6.38005 23.4779L6.3905 23.4615L6.39996 23.4424L6.43584 23.4317L6.47707 23.4307L6.50748 23.4219L6.53291 23.395L6.57136 23.4009L6.60917 23.3949L6.5945 23.3654L6.78213 23.0666L6.92601 22.9102L6.93931 22.5885C6.9448 22.4557 6.94777 22.3656 6.94834 22.3131L6.92701 22.3097L6.90739 22.3099L6.89653 22.2917L6.85585 22.2933L6.80493 22.2552L6.78263 22.2343L6.77459 22.2196L6.70221 22.2136L6.68698 22.2209L6.67385 22.2161L6.63935 22.1989L6.60213 22.1827L6.56971 22.2082L6.54716 22.2166L6.51 22.2272L6.44605 22.1889L6.38688 22.1596L6.33035 22.1247L6.23953 22.0983L6.19624 22.1055L6.16941 22.095L6.14821 22.0815L6.14799 22.056L6.14044 21.9826L6.14027 21.9513L6.12415 21.9278L6.09881 21.9104L6.06926 21.901L6.04465 21.883L6.03007 21.8467L6.0262 21.8463L6.01467 21.839L5.96445 21.7677L5.96079 21.7601L5.95867 21.756L5.95059 21.7471L5.90125 21.7066L5.88423 21.636L5.87146 21.6228L5.84954 21.6261L5.82916 21.6327L5.78575 21.6191L5.77288 21.6175L5.77267 21.6084L5.7808 21.595L5.79289 21.5866L5.79788 21.5722L5.79649 21.5511L5.79813 21.5429L5.7832 21.5313L5.77763 21.5287L5.7765 21.5272L5.76485 21.4991L5.77302 21.4635L5.76369 21.4323L5.75153 21.414L5.7541 21.3979L5.7614 21.3805L5.76567 21.3667L5.76655 21.3648L5.77657 21.3465L5.77333 21.3408L5.77219 21.3394L5.75 21.3231L5.80094 21.2736L5.86914 21.2655L5.89473 21.2535L5.94465 21.2236L5.97208 21.2125L5.9976 21.2064L6.02072 21.1988L6.03569 21.1881L6.04537 21.1945L6.06011 21.2296L6.07778 21.2565L6.08952 21.2566L6.0993 21.2512L6.10336 21.2445L6.10165 21.2097L6.10024 21.1887L6.10575 21.1809L6.12418 21.1687L6.14306 21.1527L6.15798 21.1316L6.1839 21.0786L6.1981 21.0581L6.22939 21.0475L6.31628 21.0305L6.34654 21.023L6.38541 21.0146L6.48429 21.0009L6.54446 20.9944L6.58096 20.9949L6.63912 20.9888L6.66708 20.9843L6.73118 21.0213L6.75131 21.0113L6.77643 21.0032L6.79017 21.0029L6.81631 20.9754L6.83729 20.9309L6.84016 20.9123L6.84186 20.8981L6.8522 20.8935L6.86034 20.8964L6.86816 20.9019L6.8852 20.9013L6.89101 20.891L6.88822 20.8488L6.8933 20.8227L6.91711 20.7655L6.92588 20.6922L6.92994 20.6691L6.94095 20.6535L6.95778 20.6437L6.96883 20.6222L6.97855 20.5901L6.98199 20.5885L7.00628 20.5601L7.01931 20.5604L7.03543 20.5675L7.05046 20.5836L7.06205 20.6013L7.06783 20.6295L7.07596 20.6324L7.12662 20.6346L7.1904 20.6252L7.21685 20.6114L7.22794 20.6097L7.25019 20.5569C7.28649 20.471 7.31791 20.3989 7.31995 20.3968C7.32199 20.3947 7.39867 20.3585 7.4904 20.3162C7.58212 20.2739 7.65955 20.2369 7.66243 20.2341C7.66531 20.2311 7.69054 20.1665 7.71854 20.0904C7.74655 20.0142 7.77009 19.9512 7.77099 19.9503C7.77189 19.9494 7.86646 20.0133 7.98113 20.0922C8.0958 20.1711 8.19143 20.2368 8.19354 20.238C8.20427 20.2447 8.23367 20.2273 8.35176 20.1447L8.4806 20.0547H8.57152C8.6422 20.0547 8.66423 20.0533 8.67099 20.0486C8.67577 20.0451 8.69448 20.0124 8.7126 19.9758C8.73071 19.9392 8.74735 19.9092 8.74948 19.9092C8.75161 19.9092 8.77933 19.9249 8.81119 19.944C8.88416 19.9878 8.91474 20.0013 8.92029 19.9926C8.9235 19.9875 8.92425 19.9878 8.92431 19.994L8.92426 19.9959C8.9242 19.9974 8.92415 19.9986 8.92466 19.9994C8.92652 20.0024 8.93577 20.0008 8.97877 19.9935L8.99476 19.9907C9.00934 19.9882 9.04706 19.9722 9.08165 19.9563L9.31871 19.3966L9.49057 19.2776L9.50175 19.2664L9.47955 19.394L9.51277 19.2554L9.82308 18.945H9.93671L9.93409 18.834L9.98391 18.7815L10.358 19.0225L10.225 18.6762L10.3302 18.5431L10.2084 18.4878L10.4911 18.4101L11.3197 18.1912L11.3142 17.7505L11.5054 17.6922L12.0458 16.6641L12.4199 16.5035L12.3839 16.1958L12.6556 15.9575L13.0047 15.9159L13.0185 16.0157L13.2042 15.9629L13.257 16.121L13.1515 16.0157L13.0711 16.121L13.2042 16.254L13.0185 16.387L13.1766 16.2816L13.3651 16.4397L13.6559 17.1851V17.2377L13.6311 17.6646L13.3096 17.7699L13.099 17.8503L12.4337 16.8388L12.4587 17.2656L12.3257 17.2377L12.4865 17.5593L12.2731 17.6646L12.14 17.9834L12.3257 18.5154L12.5392 18.3823L12.4337 18.0914L12.5667 17.9834L12.7248 18.2244L12.6194 18.2771L12.7248 18.2494L12.8855 18.4627L12.9381 18.5431L13.0185 18.2771L13.0435 18.1164L13.1239 18.0914L13.3096 18.036L13.6311 17.9583L13.7889 18.3021L14.2408 17.4512L14.2157 17.2377L14.5344 17.6646L14.5068 17.7977L14.1881 17.8253L14.2157 18.1164L14.4542 18.1966L14.6149 17.9583L14.8005 18.011L14.7729 17.8779L15.4131 17.8253L15.3853 17.9307L15.704 17.7449L15.7844 17.7699L15.6264 17.7977L15.4933 18.036L15.7318 18.1164L15.837 17.9834L16.1307 18.0636L16.4246 17.9583L16.4773 18.2494L16.5299 18.0914H16.7155L16.6629 17.7699L16.7682 17.6646L17.4888 18.1164L17.3807 18.0636L17.7549 18.5431L17.9405 18.2244L17.7799 17.9583L17.594 17.9307L17.6218 17.7449L17.6745 17.2933L17.9127 17.1325L18.0986 16.6003L18.3645 16.6281L18.5253 16.7058L18.3645 17.2129L18.4975 17.4512L18.4727 17.8253L18.4199 18.2494L18.5779 18.4627L18.2593 19.1001L17.8074 19.1805L18.3118 19.394L18.7636 18.7815L18.7386 18.3297L19.0296 18.2494L19.1101 18.7288L19.4038 18.8619L19.1904 18.7566L19.2958 18.5431L19.1904 18.2771L18.9244 18.1164L18.6058 18.169L18.6583 17.8253L18.686 17.5842L18.5253 17.2377L18.7914 16.9191L18.7636 16.6531L18.952 17.346L19.2708 17.4512L18.9244 17.052L19.1904 17.0799L19.1101 16.9191L19.2181 16.8388L19.4288 16.9718V17.0272L19.4564 17.0799V17.3181L19.4842 17.3708V17.6922L19.5091 17.7449V17.7977H19.6421L19.7225 17.7699H19.8555L19.9082 17.7449L20.0412 17.8503L20.0162 17.7449L19.936 17.0799L19.5369 16.7862L19.4288 16.3344L20.202 16.121L19.9886 15.7497L20.1217 15.8298L20.069 15.6166L20.7064 15.1371L20.5734 15.1899L20.601 15.0844L20.8671 15.004V15.1371L21.0805 14.8711L21.2136 14.8988L21.0528 14.7907L21.1582 14.7381L21.2662 14.7103L21.1582 14.472L21.2662 14.1533L21.5045 14.1781L21.3993 14.3666L21.7179 14.2863V14.472L22.0117 14.1781L22.4634 14.339L22.516 14.4442L22.3554 14.4194L22.5964 14.5524L22.3554 15.4557L22.383 15.8549V15.6414L22.7544 15.2175L22.6215 15.2979L22.5687 15.1648L22.7017 15.0568L22.8625 15.1371L22.8347 15.004L23.1008 15.2175L23.1812 14.9238L23.5 14.7381L23.5275 14.8711L23.741 14.8434H23.7661L24.0321 14.6577L23.8741 14.2586H24.165L24.3784 14.0729L24.5919 14.1533L24.5641 14.2863L24.7498 14.2586L24.6971 14.4194L25.3624 14.5246L25.0713 14.0453L25.3095 14.0729L25.3899 13.8068L25.681 13.7265L25.548 13.6212L25.7087 13.4355H25.681L25.4704 13.4077L25.4149 13.2748V13.247L25.3899 13.2748L25.3624 13.3551V13.247V13.0614H25.2293L25.681 12.557L25.6282 12.8479L25.7087 12.557L25.8417 12.7426L25.681 12.7149L25.9221 12.8479L25.7087 12.5292L25.7613 12.3962L25.9747 12.2909L26.0274 12.449L26.4791 12.1829L26.4541 11.7588L26.5872 11.4124L26.9337 11.3846H26.9587L27.2774 11.332L27.0917 11.1185L27.1998 10.5615L27.0667 10.4285L27.2774 10.4009L27.438 10.1348L27.305 10.0544L27.0917 10.1624L26.9337 10.1098L26.9058 10.0822L26.9337 9.97677L26.9862 9.76348L26.8783 9.41697L27.0917 8.93761L27.3576 8.3002L27.8371 8.08674L27.5433 8.19198L27.4658 8.05894L27.4104 7.79304ZM7.76271 21.1939L7.76344 21.2041L7.77338 21.2138L7.77652 21.2155C7.77192 21.2083 7.76732 21.2011 7.76271 21.1939ZM7.82583 21.2922L7.81342 21.3048L7.81507 21.3128L7.82547 21.3186L7.8395 21.3133C7.83496 21.3063 7.8304 21.2993 7.82583 21.2922ZM9.59388 24.4013L9.54266 24.371L9.5199 24.3539L9.48303 24.3292L9.4593 24.3258L9.40593 24.3572L9.37566 24.3647L9.33345 24.3629L9.29607 24.348L9.26452 24.3553L9.24519 24.375L9.37189 24.374L9.53084 24.4854L9.59388 24.4013ZM7.01615 23.3585L6.90024 23.3433L6.88245 23.3963L6.88388 23.3964L6.90252 23.3934L6.9103 23.4048L6.90748 23.4502L6.92005 23.4543L6.97148 23.4827L6.98482 23.4804L6.99629 23.4771L6.97803 23.4006L7.00417 23.373L7.01615 23.3585ZM12.1069 28.2868L11.9799 28.6118L11.9428 28.3074L12.1069 28.2868ZM26.08 8.93761L26.1354 8.67153L26.3461 8.96523L26.4265 9.07065L26.1604 8.96523L26.08 8.93761ZM26.9862 10.3759L27.0113 10.2152L27.1193 10.2955L26.9862 10.3759ZM27.4104 11.7061L27.4906 11.5177L27.3854 11.7061L27.5711 11.8918L27.6763 12.1302L27.7845 12.1579V12.1302L27.4104 11.7061ZM24.4311 12.0498L24.7498 11.7311L24.858 11.9444L24.6971 12.0775L24.4311 12.0498ZM31.1101 11.9972V11.8115L31.3235 12.1302L31.1101 11.9972ZM24.0321 12.3713L24.4311 12.1579L24.5393 12.3962L24.2454 12.3713L24.5919 12.424L24.4588 12.7426L24.3784 12.9033L24.0597 12.8231L23.9267 12.557H24.1123L24.2178 12.5292L24.0321 12.3713ZM26.5069 12.8479L26.2408 12.3962L26.4791 12.8479L26.5872 12.9033L26.9587 13.0614L26.6122 12.9033L26.5069 12.8479ZM24.9106 12.7426L25.1238 12.69L25.2043 12.7953L24.9908 13.0364V13.0614L24.9632 13.0087L24.9106 12.7426ZM19.936 13.5685L20.069 13.089L20.3349 13.2748V13.4605L20.1217 13.6212L19.936 13.5685ZM16.8764 13.3275L17.2477 13.1418L17.1951 13.3024L16.8764 13.3275ZM17.7604 13.5075L17.7799 13.38H17.8074H17.9405L17.7604 13.5075ZM17.5664 13.6212V13.4605L17.6994 13.5407L17.5664 13.6212ZM20.1217 13.8068L20.3599 13.4605L20.4153 13.5935L20.4679 13.4605L20.5734 13.5407H20.601L20.6398 13.6323L20.6536 13.6461L20.6814 13.7265L20.7064 13.7792L20.734 13.8594L20.4403 13.9398L20.1217 13.8068ZM17.7549 13.5131L17.7604 13.5103L17.7549 13.5407V13.5131ZM20.9197 14.1781L20.8144 13.5935L20.9475 13.8068L20.9725 13.6461L21.2136 13.8346L20.9197 14.1781ZM19.9886 13.7792L19.936 13.6461H20.1493L20.1217 13.7542L19.9886 13.7792ZM25.0436 14.8183L24.8302 14.6853L25.038 14.8405L24.9908 15.0844L24.9936 15.09L24.9908 15.1094L25.0963 15.2701L25.5756 16.229L26.4265 16.8138L26.8783 16.8388V17.0799L26.64 17.2129L26.9058 17.0799L26.8783 16.7862L27.5711 16.7334L27.9702 17.1851L27.6763 18.2244L27.2523 18.5958L27.2107 18.8064L27.1998 18.8092V18.8619L27.0667 19.2609L26.6676 19.2081L27.0667 19.2886L27.1998 18.8619L27.2107 18.8064L27.4104 18.7814L27.2523 18.7288L27.2774 18.5958L27.6763 18.2494L28.0755 17.3985L27.9176 16.919L27.4906 16.6807L27.9176 16.2014L28.0228 16.2816L28.3692 16.0683L28.7961 16.4675L29.0343 16.7058L28.9817 16.7862L29.0622 16.7058L28.3692 16.0405L28.0228 16.254L27.9176 16.1736L27.2774 16.7334L26.3739 16.7612L25.548 16.1486L25.0963 15.2701L24.9936 15.09L25.0436 14.8434L25.038 14.8405L25.0436 14.8183ZM33.9564 15.1094L33.7429 14.7907L33.8759 14.8988L33.9564 15.1094ZM22.6769 14.9238L22.8099 14.8183L22.8347 14.9764L22.6769 14.9238ZM17.7799 15.1899L18.1788 14.9764L18.1262 15.2701L17.3557 15.5085L17.1672 15.697L17.0342 15.8022L16.9566 15.7497L16.9012 15.9629L16.8238 15.8549V16.0405L16.6907 15.9353L16.7682 16.0683L16.6629 15.9879L16.6353 16.2014L16.3442 16.0683L16.5825 16.0157L16.3692 15.8826L16.5576 15.8022L16.6907 15.8826L16.5825 15.7745L16.8238 15.6414L16.7959 15.4309L17.3003 15.1899L17.4334 15.1371L17.7799 15.1899ZM22.0117 15.0844L21.7984 15.0568L21.851 15.1899L21.6125 15.3755L21.3993 15.2175L21.5323 15.4032L21.4795 15.4557L21.5045 15.5085L21.5323 15.5361H21.6016L21.7179 15.6692L21.6125 15.5361H21.6016L21.5571 15.4836H21.7456L21.7706 15.3505L22.0117 15.0844ZM22.3554 15.8826L22.3303 15.8549L21.984 16.5727L21.9562 16.6281L22.0117 16.5727L22.1697 16.3344L22.3554 15.8826ZM16.2112 16.229V16.121H16.4246L16.5825 16.229L16.3442 16.387L16.2638 16.6531L16.4246 17.2129L15.9701 17.0799L16.0255 16.7334L15.812 16.7058V16.5477L16.1835 16.3344L16.0505 16.254L16.2112 16.229ZM18.1788 16.5727L18.2066 16.4147H18.3396L18.3118 16.5477L18.1788 16.5727ZM12.7248 16.8388L12.9105 16.5727L12.5918 16.8138L12.7248 16.8388ZM31.6672 16.9718V16.8664L31.8805 16.9966L31.6672 16.9718ZM31.9083 17.0133L31.8805 16.9966L31.9083 16.9995V17.0133ZM31.9083 17.0133L32.6261 17.4512L33.1581 17.6369L33.6376 17.7977H33.3966L33.3189 18.0636L33.6627 18.4905L34.1697 18.5682L34.2501 18.7012L34.0894 18.5958L33.9564 18.7566L34.117 19.0475L32.9725 18.011L32.6538 17.7449L32.227 17.5593L31.9083 17.2933V17.0133ZM14.9335 17.3985L15.147 17.3181L15.2274 17.5316L14.9862 17.5842L14.9335 17.3985ZM16.6353 17.6922L16.5022 17.5316L16.5576 17.3708L16.6907 17.5593L16.7155 17.5842V17.6121L16.6353 17.6922ZM20.626 17.6369V17.6121L20.601 17.6369L20.5484 17.7173L20.6814 17.8779L20.626 17.6369ZM20.4153 17.9029L20.2823 17.7699L20.0938 17.8253L20.4153 17.9307L20.6536 19.0753L20.4153 17.9029ZM20.8144 17.9029L21.1857 17.7699H20.9197L20.8144 17.9029ZM15.2523 18.1966L15.5988 18.0914L15.2274 18.1966L14.9059 19.0475L15.28 19.1556L15.5461 18.9783L15.679 18.9035L15.704 19.3136V18.8895L15.679 18.9035V18.8895L15.5461 18.9783L15.28 19.128L14.9335 19.0225L15.2523 18.1966ZM21.1054 18.3021L21.4241 18.1164L20.9725 18.2494L21.1054 18.3021ZM11.9266 18.1966V18.169L11.7409 18.5431L11.9017 18.3575L11.9794 18.4351L11.9266 18.1966ZM11.7133 18.3823L11.7409 18.2244L11.6357 18.2771L11.7133 18.3823ZM10.9428 19.1001L10.915 18.5154L10.5963 18.5431L10.5161 19.1805L10.9428 19.1001ZM11.6079 19.3136L11.7935 18.8092L11.7133 18.5431V18.8619H11.5802L11.6357 18.6236L11.5276 18.834L11.5552 18.5682L11.4222 18.8619L11.4748 19.2609L11.3142 19.2082L11.4222 19.3662L11.6079 19.3136ZM12.9105 19.1805L12.9381 18.8895L12.8855 19.1805L13.2042 19.8458L12.9105 19.1805ZM7.43148 19.1001L7.5119 19.0225V19.0475L7.64477 19.1001L7.7834 19.0393L7.58934 19.128L7.69756 19.2332L7.7862 19.1223L7.97186 19.4134L7.8112 19.6821L7.4203 19.1583L7.5119 19.1805L7.43148 19.128V19.1001ZM7.43148 19.1001L7.40928 19.1029V19.0891L7.43148 19.1001ZM17.6468 19.2082L17.8074 19.1001L17.3807 19.128L17.2227 19.3136L17.062 19.7403L17.0896 20.2199L16.9012 20.5912L17.7271 21.6554V22.0019L17.7549 21.6554L17.6218 21.4697L18.844 21.5501L19.4564 21.7884L19.6949 22.1598L19.8555 22.2402L20.5484 22.6669L20.9197 23.0382L20.8671 23.3847L20.9475 23.0382L20.7591 22.8L20.1217 22.2928L19.8555 22.1875L19.7225 22.1349L19.4288 21.7358L18.686 21.4697L17.5138 21.3617L16.929 20.5912L17.1147 20.2725L17.0896 19.7403L17.2477 19.3136L17.3807 19.128L17.6468 19.2082ZM21.3466 19.3412L21.1582 19.2332L20.9725 19.3412L21.0001 19.394L21.0528 20.3529L21.4795 20.6964L21.0805 20.3529V20.0868L21.0001 19.3412L21.1332 19.2609L21.3466 19.3412ZM10.117 19.793L10.1446 19.6323L10.0115 19.6599L10.117 19.793ZM11.6357 19.793L11.5026 19.7653L11.6079 19.8734L11.6357 19.793ZM11.5026 20.2447L11.342 20.1395L11.2892 20.4303L11.1561 20.2725L11.2365 20.6716L11.4472 20.5634L11.3696 20.2974L11.342 20.1921L11.5026 20.2447ZM12.14 21.3366L11.9544 21.309L11.8213 21.6831L12.14 21.3366ZM14.9059 21.9215L14.9614 21.4697L14.8531 21.7358L14.6952 21.7884L14.8005 21.9215L14.5872 21.9491L14.7479 22.0267L14.8005 22.4008V22.1875L14.9059 22.2152L14.7729 22.1349L14.7479 21.9741L14.9059 21.9215ZM12.0348 22.0545L11.9017 21.6831V21.708L12.0348 22.0545ZM12.0348 22.0545L12.4865 22.1349L12.6998 22.3206L12.8578 22.6919L12.7248 22.3206L12.4865 22.1071L12.0348 22.0545ZM26.7452 22.2928L26.5345 21.6831L26.4265 21.7358L26.5069 22.5339L26.3739 23.1713L26.213 23.623L25.9221 23.8641L26.1882 23.8365L26.4015 23.5982V23.3321L26.773 22.6393H26.6676L26.7452 22.2928ZM25.1767 22.4008L25.0436 22.2152L24.8828 22.2928L24.6971 22.4536L24.9382 22.5588L24.9106 22.6393L25.0436 22.7473L24.858 22.4008L25.0713 22.2928L25.4954 23.1186L25.3899 23.1713L25.523 23.1465L25.6282 23.3569V23.1186L25.4149 22.958L25.3899 22.8804L25.4954 22.958L25.1767 22.4008ZM14.4818 22.5063V22.4536L14.1077 22.5588L14.4818 22.5063ZM13.0185 22.8L12.9381 22.6919L12.8578 22.8V22.8249L12.5834 23.0576L12.7248 22.9856L12.7774 22.9053L13.5229 22.8525H13.3899L13.4176 22.7473L13.3372 22.8525L13.0185 22.8ZM12.5667 23.0716L12.5834 23.0576L12.5667 23.0661V23.0716L12.5113 23.1186L12.5751 23.4319L12.5667 23.4374L12.5779 23.4457L12.5918 23.5178H12.4865L12.7524 23.5704L12.5779 23.4457L12.5751 23.4319L12.8328 23.2795L12.5918 23.2517L12.5667 23.0716ZM22.9152 23.4126L22.8625 23.3321L22.5687 23.7312L22.8099 24.1026V23.8115L22.6769 23.623L22.9152 23.4126ZM11.5552 23.9445L11.8463 23.8641L11.5026 23.9445L11.342 24.2882L11.2089 24.4212L10.7572 24.8758L11.2365 24.4212H11.2615L11.4472 24.4489L11.4222 24.183L11.5552 23.9445ZM19.5369 24.0776H19.3512L19.2181 24.183L19.4288 24.2356L19.5369 24.0776ZM10.7294 24.5543L10.6767 24.3687V24.6097L10.4633 24.7428L10.383 24.6624L10.225 24.8758L10.117 24.7676L10.0393 24.9285L10.2776 24.981L10.5963 24.7149L10.7294 24.5543ZM18.9903 24.4458L18.9687 24.4323L18.8402 24.5469L18.8255 24.5963C18.8435 24.5808 18.907 24.5246 18.9667 24.4713C18.9728 24.4658 18.9774 24.4605 18.9819 24.4552C18.9846 24.4521 18.9873 24.4489 18.9903 24.4458ZM14.7479 24.9285L14.6952 24.7428L14.6149 24.9285H14.7479ZM21.1776 26.1386C21.1993 26.1024 21.216 26.0718 21.2148 26.0706C21.2136 26.0693 21.1756 26.087 21.1302 26.1097L21.0477 26.151L21.0842 26.1758L21.2036 26.2567L21.2863 26.3129L21.2746 26.3296C21.22 26.4075 21.0039 26.7266 21.0015 26.7328C20.9994 26.7382 21.0568 26.7659 21.1813 26.8191C21.2818 26.8622 21.3668 26.8974 21.3702 26.8974C21.3736 26.8975 21.3942 26.8736 21.4158 26.8443C21.4375 26.815 21.4544 26.7902 21.4533 26.7891C21.4522 26.788 21.3882 26.7698 21.3111 26.7487C21.2341 26.7276 21.1703 26.7098 21.1693 26.7088C21.1684 26.7079 21.1903 26.6907 21.2176 26.6706C21.245 26.6504 21.2673 26.6323 21.2673 26.6304C21.2673 26.6283 21.2448 26.6043 21.2174 26.577C21.19 26.5497 21.1676 26.5256 21.1676 26.5233C21.1676 26.5211 21.2141 26.4668 21.2709 26.4025C21.3277 26.3383 21.3718 26.2837 21.369 26.2812C21.3662 26.2788 21.3131 26.2603 21.251 26.2405L21.1381 26.2044L21.1776 26.1386ZM14.7252 27.0938C14.6718 27.0606 14.6321 27.0372 14.6238 27.0335L14.5141 27.1462L14.4986 27.1702L14.7364 27.2954L14.7517 27.2961L14.8837 27.1905C14.9569 27.1319 15.0154 27.0828 15.0139 27.0814C15.0125 27.0799 14.9704 27.0966 14.9204 27.1186L14.8295 27.1587L14.7252 27.0938ZM14.4025 27.1845C14.3737 27.1559 14.3491 27.1339 14.3477 27.1354C14.3463 27.1369 14.3394 27.1769 14.3325 27.2242C14.3255 27.2715 14.3182 27.312 14.3163 27.3139C14.3142 27.3159 14.267 27.306 14.2112 27.292C14.1325 27.2723 14.1081 27.2682 14.1024 27.274C14.0984 27.2781 14.0437 27.356 13.9807 27.4471L13.8663 27.6129L13.8524 27.8394C13.8449 27.964 13.8402 28.0674 13.842 28.0692C13.8421 28.0693 13.8497 28.0707 13.8575 28.072C13.8641 28.0731 13.8713 28.0744 13.8738 28.0749L13.979 28.027L13.9661 28.0141L13.979 28.0013L14.0175 27.6675L14.1458 27.398L14.2998 27.3466L14.3897 27.398L14.2486 27.719L14.2614 27.9114L14.4026 27.8216L14.5052 27.5263L14.4667 27.3852L14.3385 27.3209L14.4538 27.2697L14.4426 27.2246L14.4025 27.1845ZM19.2948 27.4929C19.0447 27.4572 18.8337 27.4279 18.8262 27.4279C18.8186 27.4279 18.7532 27.4638 18.6807 27.5078L18.5489 27.5879L18.4433 27.7197C18.3853 27.7922 18.3377 27.8532 18.3377 27.8553C18.3377 27.8623 18.5213 28.2008 18.5251 28.2008C18.5272 28.2008 18.5394 28.1132 18.5522 28.006C18.5651 27.8989 18.5777 27.8029 18.5802 27.7928C18.5838 27.7779 18.6178 27.7488 18.755 27.6429L18.9255 27.5116L19.35 27.5784L19.7744 27.6452L19.8891 27.5693C19.9521 27.5276 20.0067 27.4914 20.0104 27.4891C20.0317 27.4756 19.9975 27.4832 19.8805 27.5184L19.7498 27.558L19.2948 27.4929ZM20.8685 27.7734C20.8685 27.7662 20.7668 27.518 20.7615 27.5121C20.7581 27.5085 20.7309 27.5313 20.6905 27.5714L20.6824 27.5795C20.6437 27.6179 20.6232 27.6383 20.6258 27.6551C20.6287 27.6741 20.6614 27.6885 20.7309 27.7192L20.7439 27.7249C20.8609 27.7767 20.8685 27.7797 20.8685 27.7734ZM19.7624 29.1001L19.7224 29.0739L19.4493 29.1522C19.199 29.2239 19.1461 29.2405 19.1636 29.2419C19.1671 29.2422 19.2568 29.2602 19.3631 29.2819C19.4694 29.3037 19.5583 29.3211 19.5608 29.3205C19.5633 29.32 19.6186 29.279 19.6837 29.2293C19.7488 29.1795 19.8021 29.136 19.8022 29.1326C19.8023 29.1292 19.7844 29.1145 19.7624 29.1001ZM7.3929 23.8776L7.41418 23.9181L7.38235 23.8895L7.31936 23.8212L7.29793 23.7821L7.30199 23.7591L7.31495 23.7326L7.31507 23.7698L7.31976 23.7906L7.3929 23.8776ZM8.37936 23.0691L8.38687 23.0608L8.41182 23.0377L8.41805 23.0293L8.41742 22.9855L8.41663 22.943L8.4132 22.8734L8.40813 22.8284L8.41728 22.7955L8.40024 22.7961L8.38157 22.8213L8.37061 22.8474L8.35373 22.8467L8.32617 22.8042L8.31184 22.7712L8.28717 22.7265L8.2763 22.7082L8.24724 22.6728L8.22768 22.6671L8.22038 22.6845L8.25378 22.7655L8.26718 22.8063L8.28207 22.8401L8.30496 22.9107L8.31238 22.9468L8.31882 22.9639L8.33351 22.9885L8.3591 23.0092L8.36884 23.026L8.36339 23.0443L8.3619 23.0513L8.37936 23.0691ZM8.51856 23.9382L8.50029 23.9491L8.48633 23.9403L8.44138 23.9232L8.41467 23.9173L8.39184 23.8735L8.35321 23.8199L8.30352 23.8042L8.23176 23.793L8.22024 23.802L8.21108 23.8186L8.20315 23.8248L8.18333 23.8159L8.09737 23.8416L7.99748 23.891L7.98235 23.9028L7.96995 23.9138L7.92892 23.9076L7.92639 23.9014L7.94811 23.889L7.99931 23.8429L8.00935 23.8408L8.01002 23.8461L8.02449 23.8452L8.05263 23.8336L8.06663 23.8203L8.09376 23.8117L8.13534 23.8023L8.15392 23.7889L8.16159 23.7794L8.18021 23.7438L8.19997 23.7096L8.21541 23.7114L8.23549 23.7236L8.2515 23.7425L8.26515 23.7539L8.28126 23.7447L8.29186 23.7434L8.29774 23.7597L8.31123 23.7725L8.32766 23.7771L8.34598 23.7766L8.40088 23.8197L8.46756 23.8571L8.51079 23.8394L8.54675 23.7843L8.55622 23.7816L8.56162 23.7855L8.542 23.8731L8.51856 23.9382ZM7.99695 24.7658L7.97707 24.7302L7.94327 24.6798L7.94137 24.6684L7.94274 24.6569L7.94856 24.6465L7.97563 24.6275L7.98488 24.5992L7.98704 24.5812L7.98801 24.5676L7.97245 24.5286L7.96976 24.5073L7.95616 24.4901L7.96176 24.4705L7.95115 24.4555L7.95393 24.4487L7.95017 24.4365L7.89982 24.4317L7.90445 24.4258L7.96246 24.4047L7.96781 24.3981L7.96713 24.3928L7.95977 24.3834L7.93708 24.3931L7.92878 24.3915L7.92373 24.3792L7.90525 24.3809L7.89969 24.3783L7.90046 24.3718L7.9142 24.3552L7.91944 24.3441L7.92011 24.333L7.90399 24.3096L7.89158 24.3042L7.88478 24.2955L7.87917 24.2988L7.87089 24.3135L7.86538 24.3213L7.85751 24.3216L7.85544 24.3116L7.86547 24.2932L7.86639 24.2855L7.86284 24.2661L7.84795 24.2487L7.83761 24.2533L7.8303 24.2544L7.82119 24.2487L7.81629 24.2351L7.82476 24.197L7.82049 24.1945L7.80664 24.1902L7.804 24.1632L7.80564 24.1549L7.81069 24.1509L7.82001 24.1494L7.83427 24.1557L7.85034 24.1687L7.8645 24.1867L7.87708 24.2235L7.88455 24.2374L7.89325 24.2411L7.90153 24.2264L7.9057 24.2243L7.90982 24.228L7.91409 24.2305L7.9214 24.2294L7.932 24.2118L7.93606 24.2051L7.93962 24.2081L7.9421 24.2364L7.94499 24.2505L7.94937 24.2576L7.9522 24.2612L7.95951 24.2601L8.00508 24.3047L8.00256 24.3148L7.99521 24.3218L7.98054 24.3135L7.97194 24.3144L7.94256 24.3363L7.94004 24.3465L7.94452 24.3582L7.95693 24.3636L7.98128 24.3619L8.02713 24.3223L8.03917 24.3198L8.04896 24.3308L8.0501 24.3486L8.04532 24.3558L8.0307 24.358L8.02071 24.3705L8.02278 24.3805L8.03241 24.3928L8.02259 24.4203L8.00016 24.4659L8.00522 24.4947L7.99815 24.5702L7.99474 24.6533L7.99827 24.7111L8.01322 24.7554L8.01142 24.765L7.99695 24.7658Z" fill="#0C0C0D" fill-opacity="0.88"/>
</svg>
