<svg width="40" height="40" viewBox="0 0 40 40" fill="none" xmlns="http://www.w3.org/2000/svg">
<rect width="40" height="40" rx="8" fill="#907F6F" fill-opacity="0.1"/>
<path fill-rule="evenodd" clip-rule="evenodd" d="M31.4636 10.7264L29.8993 11.2397L29.1171 11.3619L29.2149 12.2905L30.9992 13.1949L30.2903 14.2215L31.8791 15.7614L31.4635 16.9346L32.6613 17.9612L32.4412 18.89L34.25 19.8433L34.03 20.5521L33.199 21.3832L31.2436 23.1919L29.2882 23.3141L27.4305 23.8274L25.6951 24.1452L24.913 23.363L23.7642 22.8986L23.7886 21.481L23.0553 20.2099L23.4464 19.3789L24.253 18.5234L26.4039 17.008L27.0394 16.7146L26.8195 16.128L25.2307 15.4925L23.5197 15.8838L22.6642 16.837L22.9819 17.6926L21.4666 18.7924L19.56 20.0146L19.0467 21.9944L19.9511 22.9966L21.1243 23.8032L20.3177 25.4164L19.1934 25.7586L19.0467 28.2028L18.5334 29.5961L17.1402 29.4494L16.6024 30.6227L15.2581 30.696L14.7936 29.3028L13.6938 27.6163L12.6672 25.5631L11.8606 24.6831L9.75859 26.3452L8.26759 26.6874L6.67882 25.9541L6.23885 24.4142L5.75 21.1145L6.72771 20.2101L9.48972 19.0124L11.4696 17.5703L13.2295 15.6638L15.4048 13.0484L16.9692 12.0463L19.4867 10.3842L21.5644 9.79754L23.202 9.87087L24.473 8.7954L26.2818 8.84429L27.9928 8.59985L31.3414 9.55312L30.1438 9.89531L31.4636 10.7264ZM11.8119 31.2587L11.1031 31.4787L10.1987 31.2832L9.68538 30.4522L9.5876 28.9612L9.73428 28.5456L10.052 28.1056L11.0297 28.0323L11.4208 27.6168L12.3007 27.2013V27.959L12.0074 28.4479L12.1785 28.8389L12.814 29.0589L12.5696 29.6211L12.2274 29.4745L11.4697 30.5254L11.8119 31.2587ZM14.9405 30.3286L14.3538 31.5262L13.0828 30.6708L12.8629 30.0597L14.5249 29.5708L14.9405 30.3286Z" fill="#0C0C0D" fill-opacity="0.88"/>
</svg>
