<svg width="40" height="40" viewBox="0 0 40 40" fill="none" xmlns="http://www.w3.org/2000/svg">
<rect width="40" height="40" rx="8" fill="#907F6F" fill-opacity="0.1"/>
<path fill-rule="evenodd" clip-rule="evenodd" d="M18.0204 7.41134L17.8912 7.34936L17.8051 7.15867L17.6328 7.15251L17.559 6.93722L17.7744 6.74037L17.8051 6.39589L17.6883 6.29747L17.682 6.11908L17.8359 5.92224L17.8113 5.84842L17.5406 5.99605V5.79306L17.313 5.75L16.9623 5.90379L16.7409 5.9281L16.6056 5.83583L16.2549 5.84198L15.9535 5.99577L15.7875 5.9404L15.2461 5.97116L14.6925 6.03883L14.3787 6.16185L14.1758 6.32179L13.819 6.38946L13.5053 6.60475L13.3576 6.60493L13.0193 6.51881L12.7056 6.54342L12.5148 6.37733L12.275 6.37118L12.1642 6.61723L11.9366 7.02322L11.6844 7.18931L11.3522 7.3677L11.1308 7.63222L11.0754 7.84136L10.9401 8.18584L11.0139 8.6718L10.7248 9.00397L10.5526 9.10854L10.2819 9.37921L9.96818 9.42227L9.7898 9.57605L9.78364 9.5822L9.56219 9.98204L9.32844 10.1297L9.19926 10.3696L9.18695 10.5849L9.08853 10.8125L8.97166 10.874L8.77481 11.1262L8.65178 11.403L8.67024 11.5383L8.55336 11.7475L8.41803 11.8521L8.39958 12.0366L8.38112 12.2026L8.55336 12.3754L8.63948 12.5599L8.60257 12.7568L8.63948 12.9536L8.66408 13.3473L8.61487 13.7164L8.51645 13.9132L8.54105 14.1224L8.66408 13.9993L8.83017 14.0301L9.00241 13.944H9.1931L9.35919 14.0548L9.58064 14.1593L9.78979 14.4546L10.0112 14.7253L10.0236 14.9704L10.0912 15.1979L10.2143 15.3087L10.245 15.4563L10.2449 15.4573L10.2142 15.3102L10.0912 15.1995L10.0235 14.9719L10.0112 14.7253L9.78979 14.4546L9.58064 14.1593L9.35919 14.0548L9.1931 13.944H9.00241L8.83017 14.0301L8.66408 13.9993L8.54105 14.1224L8.45492 14.326L8.28269 14.6028L8.12891 14.6828L8.29499 14.8181L8.43647 15.1257L8.81171 15.1195L8.89167 15.0211L9.00239 15.015L9.13773 15.1134H9.2423L9.35918 15.0519L9.42684 15.1626L9.27306 15.2549L9.12542 15.2426L8.97779 15.1626L8.84861 15.2549H8.7871L8.70098 15.3102L8.38726 15.3041L8.43647 15.6055L8.4611 15.6915L8.56567 15.7716L8.55952 15.8331L8.63948 15.9438L8.78712 15.9745L8.96551 16.1345L8.96607 16.1338L9.07014 16.2012L9.11935 16.2873L9.15626 16.4595L9.24238 16.5395L9.3285 16.5948L9.46383 16.7486L9.61143 16.9823L9.65445 17.2711L9.70981 17.4188L9.89435 17.6279L10.1404 17.7879L10.2327 17.8186L10.3188 17.6894L10.3373 17.5725L10.4972 17.3634L10.6567 17.1793L10.7372 17.1669L10.8233 17.1238L10.9709 17.3638L10.9708 17.3646L10.8232 17.1247L10.7371 17.1678L10.6571 17.1801L10.4972 17.3647L10.3372 17.5737L10.3188 17.6907L10.2327 17.8198L10.4664 18.0721L10.7617 18.2873L11.0816 18.5887L11.4383 18.7795L11.5306 18.7733L11.5984 18.7856L11.9429 18.638L12.1828 18.5272L12.5949 18.4534H12.8225L13.0624 18.5272H13.2224L13.5298 18.6372L13.8435 18.5203L14.0403 18.3849L14.5878 18.1574L14.8647 18.0711L15.1538 18.0216H15.4614H15.7197L15.9658 18.28L16.0827 18.5629L16.2734 18.8151L16.5502 18.8212L16.6855 18.7351L16.8147 18.7536L17.1776 18.6121L17.1714 18.723L17.2638 18.7784L17.3314 18.9568L17.4913 19.0183L17.6328 19.2829L17.5775 19.5963L17.4606 20.0392L17.5283 20.0946L17.6451 20.0761H18.1496V19.6026L18.3156 19.5781L18.5247 19.6273L18.7339 19.5781L18.777 19.6027L19.2137 19.615L19.4967 19.7196L19.7735 19.8118L19.7981 19.6027L19.9827 19.2334L20.1857 19.0243L20.4256 19.0919L20.6469 19.1104L20.6468 19.1122L20.4255 19.0938L20.1856 19.0261L19.9827 19.2352L19.7981 19.6043L19.7735 19.8135L19.4967 19.7212L19.2137 19.6166L18.777 19.6043L18.7524 19.7759L18.777 19.6027L18.7339 19.5789L18.5248 19.6281L18.3156 19.5789L18.1496 19.6035V20.0772H17.6451L17.5283 20.0956L17.4544 20.3909L17.3745 20.68L17.2945 20.803L17.2822 20.9383L17.4975 21.3443L17.7251 21.6703L18.0819 22.0702L18.3461 21.849L18.0819 22.0711L18.3648 22.4893L18.4572 22.7836L18.5062 22.9051L18.4693 22.9789L18.6415 23.2311L18.7154 23.4956L18.8138 23.877L18.7092 24.0308L18.6907 24.1169L18.7707 24.3507L18.863 24.5905L18.9614 24.732L18.9798 24.9597L18.9429 25.2487L18.8261 25.4272L18.6231 25.6855L18.537 25.8454L18.4201 26.2022L18.4017 26.3683L18.2786 26.7313L18.2232 27.0819L18.254 27.3279L18.4201 27.2541L18.6292 27.1864L18.8507 27.1987L19.0537 27.3772L19.1029 27.3464L20.4993 27.3341L20.733 27.5186L21.5634 27.5739L22.2018 27.4143L22.2024 27.415L21.5635 27.5748L20.7331 27.5194L20.4993 27.3349L19.103 27.3471L19.0537 27.378L18.8508 27.1996L18.6293 27.1873L18.4202 27.2549L18.2541 27.3287L18.2725 27.6301L18.5432 28.0177L18.6108 28.2637L18.7831 28.7374L18.9553 29.0634L19.0845 29.2295L19.1214 29.4448L19.1153 29.9185L19.2137 30.5274L19.2875 30.8104L19.349 31.1979L19.4721 31.4809L19.7119 31.7824L19.8842 31.5855L20.0072 31.6963L20.0565 31.8623L20.2102 31.893L20.4194 31.9669L20.5977 31.9361L20.9053 31.7332L20.973 30.2752L21.0099 29.125L21.3482 29.1126L21.3975 27.704L21.6558 27.6916L22.191 27.5502L22.314 27.7163L22.5416 27.5625H22.6461L22.8429 27.4702L22.6463 27.5632H22.5417L22.314 27.7163L22.191 27.5509L21.6559 27.6924L21.3975 27.704L21.3482 29.1126L21.0099 29.125L20.973 30.2752L20.9053 31.7332L20.5977 31.9361L20.4194 31.9669L20.2102 31.893L20.0565 31.8623L20.0072 31.6963L19.8842 31.5855L19.7119 31.7824L19.9335 32.2935V32.2996L20.0811 32.6318L20.2841 33.0009L20.2779 33.3023L20.1672 33.3761L20.2595 33.6406L20.241 33.8743L20.2779 33.979L20.2964 33.9235L20.4317 34.102L20.5425 34.1081L20.6716 34.2495L20.8193 34.2373L21.0345 34.0897L21.3175 34.0282L21.6743 33.8682L21.8097 33.8928L22.0126 33.8436L22.3632 33.9174L22.5294 33.8436L22.7262 33.9051L22.7815 33.7944L22.9476 33.7698L23.3106 33.6222L23.5751 33.4376L23.8273 33.2038L24.2394 32.7979L24.4548 32.5149L24.5655 32.3119L24.7254 32.1089L24.7931 32.0536L25.0391 31.8505L25.1437 31.6722L25.2052 31.3461L25.3098 31.057L25.3528 30.8475L25.2729 30.8229L25.2544 30.6567L25.4082 30.5091L25.8326 30.2938L26.1217 30.1647L26.2694 30.0232L26.3309 29.8571L26.2571 29.7895L26.3247 29.6049L26.3555 29.2174L26.294 29.242V29.1189L26.2386 28.8913L26.091 28.5899L26.1402 28.3069L26.2817 28.2208L26.5401 27.9378L26.6754 27.864L27.0813 27.4396L27.4812 27.2489L27.8072 27.1013L28.0348 26.8552L28.1825 26.5784L28.2993 26.2954L28.2501 26.1048L28.2624 25.4896L28.2317 25.139L28.2624 24.7453L28.2071 24.5731L28.2064 24.5736L28.084 24.4879L27.9487 24.0942L27.8379 23.8481L27.8625 23.6574L27.8441 23.5405L27.9487 23.3006L27.9364 23.1961L27.7211 23.0546L27.7026 22.8331L27.8748 22.3411L27.3766 21.9473L27.8747 22.3403L28.0162 22.2111L28.0839 21.9528L28.2007 21.7928L28.25 21.5098L28.3853 21.4852L28.4714 21.3192L28.7175 21.1592L28.7976 21.0666L28.8776 20.8574L29.259 20.3776L29.585 20.0823L30.1017 19.6887L30.4462 19.3688L30.8522 18.8274L31.1413 18.3846L31.4243 17.8063L31.6272 17.3019L31.7749 16.8652L31.861 16.4346L31.9287 16.293L31.9164 16.084L31.941 15.8563L31.9287 15.7456H31.7934L31.6395 15.8809L31.455 15.924L31.3012 15.9794L31.1905 15.9917L30.9936 16.004L30.8706 16.0778L30.6984 16.1024L30.397 16.2254L30.0217 16.2684L29.7018 16.3731H29.5296L29.3635 16.207L29.2897 16.0409L29.1729 15.967L29.0253 15.8622L29.216 15.7638L29.2221 15.6039L29.136 15.4809L29.1353 15.4815L28.9574 15.3649L28.8467 15.2296L28.6498 14.9958L28.4469 14.7745L27.9547 14.3992L27.7579 14.2085L27.641 13.8456L27.4196 13.3904L27.2229 13.2424L27.0875 13.1439L26.9337 12.6764L26.8599 12.2643L26.9337 12.1966L26.8045 11.809H25.4451H24.1225H22.7508L22.6893 10.3517L22.6093 8.94918L22.4862 8.6293L22.4865 8.62857L22.6095 8.94828L22.6894 10.3508L22.7508 11.809H24.1225H25.4451H26.8045L26.737 11.7287L26.3187 11.3719L26.2941 11.1136L26.3556 11.0459L26.0235 10.6092L25.9004 10.3877L25.7589 10.1724L25.4575 9.55726L25.2176 9.15742L25.0454 8.74528L25.0761 8.70837L25.3653 9.27429L25.5313 9.44654L25.6544 9.57571L25.7282 9.50805L25.802 9.2989L25.845 9.00363L25.925 8.8437L25.8819 8.74528L25.6421 8.16705L25.4883 8.26547L25.2237 8.24086L24.9531 8.1486L24.8854 8.27778L24.7747 8.08093L24.5348 8.03172L24.2457 8.06862L24.1165 8.17936L23.8704 8.30238L23.7105 8.24086L23.3722 8.12399L23.04 8.01942L22.5971 8.02557L22.5047 7.89729L22.1725 7.85423L22.0618 7.78657L21.9388 7.78042L21.8157 7.60817L21.3606 7.5282L21.1329 7.57741L20.9054 7.76196L20.8131 7.9588L20.9115 8.26022L20.7577 8.43861L20.604 8.54318L20.2349 8.34633L19.755 8.18026L19.4536 8.10643L19.2814 7.75581L18.8323 7.57741L18.5556 7.50975L18.414 7.54665L18.0204 7.41134ZM23.0215 27.8154L23.0892 27.8892L23.1876 28.1168L23.5629 28.5475L23.7041 28.5904L23.5626 28.5467L23.1876 28.1168L23.089 27.8885L23.0215 27.8154ZM21.8095 25.5889L21.7604 26.8483L21.8095 25.587L22.5289 25.5932L22.5292 25.5951L21.8095 25.5889ZM22.56 25.3121L22.5048 25.4592L22.5046 25.4579L22.5597 25.3111L22.56 25.3121ZM22.5477 24.9369L22.5048 25.1265L22.5046 25.1257L22.5474 24.9361L22.5477 24.9369ZM22.6276 24.82L22.5113 24.8139L22.5108 24.8122L22.6278 24.8184L22.6462 24.9414L22.8123 24.9352L23.0276 24.9721L23.1444 25.1505L23.4151 25.2059L23.6304 25.0828L23.7042 25.2859L23.9688 25.3412L24.0918 25.5135L24.2271 25.7287H24.4914L24.4915 25.7304H24.227L24.0917 25.5151L23.9686 25.3428L23.7042 25.2875L23.6303 25.0845L23.415 25.2076L23.1444 25.1522L23.0275 24.9738L22.8122 24.9369L22.6461 24.943L22.6276 24.82ZM24.104 24.7585L24.0489 25.1506L24.1041 24.7568L24.1716 24.2908L24.104 24.7585ZM24.2024 23.8666L24.0982 24.1178L24.2025 23.8649L24.2948 23.8157L24.7684 23.748L24.8238 23.7664L24.8422 23.6988L24.7438 23.5942L24.7008 23.3789L24.4916 23.1637L24.3809 22.8807L24.4424 22.7146L24.3501 22.4931L24.4234 21.8639L24.4239 21.8664L24.5469 22.2417V22.2601L24.5838 22.254L24.7068 22.1124L24.8483 21.9034L24.9344 21.8233V21.695L24.9345 21.8243L24.8484 21.9042L24.7069 22.1134L24.5838 22.2549L24.5469 22.261L24.5285 22.4333L24.59 22.4886L24.5777 22.6547L24.6454 22.8147L24.5592 22.9623L24.8361 23.233L24.8607 23.4729L25.0268 23.8789L25.0575 23.9465L24.9959 23.965L24.9221 23.885L24.8052 23.8542L24.8237 23.7682L24.7683 23.7497L24.2946 23.8174L24.2024 23.8666ZM25.5987 24.1434L25.9372 24.2172L25.9987 24.3217L26.0233 24.2479L26.2017 24.4571L26.2201 24.8754L26.3309 25.023L26.3257 25.0282L26.3247 25.0282L26.2325 25.4035L26.2694 25.8526H26.294L26.4108 25.9817L26.5462 26.2647V26.266L26.411 25.9832L26.2941 25.854H26.2695L26.2756 25.9093L26.3433 25.9278L26.4048 26.1369L26.3925 26.1861L26.2756 26.0324L26.2141 26.1308L26.1588 26.0447L26.1649 25.897L26.0911 25.7802L26.1034 25.6079L26.005 25.3189L26.1157 25.0974L26.1034 24.6237L25.9927 24.3715L25.9987 24.3217L25.9372 24.2172L25.5993 24.144L25.5987 24.1434ZM24.9407 21.3999L24.8422 21.4491L24.8421 21.4481L24.9405 21.3987L24.9589 21.1658L24.9407 21.3999ZM24.9468 20.8954L24.8243 20.9445L24.8238 20.9436L24.9468 20.8943L25.3282 20.9004L25.3098 20.7467L25.4697 20.5191L25.6911 20.4637L25.8387 20.3653L26.0233 20.4453L26.0355 20.4696L26.1216 20.6241L26.097 20.9132L25.9248 21.0923L25.808 21.2707L25.9495 21.406L25.7465 21.5044L25.7034 21.4552L25.5004 21.4798L25.3467 21.5721L25.2482 21.4183L25.3159 21.1415L25.3282 20.9016L24.9468 20.8954ZM19.2754 11.465L19.0415 11.6127L18.8446 11.3974L18.3033 11.2252L17.1469 11.9811L16.1627 12.7561L15.6828 12.9284V12.9296L16.1625 12.7574L17.1468 11.9823L18.3033 11.2252L18.8446 11.3974L19.0415 11.6127L19.2754 11.465L19.3736 12.0807L19.5089 12.1853L19.515 12.3083L19.6623 12.4434L19.6628 12.4423L19.5152 12.307L19.509 12.184L19.3737 12.0794L19.2754 11.465ZM18.8941 14.8231L18.8938 14.8243L19.0414 14.9719V15.2241L19.2689 15.2302L19.2691 15.229L19.0415 15.2228V14.9706L18.8941 14.8231ZM11.2907 9.60061L11.2846 9.67442L12.5444 10.6336L12.5453 10.6336L11.2846 9.67442L11.2907 9.60061ZM15.4983 14.103L15.6889 13.8386V13.84L15.4982 14.1045L15.4736 14.3506L15.166 14.4121L14.6924 14.4429L14.5693 14.5843L14.3479 14.6028L14.3172 14.7928L14.3479 14.6018L14.5695 14.5828L14.6925 14.4413L15.1661 14.4106L15.4737 14.349L15.4983 14.103ZM12.0228 10.6407L12.1704 12.3446L12.3242 14.0485L12.3855 14.0976L12.3857 14.0968L12.3242 14.0476L12.1704 12.3437L12.0228 10.6407ZM11.4261 16.4656L11.3585 16.4964L11.3277 16.6318L11.3585 16.4973L11.4262 16.4665L11.4754 16.4296L11.5676 16.4911H11.8383L11.8998 16.3804L11.9613 16.3866L12.0598 16.3435L12.1151 16.5096L12.1951 16.4604L12.3427 16.3989L12.4965 16.485L12.558 16.6203L12.7118 16.7003L12.8348 16.6019L12.9948 16.5896L13.2346 16.688L13.2345 16.6872L12.9946 16.5887L12.8346 16.601L12.7116 16.6994L12.5579 16.6195L12.4963 16.4841L12.3426 16.398L12.195 16.459L12.115 16.5082L12.0597 16.3421L11.9613 16.3851L11.8997 16.379L11.8382 16.4897H11.5676L11.4753 16.4282L11.4261 16.4656ZM11.2969 17.7645L11.2661 17.5737L11.2784 17.463L11.18 17.4508L11.1123 17.6106H11.0139L10.9462 17.5245L10.9463 17.5237L11.014 17.6098H11.1124L11.1801 17.4499L11.2785 17.4621H11.3339L11.3584 17.2905L11.3339 17.463H11.2784L11.2661 17.5737L11.2969 17.7645ZM11.3646 17.1555L11.334 17.2106L11.3646 17.1546L11.4936 17.1116L11.4938 17.1124L11.3646 17.1555ZM18.3402 21.4928L18.2175 21.591L18.3402 21.492L18.574 21.4428L18.5986 21.2644L18.7893 21.4551L19.0968 21.4735L19.2015 21.2889L19.2444 21.0249L19.2014 21.2898L19.0968 21.4743L18.7893 21.4559L18.5986 21.2652L18.5739 21.4436L18.3402 21.4928ZM20.4317 20.3832L20.4132 20.1579L20.4134 20.1571L20.4317 20.3832ZM31.5349 25.8538L31.5595 26.3274L31.6395 26.512L31.5964 26.7027L31.5225 26.8134L31.4241 26.5858L31.3503 26.7027L31.3995 26.9918L31.3565 27.1641L31.2519 27.2502L31.2089 27.5885L31.0428 28.0498L30.8336 28.5912L30.5691 29.3416L30.3907 29.8891L30.2001 30.3504L29.9171 30.4428L29.6034 30.6088L29.4188 30.5104L29.1604 30.3689L29.0866 30.1598V29.8092L28.9944 29.4954L28.9821 29.2063L29.062 28.9234L29.222 28.8557L29.2343 28.7265L29.4126 28.4251L29.4618 28.1729L29.3942 27.9883L29.345 27.7361L29.3388 27.3732L29.4741 27.1518L29.5357 26.8995L29.7079 26.8873L29.9048 26.8073L30.0401 26.7334L30.1878 26.7273L30.3969 26.5059L30.6983 26.2598L30.809 26.0629L30.7721 25.8907L30.9198 25.9399L31.1227 25.6693L31.1412 25.4293L31.2642 25.251L31.3749 25.4232L31.461 25.5893L31.5349 25.8538ZM26.0542 26.6106L26.0664 26.8861L26.0541 26.6091L26.134 26.4247L26.1342 26.4261L26.0542 26.6106ZM29.4009 25.3849L29.3452 25.3787L29.3328 25.354V25.3354L29.3638 25.3416L29.4072 25.3725L29.4009 25.3849ZM29.6402 25.3719V25.3288L29.6279 25.2673L29.6217 25.2612L29.6033 25.2673V25.2796L29.591 25.3042L29.5725 25.3104L29.5417 25.2981L29.5356 25.3042L29.5725 25.3288L29.591 25.335L29.5971 25.3473L29.6217 25.3657L29.634 25.3842L29.6402 25.3719ZM29.2773 25.2062L29.2466 25.1816L29.2281 25.1754L29.2097 25.1631L29.1974 25.1262L29.2035 25.1078V25.0955L29.2158 25.0216L29.2097 25.0155L29.222 24.9909L29.2527 24.9847L29.265 25.0032L29.2527 25.077L29.2589 25.0955L29.2712 25.1201L29.2773 25.1509L29.2896 25.1877L29.2773 25.2062ZM16.5132 20.4646H16.5255L16.5378 20.4523L16.5563 20.4277L16.5686 20.4092L16.5747 20.3846L16.5686 20.3661L16.5563 20.3415L16.5317 20.3353L16.5132 20.3538L16.4948 20.3599L16.4702 20.3907V20.4092L16.4825 20.4584L16.4886 20.483H16.5009L16.5132 20.4646ZM16.8088 19.8619L16.8027 19.8804L16.7903 19.8867L16.7717 19.8804V19.8619L16.7841 19.8557V19.8371L16.7964 19.8247L16.815 19.8309L16.8088 19.8619ZM30.3544 24.2167L30.373 24.2043L30.3668 24.1919H30.3544L30.3297 24.2105L30.3048 24.2167H30.2739V24.2291H30.2987L30.3234 24.2167H30.3544ZM30.3417 24.1865L30.3294 24.1926H30.3046V24.1803L30.3417 24.1865ZM29.8433 25.5139L29.831 25.4954L29.8125 25.5139L29.8187 25.5261L29.8248 25.5323L29.8371 25.5753L29.8248 25.5877V25.6061L29.8371 25.6245L29.8556 25.6184L29.8494 25.6061L29.8679 25.5692L29.8617 25.5569L29.874 25.5446V25.5261L29.8433 25.5139Z" fill="#0C0C0D" fill-opacity="0.88"/>
</svg>
