<svg width="40" height="40" viewBox="0 0 40 40" fill="none" xmlns="http://www.w3.org/2000/svg">
<rect width="40" height="40" rx="8" fill="#907F6F" fill-opacity="0.1"/>
<path fill-rule="evenodd" clip-rule="evenodd" d="M15.9749 6.02581L15.9618 6.124L15.7385 6.17654L15.8501 6.36697L15.8305 6.59025L15.6532 6.83323L15.7779 7.16814L15.9421 7.14187L16.0406 6.83323L15.929 6.68875V6.36697L16.4018 6.19624L16.3624 5.99923L16.5003 5.86133L16.6119 6.1634L16.8746 6.16997L17.0978 6.39981L17.111 6.54428H17.4393L17.8399 6.50488L18.0435 6.68875L18.3193 6.74129L18.536 6.60995L18.5426 6.50488L19.0088 6.47861L19.4488 6.47205L19.127 6.59682L19.2452 6.80039L19.5407 6.82665L19.8165 7.0368L19.8625 7.37171L20.0529 7.36514L20.1974 7.46364L20.4337 7.62178L20.6504 7.89103L20.657 8.1143L20.7948 8.12086L20.9918 8.32443L21.1298 8.47548L21.5765 8.56065L21.6159 8.48184L21.918 8.44901L22.3178 8.567L22.3184 8.56605L22.4432 8.61202L22.7124 8.71052L23.0999 9.06513L23.1524 9.23587L23.2836 9.21641L23.369 9.45282L23.566 10.1883L23.7695 10.2605L23.7761 10.5495L23.4938 10.8975L23.6054 11.0223L24.2687 11.088L24.2818 11.5148L24.5642 11.239L25.0304 11.39L25.6543 11.6461L25.8381 11.8891L25.779 12.1255L26.2124 11.9942L26.9348 12.2175L27.493 12.2043L28.0446 12.5524L28.5305 13.0252L28.8195 13.1434L29.1347 13.1631L29.2726 13.2944L29.4039 13.8329L29.4761 14.089L29.3383 14.7851L29.161 15.061L28.6553 15.6453L28.4321 16.1248L28.1693 16.486L28.0775 16.4991L27.992 16.8077L28.0511 17.5957L27.9789 18.2458L27.9592 18.5217L27.8542 18.6924L27.8213 19.2571L27.4799 19.8022L27.447 20.2422L27.1646 20.4195L27.0924 20.6756H26.6984L26.1402 20.8332L25.8972 21.0236L25.5032 21.1484L25.1027 21.4833L24.8334 21.9036L24.8137 22.2188L24.899 22.4486L24.8794 22.8755L24.8268 23.0791L24.6035 23.3155L24.308 24.0575L24.0454 24.3858L23.8352 24.5894L23.7368 24.99L23.5463 25.2264L23.4413 25.4964L23.0867 25.7262L22.8109 25.6409L22.627 25.6868L22.2658 25.5095L22.0294 25.5226L21.7735 25.2864L21.7932 25.5097L22.3055 25.8708L22.3186 26.1597L22.5746 26.3437L22.5944 26.5472L22.3777 27.0857L21.918 27.3156L21.2482 27.4009L20.8541 27.3549L20.9921 27.6111L20.9987 27.9197L21.1169 28.1299L20.9527 28.2809L20.6177 28.34L20.25 28.1824L20.1515 28.294L20.3156 28.7077L20.5784 28.8325L20.7294 28.7011L20.8936 28.9179L20.6177 29.0492L20.4273 29.3118L20.5061 29.7255L20.4995 29.9488H20.1843L19.9874 30.159L19.9939 30.4742L20.4207 30.7763L20.7622 30.855L20.7754 31.2294L20.4733 31.4592L20.4338 31.9386L20.204 32.0962L20.1449 32.2866L20.4207 32.7135L20.7228 32.9434L20.5849 32.9236L20.3022 32.9237L20.1906 33.0222L19.9673 33.1667L20.0789 33.541L19.9541 33.5476L19.5404 33.4228L19.0479 33.1404L18.5489 32.9106L18.3387 32.6544L18.319 32.418L18.0432 32.1423L17.7149 31.4462L17.7017 31.0521L17.925 30.7369L17.38 30.6122L17.5573 30.251L17.426 29.5615L17.8528 29.706L17.7346 28.8457L17.4719 28.734L17.5376 29.2528L17.3078 29.1937L17.2092 28.6027L17.0779 27.8278L17.1501 27.5388L16.9334 27.1318L16.7758 26.6589L16.9203 26.6392L16.9597 25.9628L17.0385 25.2864L17.045 24.6626L16.8284 24.0256L16.8677 23.6776L16.7298 23.1588L16.848 22.6466L16.7889 21.8323V20.9524L16.7955 20.0133L16.697 19.3237L16.5591 18.7262L16.1717 18.4832L16.1191 18.3125L15.3508 17.8922L14.6481 17.426L14.3395 17.1699L14.1557 16.8218L14.2082 16.6971L13.8536 16.1455L13.4333 15.3706L13.0393 14.53L12.8816 14.333L12.7503 14.0243L12.4482 13.7485L12.179 13.5778L12.2906 13.3939L12.0936 12.9868L12.2053 12.6912L12.4942 12.4286L12.5399 12.6051L12.4942 12.4276L12.6847 12.1124L12.5993 11.9285L12.4614 12.1255L12.2315 11.935L12.3038 11.8168L12.2381 11.436L12.3694 11.3703L12.4351 11.1076L12.573 10.8384L12.5533 10.6676L12.7569 10.5757L13.013 10.4116L12.9673 10.2811L13.1052 10.2483L13.0921 10.0382L13.184 9.88056L13.3679 9.85429L13.532 9.59161L13.6766 9.36834L13.5452 9.26984L13.624 9.02686L13.5518 8.63942L13.6371 8.52778L13.5911 8.17317L13.4467 7.94333L13.3284 7.82546L13.2627 7.59562L13.3547 7.48398L13.2627 7.45772L13.2036 7.31981L13.0197 7.20161L12.8621 7.22787L12.7768 7.37235L12.6191 7.47742L12.5404 7.49055L12.5009 7.58249L12.6651 7.81233L12.56 7.86486L12.5075 7.92396L12.3302 7.95023L12.2777 7.69413L12.2251 7.76636L12.1069 7.74009L12.0413 7.57592L11.8902 7.54308L11.7917 7.49712H11.6341L11.621 7.58905L11.5816 7.52338L11.3845 7.4313L11.3123 7.33936L11.3582 7.26713L11.3517 7.17519L11.2532 7.07669L11.1087 6.99132L10.9905 6.93879L10.9708 6.81402L10.8789 6.74178L10.892 6.85998L10.8132 6.96505L10.7344 6.84685L10.6227 6.80088L10.5768 6.72207L10.5833 6.59074L10.6425 6.4594L10.5439 6.4003L10.6359 6.31494L10.695 6.2624L10.9314 6.37404L11.0168 6.3215L11.135 6.35434L11.1875 6.43971L11.2991 6.47254L11.3911 6.3806L11.4699 6.61044L11.6012 6.78118L11.7654 6.95848L11.8902 7.10968L11.8771 7.20161L12.0216 7.22131L12.061 7.18191L12.1595 7.28697L12.3433 7.25414L12.5075 7.14907L12.7373 7.06371L12.8687 6.93894L13.0723 6.9652L13.0592 7.0046L13.2627 7.01773L13.4203 7.09654L13.5385 7.22131L13.6697 7.33944L13.8604 7.35231L14.1559 7.05681L14.3135 7.01084L14.3201 6.87293L14.412 6.51176L14.6353 6.32132L14.8652 6.30818L14.9045 6.22281L15.1935 6.25565L15.4955 6.04551L15.6466 5.95357L15.837 5.75L15.9684 5.77626L16.0538 5.8879L15.9749 6.02581ZM22.1447 9.23461L22.1346 9.21639L22.1347 9.21733L22.1447 9.23461ZM23.5264 24.7869L23.277 24.504L22.9619 24.2677L22.5482 23.9984L22.4234 24.0115L22.0097 23.6832L21.7874 23.729L21.7868 23.7298L22.0097 23.6839L22.4234 24.0123L22.5482 23.9984L22.9619 24.2677L23.2771 24.5048L23.5264 24.7869ZM22.6141 21.8454L22.7848 21.7599L22.9947 22.0093L22.7846 21.7591L22.6142 21.8442L22.6141 21.8454ZM22.6598 21.1166L22.6598 21.1156L22.5218 21.0433L22.3905 21.109L22.2526 21.0893L22.2001 20.9317L22.2002 20.9328L22.2528 21.0904L22.3907 21.1101L22.5221 21.0444L22.6598 21.1166ZM22.128 20.5453L22.1279 20.5443L22.049 20.4195L21.7929 20.3013L21.6485 20.3866L21.2612 20.3013L21.2612 20.3023L21.6486 20.3877L21.7931 20.3023L22.0493 20.4205L22.128 20.5453ZM21.2348 19.7308V19.7299L21.1034 19.5001L21.1036 19.5012L21.2348 19.7308ZM12.4351 12.7044L12.4548 12.8544L12.6059 12.8216L12.7569 12.8676L12.9211 13.0843L13.1246 12.9069L13.1837 12.6246L13.407 12.2568L13.847 12.0927L14.2475 11.6461L14.3591 11.3772L14.2475 11.6471L13.847 12.0937L13.407 12.2578L13.1837 12.6256L13.1246 12.908L12.9211 13.0853L12.7569 12.8685L12.6059 12.8226L12.4548 12.8554L12.4351 12.7044ZM14.8977 14.1622L15.0685 14.5421L15.2852 14.7982L15.2849 14.799L15.0684 14.5431L14.8977 14.1622ZM15.2195 14.9831L15.2198 14.9821L15.4691 15.0019L15.6201 15.2317L15.9485 15.2382L16.2374 14.9952L16.244 15.6322L16.4147 15.6782L16.6248 15.606L16.9861 16.2894L16.6247 15.6069L16.4147 15.6792L16.2439 15.6332L16.2374 14.9962L15.9484 15.2392L15.62 15.2326L15.469 15.0028L15.2195 14.9831ZM20.1185 9.47364L20.0529 9.82758L20.1184 9.47252L20.2232 9.32182L20.2235 9.3226L20.1185 9.47364ZM16.3821 10.5298V10.5307L16.5985 10.5766L16.5986 10.5757L16.3821 10.5298ZM16.2968 11.0685L16.4675 11.2267L16.4672 11.2259L16.2968 11.0685ZM20.6178 33.0615L20.8212 33.2451L21.1036 33.5472L21.6158 33.7902L22.0952 33.8886L22.0426 34.0857L21.7537 34.1054L21.5369 33.9675L21.5042 34.1248L21.294 34.2495L21.1364 34.2364L20.9328 34.2036L20.657 34.0854L20.3024 34.0263L19.8099 33.803L19.3896 33.5929L18.746 33.1398L19.0481 33.2251L19.6129 33.4944L20.0923 33.6388L20.1711 33.455L20.1514 33.1791L20.3747 33.0084L20.6178 33.0615ZM23.3954 32.9505L23.4216 32.9439V32.9702L23.369 32.9505L23.3888 32.9308L23.4019 32.9242L23.3954 32.9505ZM23.3626 32.8717L23.3495 32.8586L23.356 32.8717L23.3691 32.8848L23.3757 32.9111L23.3954 32.9046L23.3888 32.8783L23.3626 32.8717ZM23.7566 32.8052L23.7698 32.8117L23.7632 32.8381L23.7435 32.8315L23.7304 32.8117L23.75 32.7986L23.7566 32.8052ZM22.9621 32.7604V32.7472L22.9555 32.7276L22.9358 32.7472L22.9161 32.7407L22.9358 32.721L22.9226 32.7144L22.903 32.721L22.8964 32.7341H22.8833L22.8899 32.7604L22.9095 32.7669L22.9226 32.7801L22.9424 32.7867L22.9686 32.7801L22.9621 32.7604ZM23.1523 32.6608L23.126 32.6476L23.0932 32.6279L23.0406 32.6082L23.0472 32.582L23.0012 32.5754L22.9815 32.5688L22.9619 32.5425L22.975 32.536L23.0275 32.5557L23.0801 32.582L23.1128 32.5885L23.1392 32.5951L23.1588 32.5754L23.1654 32.5557L23.1785 32.5623L23.2048 32.5492L23.2114 32.5623H23.2442V32.582H23.2639L23.323 32.5688L23.3296 32.582H23.3493L23.3756 32.5754L23.3558 32.5623L23.3493 32.5425H23.3756L23.4149 32.5557L23.4215 32.582L23.3952 32.6148L23.4018 32.6345L23.3887 32.6476H23.3624L23.3427 32.7002L23.323 32.7199L23.3033 32.7593L23.2967 32.7789L23.2639 32.7987L23.2574 32.7856H23.2311V32.8053L23.1785 32.7987L23.1719 32.8053L23.1917 32.8315L23.1851 32.8381L23.1719 32.8644H23.1457L23.126 32.8906L23.1063 32.8972H23.0932L23.0801 32.8775L23.0537 32.8578V32.8447H23.021L23.0603 32.8709H23.0341L23.0012 32.8512L22.9881 32.8447L22.9619 32.8315L22.9421 32.8184V32.8053L22.9881 32.8184L23.0275 32.8053L22.9946 32.7921L22.9881 32.7856H23.0472L23.0735 32.7921L23.0932 32.8053V32.7921L23.1194 32.7856L23.126 32.7658L23.0997 32.7527L23.0866 32.7199L23.0932 32.7067H23.1326L23.1457 32.7133L23.1719 32.7067L23.1654 32.6871H23.1128V32.6936L23.0866 32.7067H23.0472L23.0144 32.6871V32.6674L23.0603 32.6805L23.0997 32.6674H23.1194L23.1523 32.6608ZM23.1523 32.6608L23.1785 32.6739V32.6674L23.1523 32.6608ZM23.2771 32.536H23.2574V32.5623H23.2771L23.2968 32.5557L23.2771 32.536ZM23.1932 32.5368H23.1724L23.1655 32.516L23.1932 32.523V32.5368ZM23.1392 32.516L23.0998 32.5226L23.0932 32.5291L23.126 32.5357L23.1194 32.5489L23.0998 32.5357L23.0801 32.5489L23.0998 32.562L23.1194 32.5555L23.1326 32.562L23.1523 32.5357L23.1392 32.516ZM23.5727 32.5291H23.6121L23.6187 32.5226L23.6515 32.516L23.6778 32.5291L23.7041 32.5489L23.7106 32.5686V32.5751L23.6778 32.5817L23.6647 32.562L23.6515 32.5555L23.645 32.5751L23.6581 32.5817L23.6647 32.6014L23.6843 32.5882L23.6975 32.5948L23.7041 32.6211L23.7238 32.6277L23.7303 32.6211L23.7632 32.6408L23.7697 32.6146L23.7172 32.6014L23.7238 32.5686L23.7434 32.5555L23.842 32.5489L23.8879 32.5882L23.9011 32.5948V32.6211L23.8616 32.6146L23.8288 32.6014L23.7894 32.6146L23.8091 32.6277L23.8354 32.6342L23.8945 32.6408L23.9142 32.6473L23.9207 32.6605L23.9076 32.6933H23.8748L23.8682 32.6999L23.8223 32.7065L23.7894 32.7196L23.8091 32.7327L23.75 32.759L23.7238 32.7524L23.6909 32.759H23.645L23.6055 32.7459L23.5661 32.7196V32.7393L23.5859 32.7524L23.6252 32.7656L23.645 32.7853L23.6581 32.7787L23.6843 32.7853L23.7106 32.805L23.6975 32.8115L23.7106 32.8444H23.6975L23.6778 32.8247L23.6515 32.8181L23.6187 32.8444L23.6055 32.8247L23.5859 32.8115H23.5661L23.5333 32.7984L23.5202 32.805L23.5333 32.8312H23.553L23.5661 32.8444L23.553 32.851L23.599 32.8903L23.5859 32.8969L23.5596 32.8838H23.5399L23.5202 32.8641L23.5005 32.8575L23.4808 32.851L23.4742 32.8903L23.507 32.8969V32.9166L23.5005 32.9298L23.4742 32.9232L23.4677 32.9101L23.4348 32.8969L23.4282 32.8838H23.4151L23.3888 32.851L23.4086 32.8247V32.8115L23.3823 32.7787V32.7656L23.4151 32.7524L23.4086 32.7393L23.4413 32.7327L23.4348 32.713L23.4742 32.6868L23.5136 32.6737L23.5399 32.6999V32.7262L23.5596 32.7196L23.5268 32.6802L23.5333 32.6605L23.4939 32.6473L23.4677 32.6277L23.4742 32.6146L23.5005 32.6277L23.507 32.5948L23.4611 32.5817L23.4677 32.562L23.4808 32.5686L23.5005 32.5555H23.5202L23.5333 32.5357L23.5136 32.516H23.5399L23.5727 32.5291ZM23.2904 32.5026H23.2445L23.2313 32.496L23.2247 32.5092L23.2772 32.5158L23.3036 32.5289L23.3298 32.5354L23.3429 32.5289L23.3298 32.5092L23.3167 32.5026L23.3036 32.5158L23.2904 32.5026ZM22.7978 32.4316L22.765 32.4249L22.7715 32.4118L22.7978 32.4316ZM19.7967 6.45223L19.8098 6.4194H19.7967L19.718 6.43253L19.7114 6.4391H19.6391L19.626 6.45223L19.5538 6.4588L19.5275 6.4785L19.5341 6.48507L19.5603 6.49164L19.58 6.4982L19.5998 6.52446V6.5376V6.57044L19.5866 6.59671L19.5998 6.64924L19.58 6.67551L19.5407 6.66894L19.5275 6.68864L19.5012 6.70834L19.475 6.71491L19.4552 6.73461L19.4225 6.74774L19.4421 6.75431L19.4618 6.74118H19.5012L19.5275 6.75431L19.5603 6.74118L19.58 6.74774L19.6063 6.74118L19.6391 6.74774L19.672 6.74118H19.6916L19.7245 6.73461L19.7507 6.72148L19.7639 6.71491V6.66894L19.7705 6.64924L19.7836 6.6361L19.7705 6.62297L19.7573 6.60328V6.5573L19.7705 6.55074L19.7573 6.51133L19.7639 6.48507L19.7771 6.4785L19.7967 6.45223Z" fill="#0C0C0D" fill-opacity="0.88"/>
</svg>
