<svg width="40" height="40" viewBox="0 0 40 40" fill="none" xmlns="http://www.w3.org/2000/svg">
<rect width="40" height="40" rx="8" fill="#907F6F" fill-opacity="0.1"/>
<path fill-rule="evenodd" clip-rule="evenodd" d="M10.9472 6.87751L11.3783 6.51936L10.987 6.40661L10.7814 6.23417L10.8013 5.98877L10.4498 5.90918L10.2442 5.75L9.97227 5.9755L9.62074 6.02857L9.32892 6.02193L9.14985 6.12805L9.41514 6.4663L9.64728 6.85098H10.0983L10.2972 7.22239L10.0784 7.33515L9.99879 7.48769L10.483 7.74636L10.861 8.25042L11.1528 8.62183L11.4778 8.92029L11.6105 9.21875L11.5972 9.64322L11.7166 9.92841L11.7232 10.4391L11.1263 10.7707L11.312 11.0228L10.9207 11.0559L10.6156 11.2284L10.9074 11.4671L10.8278 11.759L10.9804 12.0309L11.4181 11.6329L11.6967 11.2814L12.1013 11.0029L12.3865 10.7243L12.3599 9.97484L12.0946 9.18559L11.8227 8.84733L11.4447 8.58204L11.0136 8.02491L10.662 7.58055L10.7018 7.28208L10.9472 6.87751ZM10.4301 9.55755L10.7816 9.61725L10.8811 9.4249L10.8545 9.06675L10.503 8.69534L10.4168 8.27087L10.0852 7.92598L9.79998 7.89946L9.74692 8.04537L9.53468 8.05863L9.40867 7.98568L9.05715 8.2377L8.99083 7.85302L9.01736 7.40865L8.76532 7.38876L8.70563 7.1301L8.52656 6.99744L8.32759 7.09693L8.14188 7.28264L7.88322 7.30254L7.78374 7.76017L7.63782 7.83976L7.86995 8.21118L8.14188 8.5229L8.33422 8.80809L8.24136 9.17287L8.12199 9.25246L8.24136 9.4647L8.52656 9.80296L8.59288 10.0417L8.60615 10.2407L8.78523 10.632L8.61279 11.0299L8.46687 11.4677L8.38728 11.8723L8.36075 12.1376L8.44698 12.3763L8.4934 12.1243L8.68574 12.3299L8.89797 12.5687L8.97756 12.7809L9.13011 12.9401L9.22299 13.1185L9.19645 13.4302L9.34237 13.6623L9.40869 14.0139L9.63419 14.299L9.68725 14.5179L10.1383 14.8561L10.503 15.1745L10.7683 15.1413V15.0021L10.6158 14.624L10.4765 14.5047L10.4433 14.2526L10.4036 14.1067L10.4367 13.9144L10.3969 13.6292L10.2311 13.344L9.99897 13.0853L9.90612 13.0455L9.70049 12.8207L9.47499 12.7743L9.24949 12.5289L9.16327 12.1641L8.9842 11.7728L8.73879 11.7595L8.69237 11.4544L8.78523 11.0764L8.93114 10.4529L8.91787 9.98203H9.24286L9.22296 10.3203L9.54132 10.307L9.89283 10.506L9.75355 9.98866L9.95916 9.63715L10.4301 9.55755ZM16.4986 7.81243L16.7507 7.93844L16.8435 7.82569L16.8966 7.93181L16.8701 8.11088L17.0425 8.41597L17.0027 8.76749L16.8104 8.90677L16.8037 9.25166L16.9364 9.58991L17.1354 9.63633L17.2945 9.58991L17.792 9.82204L17.7853 10.0542L17.9246 10.1603L17.9047 10.3526L17.593 10.147L17.4272 9.92153L17.3476 10.0807L17.0823 9.82204L16.7507 9.88836L16.5517 9.79552L16.545 9.61644L16.6512 9.51032L16.5252 9.41083L16.4986 9.56338L16.2798 9.31798L16.1936 9.13227L16.1206 8.72769L16.293 8.86698L16.2201 8.1971L16.2732 7.81243H16.4986ZM16.8701 10.4991L16.9298 10.1277L16.7772 9.97518L16.4589 9.96192L16.691 10.2869L16.8701 10.4991ZM18.4552 10.5117L18.6144 10.9892L18.3159 10.8764L18.3358 11.0224L18.4552 11.281L18.2828 11.3805L18.243 11.0754L18.1236 11.0555L18.044 10.7969L18.2628 10.83L18.243 10.6708L17.9777 10.3458L18.3358 10.3525L18.4552 10.5117ZM17.3609 10.764L17.1221 10.6313L17.2017 10.8303L17.1951 11.0491L17.2282 11.2481L17.4537 11.1221L17.6063 10.9364L17.593 10.764H17.3609ZM15.9615 11.7266L15.4905 12.1312L15.6497 11.8327L15.9018 11.5674L16.1007 11.2756L16.2533 10.8511L16.3594 11.2026L16.1273 11.4348L15.9615 11.7266ZM17.8516 11.4549L17.971 11.3156V10.9111L17.7323 11.3223L17.7654 11.0371L17.5598 11.0636L17.5466 11.3223L17.4603 11.4417L17.394 11.561L17.6526 11.8529L17.7588 11.7268L17.8516 11.4549ZM18.9393 12.1109L18.999 12.3961L19.0388 12.6349L18.9327 13.0195L18.7668 12.5884L18.6077 12.8073L18.747 13.119L18.6541 13.318L18.1965 13.0725L18.0705 12.7608L18.17 12.5619L17.9179 12.3563L17.8118 12.5353L17.6394 12.5155L17.3741 12.7542L17.3077 12.6282L17.4271 12.2701L17.6526 12.1507L17.8449 11.9915L17.9909 12.1838L18.2694 12.0711L18.3159 11.8787L18.5811 11.8655L18.5281 11.5405L18.8531 11.7395L18.8995 11.9517L18.9393 12.1109ZM15.8618 13.9347L16.1271 13.7887L16.0542 13.5766L16.3062 13.5566L16.3195 13.3908L16.0011 13.2648L15.7491 13.1454L15.7226 12.9597L15.5169 12.7408L15.3644 12.7475L15.192 13.0791L14.92 13.3709L14.9134 13.5831L14.9067 13.8551L14.7277 13.8418L14.6547 13.9877L14.469 13.7689L14.2966 14.0341L14.0445 14.3724L13.5936 14.4652L13.4344 14.5449L13.368 14.903L13.0829 14.9826L12.8046 14.8369L12.5856 15.1214L12.5458 15.5194L12.5988 15.8907L12.7779 16.2555L12.9636 16.375L13.0034 16.9453L13.3085 16.9918L13.5606 16.9652L13.6866 17.1775L14.1375 17.0183L14.3233 17.1576L14.5886 17.184L14.7279 17.4427L15.1656 17.2504L15.212 17.403L15.3778 16.7529L15.4044 16.3285L15.7692 16.0367L15.7559 15.652L15.8753 15.3602L16.3197 15.3071L15.8952 14.9158L15.9549 14.7169L15.663 14.3189L15.8618 13.9347ZM10.881 18.1924L11.2922 18.1858L11.3386 17.5292L11.4514 16.9986L11.2789 16.7267L11.007 16.6869L10.881 16.4548L10.8213 16.1563L10.6886 16.1431L10.4698 15.9971L10.6223 15.6523L10.3371 15.4533L10.1116 15.0951L9.79326 14.8033L9.40858 14.7966L9.0438 14.339L8.83156 14.1666L8.52647 13.8748L8.18159 13.4569L7.5913 13.3773L7.35254 13.3574L7.39233 13.5763L7.80354 14.0472L8.09536 14.286L8.30097 14.6508L8.64585 14.916L8.79177 15.2476L8.90451 15.6124L9.2295 15.9706L9.50807 16.5675L9.68714 16.8858L9.95907 17.2308L10.1116 17.4894L10.5825 17.8409L10.881 18.1924ZM19.9475 15.5863L19.9674 15.2148L19.9275 15.0357L19.7021 15.0026L19.6689 14.7704L19.5495 14.923L19.4832 15.2612L19.596 15.8051L19.7418 16.077L19.848 16.0239L19.6954 15.7984L19.7551 15.5398L19.9475 15.5863ZM18.6674 15.0873L18.3689 15.5119L18.0837 15.5914L17.7255 15.5119L17.0955 15.5317L16.7705 15.5914L16.7175 15.9164L17.049 16.2945L17.2547 16.1021L17.9577 15.9562L17.9245 16.1485L17.7587 16.0889L17.5929 16.3409L17.2547 16.5067L17.5929 17.0506L17.52 17.1965L17.8383 17.6873L17.8184 17.9658L17.6128 18.0918L17.4735 17.9393L17.6725 17.5944L17.2944 17.7602L17.2083 17.6409L17.2613 17.475L17.0026 17.223L17.049 16.8118L16.7904 16.9378L16.8036 17.4352L16.7904 18.0454L16.545 18.1051L16.3924 17.9857L16.5185 17.5944L16.4787 17.1832L16.3195 17.1765L16.2134 16.8847L16.3792 16.6062L16.4389 16.2679L16.6378 15.6246L16.7108 15.4522L17.0292 15.1338L17.3276 15.2598L17.7985 15.3195L18.2296 15.2996L18.601 14.9945L18.6674 15.0873ZM24.5106 18.1855L24.5769 16.7993L24.1723 16.7197L23.9004 16.5672L23.582 16.4213H23.2504L22.8126 16.6733L22.4811 17.1243L22.103 16.8723L22.0167 16.1825L21.9571 16.0233L21.3535 15.8509L21.1612 15.9902L20.6571 16.0896L20.8097 16.3019L21.1413 16.3815L21.2872 16.6335H21.8377L21.8642 16.7463L21.5989 16.7396L21.1877 16.8921L21.4663 17.1044L21.4596 17.2901L21.5326 17.4426L21.6785 17.4095L21.7979 17.1973L22.3484 17.5952L22.6535 17.6283L23.3631 17.9931L23.5157 18.3447L23.582 18.8089L23.3366 18.9283L23.1509 19.2732L23.6284 19.26L23.7279 19.1406L24.0993 19.2267L24.4044 19.5783L24.5106 18.1855ZM20.6108 17.0117L20.7302 17.3367L20.4251 17.1576L20.1133 17.1244L19.8945 17.151L19.6358 17.1377L19.7353 16.9056L20.1996 16.8857L20.6108 17.0117ZM19.2444 17.3107L19.3904 17.1649L19.3041 17.0256L18.9261 17.0455L18.9924 17.2312L19.2444 17.3107ZM22.1361 18.3382L21.9239 18.6301L21.9106 18.3117L21.9836 18.1591L22.0698 18.0133L22.1494 18.1392L22.1361 18.3382ZM13.0431 18.6238L12.3268 18.5773L12.287 18.4314L12.1279 18.3982L11.836 18.2324L11.385 18.2059L11.1065 18.6105L11.4447 18.6436L11.4978 18.8227L12.1743 19.0018L12.3335 18.9487L12.6054 18.9886L13.0299 19.1543L13.3747 19.2273L13.7594 19.2604L14.0976 19.2472L14.5023 19.4197L14.94 19.2604L14.4956 19.0084L13.9385 18.9289L13.8191 18.6503L13.136 18.4447L13.0431 18.6238ZM15.8951 19.2535L15.7691 19.1408L15.663 19.2934H15.4507L15.3048 19.5387L15.5104 19.5454L15.7691 19.4856L16.2135 19.3995L16.1339 19.2204L15.8951 19.2535ZM18.0109 19.6515L18.3956 19.4791L18.4485 19.3794L18.7736 19.2865L19.0389 19.2666L19.1583 19.2136L19.2975 19.2666L19.1516 19.386L18.747 19.5718L18.4221 19.6911L18.1502 20.0096L17.8185 20.1025L17.7787 20.056L17.8251 19.9101L18.0109 19.6515ZM16.5915 20.0621L16.7507 20.0555L16.7838 19.9361L16.6644 19.8101L16.4787 19.6774L16.1206 19.7637L16.5915 20.0621ZM25.1075 21.5553L25.1871 21.887L25.4523 21.7278L25.5453 21.9069L25.6977 22.0727L25.6248 22.265L25.6381 22.6298L25.6513 22.8421L25.7376 22.8951L25.7641 23.2599L25.6845 23.4787L25.7376 23.764L26.0957 23.9895L26.3079 24.1884L26.5202 24.3741L26.4472 24.4803L26.5998 24.7456L26.6329 25.2098L26.8054 25.1169L26.9049 25.296L27.011 25.2364L26.9646 25.6873L27.1569 25.946L27.2829 26.1052L27.4686 26.4501V26.7949L27.4023 27.0403L27.2829 27.299L27.3294 27.6638L27.1635 28.0419L27.0243 28.2409L26.7722 28.6189L26.6727 28.8643L26.4672 29.1693L26.1355 29.554L25.7707 29.7663L25.4789 30.0913L25.26 30.3035L24.9682 30.6683L24.7228 30.8805L24.4641 31.1989L24.2586 31.4907L24.2055 31.6299L23.9203 31.7759L23.5157 31.7892L23.0979 31.9682L22.8459 32.1274L22.5275 32.3131L22.3484 32.1208L22.176 32.0479L22.3484 31.8289L22.1163 31.9085L21.6387 32.2136L21.3999 32.1009L21.2408 32.0346L21.0551 32.0014L20.7831 31.882L20.697 31.6167L20.7964 31.2984L20.823 31.0794L20.7301 30.907L20.4184 30.8606L20.6306 30.6483L20.6903 30.3367L20.3786 30.6285L20.0271 30.708L20.3256 30.4759L20.4913 30.2305L20.7234 30.0183L20.8296 29.7066L20.3786 30.0647L20.0934 30.2107L19.8082 30.5489L19.6092 30.3765L19.722 30.1509L19.6291 29.8392L19.5097 29.68L19.6158 29.5806L19.2643 29.3219L19.0123 29.3153L18.747 29.1031L18.0904 29.1428L17.5665 29.2953L17.1088 29.4413L16.7772 29.4148L16.3129 29.6336L15.9614 29.7265L15.8088 29.952L15.6099 30.1244L15.2982 30.1377L15.0594 30.1708L14.7808 30.0979L14.5023 30.1443L14.2503 30.1642L13.9518 30.3898L13.8523 30.3698L13.6268 30.4892L13.4013 30.6219L13.1493 30.6086H12.9171L12.6452 30.3367L12.486 30.2571L12.5855 30.0117L12.7779 29.952L12.8773 29.8591L12.9171 29.7066L13.0697 29.4081L13.1161 29.1561L13.0697 28.725L13.083 28.4796L13.1758 28.2409L13.1161 27.9622L13.136 27.8362L13.0233 27.6638L13.0697 27.3321L12.9437 26.9939L12.937 26.8149L13.0564 27.0006L13.0233 26.6026L13.1758 26.7286L13.2487 26.8945L13.2885 26.6756L13.1824 26.3374L13.1758 26.2047L13.1227 26.0787L13.209 25.8333L13.3084 25.7271L13.3947 25.5149L13.4013 25.2629L13.6069 24.9578L13.5804 25.2828L13.786 24.9909L14.111 24.845L14.3232 24.666L14.6349 24.5068L14.8074 24.4736L14.9002 24.5267L15.2186 24.3675L15.4507 24.3211L15.5237 24.2282L15.6231 24.1884L15.8288 24.2016L16.2399 24.0756L16.4721 23.8834L16.6047 23.6578L16.8634 23.4456L16.9098 23.2732L16.9563 23.041L17.2812 22.6762L17.3741 23.0476L17.5465 22.9615L17.4471 22.7625L17.5996 22.5568L17.7455 22.6497L17.845 22.3247L18.0771 22.1124L18.1965 21.9466L18.3889 21.8737L18.4154 21.7543L18.5679 21.8007L18.5945 21.6946L18.7669 21.6349L18.9526 21.5752L19.198 21.7742L19.3704 22.0263H19.6026L19.8348 22.066L19.7883 21.8339L20.0205 21.4956L20.1995 21.3829L20.1597 21.2768L20.352 21.0314L20.5974 20.8789L20.7765 20.9319L21.1015 20.8523L21.1214 20.6335L20.8628 20.4942L21.0684 20.4345L21.3071 20.5406L21.4862 20.713L21.7847 20.8191L21.8974 20.7793L22.1163 20.912L22.3484 20.786L22.4811 20.8258L22.5805 20.7396L22.7265 20.9518L22.5938 21.184L22.428 21.3564L22.302 21.3696L22.3219 21.5355L22.176 21.7477L22.0101 21.9599L22.0234 22.0793L22.2755 22.3181L22.5408 22.4507L22.7066 22.5966L22.9254 22.8486H23.0316L23.204 22.9615L23.2371 23.0941L23.5621 23.2333L23.8341 23.0875L23.9535 22.8619L24.0662 22.6696L24.1524 22.4374L24.3249 22.0992L24.3116 21.8936L24.358 21.7676L24.3514 21.5288L24.4443 21.2038L24.5304 21.1176L24.4907 20.9783L24.6101 20.7528L24.7095 20.5207L24.7361 20.3946L24.8886 20.2355L24.9748 20.4478L24.9682 20.713L25.0545 20.7661L25.0478 20.9452L25.1539 21.1574L25.1473 21.4028L25.1075 21.5553ZM21.7581 33.0566L22.0035 33.2026L22.2224 33.1428L22.5474 33.0633L22.7331 33.0897L22.4346 33.5938L22.2158 33.7331L21.9504 34.078L21.9107 33.9586L21.4729 34.2505L21.4199 34.2306L21.2209 34.2173L21.2541 33.8592L21.3867 33.5805L21.4265 33.2092L21.5592 33.0168L21.7581 33.0566ZM17.646 19.1408L17.5731 19.3795L17.0027 19.4989L16.5053 19.4459L16.5185 19.2867L16.8236 19.2005L17.0491 19.3265L17.3011 19.2934L17.646 19.1408ZM31.2558 30.123L31.2027 30.2954L31.5742 30.123L31.541 30.302L31.4017 30.4811L31.1231 30.6735L30.6522 30.9852L30.3405 31.1576L30.3007 31.3566L30.0354 31.3633L29.6175 31.5224L29.3058 31.7943L28.762 32.2188L28.3441 32.4045L28.0788 32.5239L27.7737 32.5173L27.6743 32.378L27.336 32.3515L27.4023 32.1923L27.8334 31.8872L28.5895 31.4694L28.8747 31.3897L29.2461 31.2306L29.7104 31.0117L30.0885 30.7928L30.4864 30.4811L30.692 30.375L30.9241 30.1362L31.3089 29.9439L31.2558 30.123ZM33.1526 28.5516L33.1791 28.1006L33.3118 27.7225L33.0996 27.6164L33.0399 27.3776L32.8939 27.4108L32.8675 27.7159L32.9139 28.0873L32.9736 28.2663L32.9205 28.3393L32.8807 28.6245L32.7149 28.8964L32.4363 29.2281L32.0848 29.374L31.9654 29.5265L32.2174 29.6923L32.1578 29.9311L31.7001 30.276L31.7996 30.3357L31.7664 30.4484L32.1644 30.276L32.5557 29.9908L32.8608 29.7587L32.9669 29.6857L33.0664 29.5L33.2521 29.374L33.5108 29.3806L33.7893 29.1352L34.1342 28.7572L33.9883 28.7107L33.6766 28.8699L33.4644 28.8367L33.272 28.6974L33.4311 28.3792L33.345 28.2598L33.1526 28.5516Z" fill="#0C0C0D" fill-opacity="0.88"/>
</svg>
