<svg width="40" height="40" viewBox="0 0 40 40" fill="none" xmlns="http://www.w3.org/2000/svg">
<rect width="40" height="40" rx="8" fill="#907F6F" fill-opacity="0.1"/>
<path fill-rule="evenodd" clip-rule="evenodd" d="M31.6911 9.21711L31.5358 9.13085L31.576 8.96983L31.3 8.91807L31.0297 8.86632L30.9377 8.73981L30.4604 8.7513L30.4776 8.80881L30.2476 8.82606L30.0118 8.90082L29.73 9.01008L29.7071 9.11934L29.8221 9.20561H30.2016L29.9544 9.27462L29.8336 9.36663L29.9256 9.47589L30.3166 9.51039L30.7077 9.49314L31.3173 9.29187L31.6911 9.21711ZM28.4247 9.48174L28.3615 9.591L28.0567 9.56225L27.8266 9.47599L27.378 9.46449L27.6828 9.38973L27.5218 9.32647L27.6483 9.22296L27.9991 9.25746L28.4305 9.35523L28.4247 9.48174ZM28.8387 9.60852L29.2183 9.55101L29.3908 9.459L29.2585 9.36699L29.1607 9.34974L28.9078 9.33824L28.7812 9.4475L28.7467 9.54526L28.8387 9.60852ZM26.527 9.40659L26.1992 9.45834H25.8541L25.9116 9.41808L26.2394 9.34332L26.3372 9.35483L26.527 9.40659ZM25.5724 9.72939L26.0785 9.64887L26.2567 9.56837L26.0209 9.52811L25.6759 9.55686L25.3826 9.64312L25.5724 9.72939ZM29.4597 9.70083L29.3562 9.70658L28.9767 9.68933L29.0169 9.61457L29.431 9.62032L29.523 9.66633L29.4597 9.70083ZM24.4567 9.8782L24.7902 9.66543L24.4395 9.70569L24.1232 9.69993L23.4216 9.8782L22.7488 10.091L22.9558 10.1542L23.3641 10.1082L23.9335 9.98746L24.1519 9.97596L24.4567 9.8782ZM29.1434 9.81492L29.2757 9.90693H29.7013L29.7817 9.99894L29.6207 10.1024L29.799 10.1657L29.868 10.2347L30.1497 10.2462L30.4431 10.2692L30.8514 10.2117L31.3171 10.1829L31.6507 10.206L31.783 10.3152L31.7254 10.4302L31.5184 10.5107L31.1332 10.574L30.8859 10.5337L30.2073 10.5797L29.7472 10.5855L29.4252 10.551L28.9306 10.459L29.0227 10.298L29.1434 10.1599L29.0629 10.0334L28.6603 9.99894L28.5108 9.91267L28.7294 9.79766L29.1434 9.81492ZM25.9001 10.1656L25.9404 10.0678L26.0439 9.92982L25.8656 9.90108L25.5321 10.0046L25.4918 10.2749L25.141 10.2519L24.9742 10.0851L24.4969 9.98733L24.1864 10.0678L23.5136 10.3439L23.7551 10.3956L24.7845 10.3611L24.1692 10.4934L24.0829 10.5854L24.4279 10.5796L25.1353 10.4531L25.9346 10.4071L26.2278 10.2749L26.3601 10.1311L26.1532 10.1196L25.9001 10.1656ZM28.2062 9.91803L28.2177 10.0503L28.0567 10.1941L27.7231 10.4126L27.3263 10.4413L27.1423 10.3953L27.3379 10.2286L26.9583 10.2458L27.2056 10.0273L27.4241 10.0388L27.8669 9.94103L28.1487 9.95828L28.2062 9.91803ZM28.4764 10.528L28.7122 10.4187L28.7294 10.3267L28.6489 10.2232L28.2521 10.3037L27.9934 10.4302L28.1774 10.505L28.4764 10.528ZM21.5124 11.4776L20.736 11.6271L20.7705 11.4949L20.4256 11.3338L20.6785 11.2073L21.1098 10.9888L21.5469 10.7933L21.5699 10.615L22.375 10.569L22.6165 10.6323L23.1628 10.6495L23.2721 10.73L23.364 10.8565L22.9903 10.9313L22.191 11.1383L21.6619 11.3511L21.5124 11.4776ZM27.723 11.2874L28.1716 11.0631L28.4937 11.0056L29.0745 10.7411L28.7179 10.6721L28.2636 10.6606L27.9646 10.7411L27.723 10.8676L27.5736 11.0113L27.4701 11.2759L27.723 11.2874ZM26.872 10.747L27.079 10.8103L27.5161 10.77L27.4872 10.8563L27.1365 11L27.355 11.1266L27.056 11.3968L26.5729 11.5119L26.3774 11.4888L26.3256 11.3738L25.9864 11.1438L26.0842 11.0461L26.5097 11.0806L26.4579 10.8908L26.872 10.747ZM29.7875 11.1327L29.7703 10.9487L30.1038 10.7589L29.4597 10.8394L29.1147 10.9602L28.7064 11.2247L28.5166 11.5295H28.8444L28.4821 11.6675L28.5914 11.7767L28.9307 11.8227L29.3562 11.9148L30.1613 11.9838L30.6156 11.9435L30.8054 11.8515L30.9147 11.955L31.1101 11.9723L31.2252 12.1678L31.0239 12.2483L31.4322 12.3518L31.7025 12.5071L31.7312 12.6106L31.7083 12.7543L31.2021 13.0649L31.0239 13.2259L31.0354 13.3409L30.5006 13.3812L30.0348 13.3869L29.7243 13.6285L29.8623 13.7377L30.6156 13.6859L30.6674 13.594L30.9376 13.7492L31.2137 13.9159L31.0756 14.0137L31.2942 14.169L31.7312 14.3645L32.3581 14.4968L32.3753 14.3818L32.2143 14.1805L32.0073 13.8987L32.5018 14.1575L32.7721 14.2495L32.9791 14.0137L32.9849 13.6859L32.9274 13.5997L32.6685 13.4502L32.5133 13.2661L32.6456 13.0764L32.9849 13.0361L33.2034 13.3467L33.4334 13.4847L34.0603 13.1109L34.25 12.8866L33.8762 12.8636L33.6865 12.5761L33.3471 12.5071L32.9044 12.3001L33.4276 12.1563L33.3759 11.863L33.2494 11.7422L32.7663 11.6215L32.6571 11.426L32.1855 11.495L32.2488 11.3627L32.036 11.2189L31.645 11.0694L31.3402 11.1902L30.8226 11.2764L31.0066 11.0809L30.8744 10.7761L30.2016 10.8969L29.7875 11.1327ZM32.0591 10.9646L32.0188 11.0451L31.783 11.0393L31.5473 11.0336L31.2655 11.0738L31.2137 11.0508L31.0929 10.8956L31.1908 10.7921L31.3173 10.7691L31.8003 10.8036L32.0591 10.9646ZM25.4114 11.0692L25.8139 10.8737L25.7161 10.8047L25.3999 10.8162L25.2791 10.8622L25.4114 11.0692ZM23.5424 10.9588L23.2721 11.0968L23.8759 11.0106L24.0255 11.1601L24.4452 11.0048L24.5487 11.1026L24.4222 11.3958L24.6695 11.2751L24.8305 10.9703L25.0778 10.9243L25.2503 10.9703L25.3768 11.0911L25.2216 11.3843L25.0836 11.5971L25.3251 11.7466L25.6126 11.8961L25.4631 12.0284L25.0548 12.0572L25.1008 12.1722L24.9168 12.2872L24.5315 12.2412L24.2038 12.1549L23.9104 12.1722L23.3641 12.2814L22.7143 12.3274L22.26 12.3562L22.2772 12.2067L22.0415 12.1262L21.7942 12.1607L21.7597 11.9134L21.9495 11.8789L22.3693 11.8271L22.6855 11.8444L23.0421 11.7869L22.6683 11.7179L22.145 11.7409L21.8172 11.7351V11.6259L22.49 11.4994L22.1278 11.5051L21.8172 11.4246L22.2658 11.2003L22.5648 11.0796L23.3814 10.9013L23.5424 10.9588ZM29.6669 20.3796L29.6783 20.4992L29.3103 20.6717L28.9653 20.7982L28.6202 20.9075L28.3902 21.126L28.3154 21.2065L28.2464 21.4021L28.2867 21.5918L28.4074 21.6033L28.4189 21.4711L28.4822 21.5515L28.4247 21.655L28.2061 21.7126L28.0624 21.7068L27.8209 21.7701L27.6886 21.7873L27.5103 21.8046L27.2228 21.9139L27.6886 21.8449L27.7519 21.9139L27.2976 22.0231H27.1078L27.1308 21.9771L27.01 22.0806L27.0906 22.0978L26.9468 22.3624L26.642 22.6441L26.6478 22.5464L26.5845 22.5292L26.5155 22.4371V22.6384L26.573 22.7017L26.5385 22.8397L26.4005 22.9834L26.1417 23.2768L26.1186 23.2652L26.2854 23.0122L26.1705 22.8742L26.2279 22.5637L26.1186 22.7247V22.9605L25.9347 22.903L26.1072 23.0179L26.0209 23.3688L26.1014 23.3975V23.524L26.0439 23.8921L25.7794 24.1624L25.4286 24.2716L25.1756 24.4901L25.0146 24.5131L24.819 24.6511L24.7443 24.7719L24.3475 25.0135L24.129 25.1917L23.9277 25.4102L23.8184 25.669V25.9278L23.853 26.2441L23.9392 26.5028L23.9104 26.6638L23.9852 27.0894L23.9277 27.3424L23.8932 27.4862L23.7782 27.7105L23.6747 27.7564L23.5252 27.7105L23.5021 27.5494L23.3986 27.4632L23.2836 27.1469L23.1916 26.8651L23.1686 26.7214L23.2836 26.4741L23.2376 26.2728L23.0593 25.9623L22.9501 25.9048L22.5993 26.0773L22.5475 26.0543L22.4326 25.8817L22.26 25.7898L21.892 25.8415L21.6274 25.7955L21.3801 25.8243L21.2364 25.8817L21.2709 25.9795L21.2307 26.129L21.2766 26.2038L21.2077 26.2498L21.1042 26.1981L20.9718 26.2671L20.7476 26.2555L20.5578 26.06L20.2761 26.1061L20.069 26.0198L19.8678 26.0485L19.5802 26.1348L19.2295 26.4051L18.8787 26.5661L18.6659 26.7386L18.5566 26.9054L18.4991 27.1642L18.4762 27.3367L18.5107 27.4632L18.3266 27.7912L18.2231 28.0557L18.1196 28.5502L18.0564 28.7285L18.0793 28.9298L18.1541 29.1139L18.1771 29.3956L18.3496 29.6716L18.3956 29.8844L18.4934 30.0627L18.8211 30.1604L18.9304 30.3157L19.2295 30.2122L19.4767 30.1777L19.7298 30.1087L19.9368 30.0454L20.1611 29.8959L20.2646 29.6831L20.3336 29.3726L20.4026 29.2633L20.6326 29.1656L20.9834 29.0793L21.2652 29.0966L21.4607 29.062L21.5297 29.1426L21.4952 29.3209L21.294 29.5393L21.1904 29.7637L21.2422 29.8269L21.1731 29.9879L21.0524 30.2755L20.9834 30.1777L20.9202 30.1834L20.8569 30.1892L20.7131 30.4135L20.6614 30.3675L20.6211 30.3847L20.6154 30.4422L20.3164 30.4365H20.0173L19.9885 30.6435L19.8447 30.6493L19.9483 30.77L20.0575 30.8563L20.0863 30.9367L20.1323 30.9598L20.1093 31.0863H19.6953L19.5055 31.3853L19.5457 31.4543L19.4998 31.5406L19.4767 31.6498L19.1547 31.2531L19.0052 31.1323L18.7522 31.0345L18.5682 31.0633L18.2921 31.2013L18.1254 31.2358L17.9126 31.138L17.6768 31.069L17.4008 30.9022L17.165 30.8505L16.8257 30.678L16.5784 30.4997L16.5152 30.402L16.3369 30.379L16.0264 30.264L15.9171 30.0972L15.6066 29.8844L15.4801 29.6544L15.4341 29.4703L15.5434 29.4358L15.5261 29.3323L15.618 29.2346L15.6411 29.1081L15.5548 28.9413V28.7975L15.4801 28.6078L15.2616 28.2397L14.997 27.9522L14.8878 27.7222L14.652 27.5727L14.6117 27.4807L14.7095 27.2564L14.5715 27.1701L14.4277 26.9861L14.4162 26.7331L14.2551 26.6986L14.1229 26.5088L14.0251 26.3248L14.0424 26.2098L13.9561 25.9337L13.9389 25.6519L13.9849 25.5082L13.8067 25.3587L13.6974 25.3759L13.5594 25.2781L13.4559 25.4277L13.4501 25.6002L13.3926 25.882L13.4501 26.0315L13.6111 26.2845L13.6342 26.3765L13.6743 26.3995L13.6801 26.5261L13.7376 26.5203V26.7618L13.8123 26.8538L13.8412 26.9861L13.9964 27.1701L14.0194 27.5152L14.077 27.6762L14.1287 27.8487L14.1115 28.0442L14.2609 28.0557L14.353 28.2225L14.4392 28.3892L14.422 28.4583L14.2609 28.5905H14.2034L14.1632 28.3663L13.9964 28.1535L13.8009 27.9752L13.6571 27.8832L13.7261 27.6129L13.7204 27.4117L13.5996 27.2966L13.4214 27.1356L13.3696 27.1816L13.3121 27.0838L13.1396 26.9976L13.0131 26.779L13.0418 26.7561L13.1625 26.7733L13.3178 26.6353L13.3753 26.4685L13.2086 26.204L13.0591 26.1063L13.0131 25.8763L12.9786 25.629L12.9325 25.3357L12.9211 25.0021L12.9383 24.8179L12.8175 24.6052L12.691 24.5591L12.6967 24.4556L12.53 24.4326L12.461 24.3349L12.1849 24.3004L12.1332 24.2371L12.1792 24.0358L12.0354 23.6678L12.0067 23.156L12.0584 23.0697L11.9837 22.9489L11.8974 22.6384L12.0009 22.3394L11.9492 22.1381L12.1734 21.8333L12.3345 21.5228L12.3977 21.241L12.714 20.896L12.944 20.5682L13.174 20.2404L13.4213 19.7516L13.5248 19.4468L13.5478 19.2801L13.6284 19.2053L13.9619 19.3318L13.9044 19.6711L14.0309 19.5733L14.1747 19.2801L14.2663 18.988H14.2263L13.9158 18.6372L13.8238 18.4819L13.4213 18.3324L13.496 18.0161L13.7031 17.8033L13.4673 17.6481L13.6455 17.3663L13.5248 17.1133L13.6686 16.9292L13.9618 16.7625L14.1459 16.5439L14.1452 16.5434L13.9619 16.7611L13.6686 16.9279L13.6341 16.8014L13.4903 16.6864L13.6801 16.3874L13.5881 16.1056L13.7434 15.7836L13.5076 15.7606L13.0992 15.7548L12.8808 15.6513L12.6909 15.3005L12.5012 15.2373L12.1734 15.1165L11.7824 15.1453L11.4374 14.99L11.2821 14.8462L10.9198 14.9152L10.7185 15.151L10.5518 15.174L10.1722 15.243L9.81567 15.358L9.44764 15.4328L9.63166 15.2315L10.1147 14.898L10.5058 14.7945L10.5288 14.7139L9.9882 14.898L9.56265 15.1222L8.91859 15.3637L8.93008 15.5305L8.41253 15.772L7.96973 15.9158L7.60169 15.7146L7.95823 15.5133L7.53843 15.6168L7.52118 15.5536L7.2394 15.6801L7.26241 15.5075L7.05538 15.6283L7.14739 15.4615L6.72759 15.5938H6.56658L6.77935 15.3925L6.96913 15.266L6.94612 15.1453L6.53208 15.2143L6.49757 15.0532L6.42282 14.9728L6.65284 14.7829L6.62984 14.6392L6.96913 14.4494L7.41192 14.2597L7.7167 14.0929L7.95248 14.0699L8.05599 14.1217L8.46428 13.9606L8.60805 13.9894L8.93008 13.8859L9.07385 13.7363L9.01059 13.6789L9.35563 13.5523L9.19462 13.5581L8.83807 13.6271L8.6713 13.7018L8.5678 13.6271L8.171 13.6673L7.90648 13.5868L7.97548 13.4545L7.91797 13.2706L8.44703 13.1326L9.20611 12.9772H9.40738L9.16011 13.1383L9.68917 13.1268L9.75817 12.9255L9.62591 12.8047L9.67192 12.6437L9.63166 12.5115L9.44189 12.4137L9.81567 12.2469L10.247 12.2354L10.753 12.0974L11.0291 11.9479L11.4834 11.7984L11.7594 11.7639L12.4035 11.6259L12.5817 11.6489L13.1798 11.4879L13.4328 11.5511L13.4041 11.6891L13.5938 11.6316L13.9561 11.6489L13.8469 11.7179L14.1286 11.7696L14.4104 11.7409L14.767 11.8329L15.181 11.8674L15.3075 11.9019L15.687 11.8559L15.9228 11.9479L16.1241 11.9882L14.7094 13.1613L12.6622 15.0418H12.6635L14.7094 13.1626L16.1241 11.9895L16.4691 12.0642L16.6589 12.2137L16.8717 12.2425L17.2339 12.116L17.6364 12.0182L17.9412 12.0527L18.4531 11.9205L18.9247 11.8457L18.9361 11.9722L19.1949 11.8974L19.4192 11.7537L19.54 11.7882L19.6204 12.0642L20.1667 11.8514L19.9425 12.0872L20.2875 12.0355L20.4715 11.9492L20.736 11.9665L20.9603 12.093L21.3916 12.208L21.6619 12.2597L21.9149 12.2425L22.0817 12.4035L21.5929 12.5587L21.9609 12.622L22.6453 12.5875L22.8983 12.53L22.9788 12.7198L23.3871 12.5645L23.2663 12.4265L23.5251 12.323L23.8242 12.3057L24.0484 12.277L24.1692 12.3517L24.2554 12.5185L24.543 12.4955L24.8478 12.6393L25.2618 12.5875L25.6068 12.5932L25.7449 12.3978L26.0036 12.346L26.2854 12.4495L26.0381 12.7486L26.3946 12.4955L26.5787 12.507L26.9467 12.1907L26.8547 12.001L26.688 11.8744L27.0042 11.5352L27.4758 11.3166L27.7345 11.3684L27.8496 11.5007L27.8726 11.8457L27.5391 11.9952L27.9244 12.0585L27.6713 12.3747L28.1831 12.1332L28.3096 12.3345L28.0623 12.5645L28.1371 12.7773L28.5569 12.553L28.9307 12.277L29.201 11.9377L29.5173 11.9607L29.8278 12.0067L30.0348 12.162L29.937 12.3172L29.6438 12.484L29.6955 12.6508L29.5575 12.806L28.9307 13.0303L28.5569 13.0821L28.3728 12.9843L28.1831 13.1453L27.7575 13.4156L27.585 13.5594L27.1423 13.7779L26.7684 13.8009L26.4752 13.9389L26.3084 14.1574L25.9806 14.1977L25.4803 14.4679L24.9397 14.8417L24.6522 15.1063L24.3705 15.5031L24.7155 15.5606L24.6292 15.8769L24.5833 16.1414L25.003 16.0724L25.4056 16.2219L25.5953 16.3542L25.6931 16.5152L25.9749 16.6129L26.1819 16.7567L26.619 16.7797L26.895 16.8142L26.688 17.1133L26.5902 17.464L26.5959 17.8609L26.849 18.2001L27.1192 18.0851L27.4413 17.7171L27.5736 17.165L27.4758 16.981L27.9934 16.8142L28.4246 16.5727L28.7007 16.3312L28.7984 16.1011L28.7754 15.8079L28.5914 15.5491L29.1032 15.1925L29.1607 14.8878L29.385 14.3702L29.6035 14.2897L29.9888 14.3817L30.2303 14.4162L30.4891 14.3242L30.6674 14.4392L30.8744 14.6347L30.8859 14.7613L31.3287 14.79L31.1792 15.0718L31.0469 15.4973L31.2654 15.5548L31.3575 15.7561L31.829 15.5663L32.2603 15.1868L32.5018 15.0316L32.565 15.3363L32.7146 15.7676L32.8296 16.1817L32.6341 16.4002L32.9101 16.5957L33.0768 16.7912L33.4737 16.8832L33.6117 16.9925V17.2915L33.8072 17.3375L33.8705 17.4698L33.7554 17.8666L33.5082 17.9989L33.2667 18.1254L32.7606 18.2519L32.3063 18.5394L31.8118 18.6027L31.231 18.5221H30.8112L30.5064 18.5452L30.1786 18.8039L29.753 18.9649L29.1722 19.4365L28.7179 19.7701L28.9882 19.7125L29.615 19.2352L30.3223 18.9362L30.7593 18.9017L30.9492 19.08L30.5984 19.3215L30.5639 19.7068L30.5696 19.9828L30.8917 20.1611L31.3862 20.1094L31.8003 19.7011L31.7428 19.9656L31.8865 20.0978L31.461 20.3336L30.7479 20.5522L30.4143 20.6959L30.0003 20.9604L29.7875 20.9317L29.8738 20.6269L30.4719 20.3221L30.0061 20.3336L29.6669 20.3796ZM14.0249 15.6868L13.9619 15.9274L13.8813 16.3241L13.9618 15.9286L14.0249 15.6868ZM23.5693 19.3439L23.2204 19.4584L22.9501 19.6021L22.6856 19.7574L22.6568 19.8091L22.9846 19.7344L23.1054 19.8551L23.3699 19.7689L23.6517 19.6481L23.9622 19.5274L23.7839 19.7171L23.9277 19.7631L24.0714 19.9012L24.3648 19.8206L24.658 19.7919L24.6753 19.8954L24.7615 19.9069L24.7624 19.907L24.8707 19.7873L24.7672 19.7413L24.8765 19.6033L24.8075 19.4998L24.9052 19.3963L24.6062 19.3445L24.6005 19.1374L24.5544 19.0915L24.3647 19.08L24.1289 19.011L24.0427 19.057L23.9391 19.1432L23.7494 19.2007L23.5711 19.3445L23.5693 19.3439ZM24.8311 19.9192L24.911 19.8678L24.934 19.9483L25.1295 19.9943H25.3538L25.5723 20.0346L25.8024 20.1036L25.8541 20.2186L25.9346 20.4946L25.7966 20.6154L25.5781 20.5636L25.5148 20.3394L25.4631 20.5694L25.2445 20.7706L25.1928 20.9431L25.1295 21.0467L24.8937 21.1675L24.681 21.3687L24.566 21.4952L24.7213 21.5182L24.9858 21.4032L25.1525 21.2997L25.2445 21.2824L25.3941 21.3169L25.4918 21.2595L25.6528 21.2134L25.9288 21.1732L25.9232 21.2065L25.5896 21.425L25.3251 21.5286L25.1526 21.5803L24.9398 21.6781L24.7098 21.7298L24.566 21.7068L24.4108 21.6321L24.566 21.4941L24.681 21.3676L24.8938 21.1663L24.934 21.0167L24.9628 20.804L24.8708 20.7694L24.6235 20.9248H24.566L24.589 20.8327L24.8076 20.689L24.8995 20.5222L24.9456 20.3554L24.7845 20.2174L24.566 20.1427L24.4683 20.2807L24.3935 20.3152L24.267 20.4934L24.29 20.3727L24.1348 20.4589L24.0139 20.5855L23.8644 20.7637L23.7839 20.919L23.7897 21.1432L23.6862 21.3848L23.4964 21.5631L23.4159 21.6091L23.3239 21.6493L23.2204 21.655L23.2031 21.6263L23.1974 21.4366L23.2319 21.3388L23.2779 21.2525L23.3124 21.0742L23.4562 20.8672L23.623 20.6142L23.8932 20.3324H23.853L23.5366 20.5682L23.5137 20.5279L23.6862 20.3957L23.9565 20.1599L24.1693 20.1254L24.428 20.0564L24.6408 20.0966H24.6465L24.9168 20.0621L24.8311 19.9192ZM25.946 21.064L25.9461 21.0628L26.1014 21.0167L26.3257 21.034L26.5557 21.0628L26.8203 20.942L26.8548 20.7982L26.8435 20.7475L26.8432 20.7419L26.7915 20.7189L26.6764 20.7706L26.5672 20.8454L26.4636 20.7822L26.1934 20.8282L25.9691 20.8799L25.8598 20.9259L25.7276 21.0467L25.8311 21.0869L25.9289 21.064H25.946ZM26.6189 12.1795L26.3831 12.2887L26.1416 12.1967L25.9173 12.2255L25.7218 12.0875L26.0093 11.9897L26.2911 11.8574L26.4636 11.9437L26.5556 12.0012L26.5786 12.0587L26.6189 12.1795ZM30.6215 12.811L30.9033 12.7938L31.1217 12.7018L31.1735 12.6557L31.2598 12.5235L31.1275 12.4372L30.8802 12.4775L30.6617 12.6557L30.6215 12.811ZM28.3211 13.2706L28.2694 13.4143L28.4246 13.3626L28.5108 13.4488L28.7122 13.5638L28.9306 13.6616L28.8501 13.8169L29.0514 13.7938L29.1606 13.9031L28.8732 14.0066L28.5339 13.9261L28.4878 13.7766L28.1256 13.9549L27.6541 14.1217L27.6943 13.9319L27.332 13.9606L27.6597 13.7996L27.8668 13.5409L28.1601 13.2475L28.3211 13.2706ZM28.0854 14.4211L28.4994 14.2371L28.5454 14.1739L28.2003 14.1681L27.9128 14.3233V14.4096L28.0854 14.4211ZM29.0572 14.4208L28.8502 14.5934L28.7524 14.5646L28.7467 14.4669L28.7697 14.4439L28.9307 14.3461L29.0285 14.3518L29.0572 14.4208ZM12.8463 17.1995L12.76 17.1535L12.645 17.2627L12.5702 17.418L12.6163 17.5273L12.5875 17.6941L12.6277 17.8551H12.737L12.7198 17.5675L13.1337 17.1707L12.8463 17.1995ZM33.4623 18.3838L33.1747 18.6943L33.399 18.5736L33.5658 18.6541L33.4278 18.7749L33.6463 18.8726L33.8074 18.7864L34.0546 18.8956L33.8936 19.1602L34.1121 19.0969L34.0948 19.2867L34.1236 19.5109L33.9165 19.833L33.7785 19.8445L33.6118 19.7755L33.7555 19.4822L33.6865 19.4362L33.2668 19.7467L33.0942 19.7352L33.3473 19.5627L33.0942 19.4764L32.778 19.4995L32.2259 19.4879L32.2144 19.3844L32.4329 19.2522L32.3352 19.1602L32.6457 18.9416L33.1173 18.3723L33.3588 18.1711L33.6463 18.0503L33.7671 18.0618L33.6808 18.1595L33.4623 18.3838ZM13.7836 19.2123L13.9619 19.1605L13.9734 18.965L13.7894 18.8155L13.7664 18.6487L13.7549 18.5222L13.5191 18.4877L13.3811 18.4302L13.1453 18.3554L13.0591 18.436L13.0245 18.6315L13.2718 18.6947L13.2546 18.7982L13.4214 18.9247V19.0513L13.7836 19.2123ZM31.668 18.9467L31.53 18.9525L31.1964 18.8432L30.9951 18.6707L31.1044 18.6419L31.4437 18.7339L31.6852 18.8835L31.668 18.9467ZM30.84 19.8673L31.0355 19.919L31.3057 19.9075L31.116 20.057L31.001 20.08L30.6847 19.9247L30.6502 19.804L30.7939 19.6947L30.84 19.8673ZM8.36077 16.1296L7.95823 16.2618L7.91223 16.1698L8.04449 16.0087L8.41253 15.888L8.6138 15.8362L8.76331 15.8593V15.9685L8.36077 16.1296ZM5.89377 15.2268L6.11804 15.175L6.2503 15.0485L6.07779 15.014L5.75 15.0715L5.796 15.1636L5.89377 15.2268ZM6.18701 13.8867L6.25602 13.9442L6.45729 13.9154L6.5493 14.0017L6.73907 14.0419L6.67006 14.0822L6.38828 14.1512L6.29053 14.0764L6.27327 14.0189L6.02599 14.0362L6.00874 14.0074L6.18701 13.8867Z" fill="#0C0C0D" fill-opacity="0.88"/>
</svg>
