<svg width="40" height="40" viewBox="0 0 40 40" fill="none" xmlns="http://www.w3.org/2000/svg">
<rect width="40" height="40" rx="8" fill="#907F6F" fill-opacity="0.1"/>
<path fill-rule="evenodd" clip-rule="evenodd" d="M23.1625 5.75L23.0058 5.90619L23.1254 6.02538L23.1625 6.06237V5.75ZM23.1625 6.14046L22.9276 6.22267L23.1254 6.33775L23.1625 6.14046ZM22.2636 6.25966L22.1441 6.76933L22.3792 6.45695L22.2636 6.25966ZM25.3602 6.92551L25.2819 7.50916L24.8902 7.82153V8.01882L24.6923 8.72167L25.0056 8.91895L24.9273 9.26832H25.1623L24.9273 9.30942L24.849 9.62179L25.2036 9.50259L25.084 9.77798L25.4798 9.62179L25.2448 9.42451L25.4798 9.34641L25.2448 9.30942L25.4385 9.26832L25.2448 9.11213H25.4385L25.2036 8.87785L25.4015 8.84086L25.3602 8.60658L25.3231 8.2531L25.6736 7.23789L25.3602 6.92551ZM19.3609 7.11869V7.35297H19.163L19.2413 7.58725L19.398 7.55026L19.5959 7.50916L19.398 7.70644L19.8309 7.86263L20.1443 7.39408L19.9093 7.19678L19.7114 7.35297L19.6743 7.11869L19.633 7.43107L19.398 7.19678L19.3609 7.11869ZM19.0063 7.39408V8.01882L18.8125 7.50916L18.7341 7.78454L18.5362 7.58725L18.7341 7.47217L18.3795 7.58725L18.5362 8.37229L18.8496 8.05992V8.2531L18.9692 8.13802L19.0846 8.2942L18.5775 8.48738L18.6146 8.68467L19.0063 8.56547L18.6929 8.72167L18.8908 8.84086L18.5775 8.76277L18.7713 9.07514L18.9692 9.34641L19.2825 8.2942L19.398 8.21611L19.5959 8.13802L19.398 7.90374V7.89963L19.2042 7.62835L19.1259 7.78454L19.0063 7.39408ZM19.5959 8.175L19.398 8.2531L19.5176 8.40929L19.5959 8.175ZM19.7526 8.37229L19.5176 8.48738V8.84086L19.7114 8.76277L19.7526 8.95594L19.9093 8.72167L19.7526 8.37229ZM25.4798 9.69988L25.2036 9.77798L25.0056 9.97527L25.1665 10.0534L25.0056 10.2465L25.2448 10.1684L25.1252 10.7932L25.3231 10.9494L25.5582 10.7562L25.9086 11.1056L26.4983 10.7932L25.7149 10.4438L25.4798 10.0904V9.69988ZM28.498 10.5589L27.3601 10.8343V11.0686L27.7929 11.3029L27.6363 11.5001L27.7146 11.6933L27.3601 11.459L27.2446 11.8906L26.8899 12.1249V12.3592L26.5766 12.5154L26.4571 12.1619L26.5766 11.9687L26.4571 12.0468L26.3787 12.5524L26.2633 12.3962L25.752 13.1032L25.9499 13.2182L25.6736 13.3744L25.7931 13.7649L25.4798 13.921L25.1252 13.6867L25.4015 13.3374L25.2819 13.1812L24.4573 13.1032L24.7706 13.2593L25.2819 14.5869L24.7335 14.3896L24.4985 14.8212L24.3789 15.0966L24.3542 15.1952L24.4985 15.4089L24.6923 15.6802H24.5768H24.1439L24.0655 15.8364L24.1439 15.6432L23.715 15.5651L23.6738 15.8364L24.1439 15.9926L24.0655 16.3461L23.2822 16.0707L23.0058 15.5651L23.0842 15.2527L22.5771 15.1336L22.7337 15.0184L22.2225 14.6649L24.0655 14.8623L24.2222 14.5869L24.4201 14.1184L23.9212 13.7402L23.9088 13.7278L23.8305 13.6497L22.6925 13.2593L22.342 13.2963L22.2636 13.5717L22.3008 13.2593L22.0287 13.2963L21.9503 13.1032H22.1853L21.9503 12.9839L21.7936 13.2593L21.5544 13.1032L21.439 13.2593L21.2411 13.062L21.1628 12.9839H21.5173L21.6741 12.7497L21.204 12.5524L21.0061 12.8278L21.1257 12.5154L20.9277 12.4373L20.8494 12.8278L20.7339 12.9058V12.5524L20.4989 13.1032L20.5773 12.6304L20.3422 12.5524L20.1443 13.1812L19.7567 12.9387L19.7938 13.1812L19.8722 13.3374L19.6743 13.1812L19.398 13.5717L19.3609 13.6087L19.398 13.5306L19.4763 13.1812L19.398 13.3374L19.3197 13.5306V13.2963L19.163 13.4155L19.2825 13.6497L19.0063 13.4936L18.8908 13.9621L18.6146 14.0402L18.9279 14.1184H18.5775V14.4677L18.4991 14.1964L18.3013 14.3115L18.4579 14.3896H18.2229L18.4208 14.5869L18.0662 14.7431L18.3013 14.8582L17.8312 14.9404L17.9466 15.0184L17.6745 15.3679L17.9466 15.3308L17.5549 15.4459L17.6745 15.6021L17.5549 15.524L17.3611 15.9144H17.5962L17.1261 16.1118L17.3611 16.0707L17.1261 16.2268L17.2415 16.383L17.0478 16.4611L17.0065 16.2679L16.5364 16.7776L16.7715 16.8557L17.0848 16.5803L16.9282 16.9708L16.6148 17.0119L16.5777 16.8146L16.2602 16.8927L16.2231 17.2461L16.0252 17.09L16.1818 17.3243L15.7902 17.09L16.0664 17.2832L15.5551 17.2461L15.753 17.5956L15.6335 17.4394L15.5551 17.5585L15.3984 17.4804L15.4767 17.5956L15.1634 17.4394V17.5956L15.5964 17.7147L15.1634 17.6367L15.048 17.7928L15.2829 17.9079L15.0067 17.8709L15.2046 17.949L15.048 18.1052H15.4397L15.518 17.986L15.6747 18.1833L15.7902 17.986V18.1422L15.5551 18.3395L15.4767 18.1422L14.9696 18.1052L15.1263 18.2614H14.9283L15.0067 18.4176L15.1634 18.3395L14.9283 18.5367L14.9696 18.693L15.1263 18.5367L14.9696 18.8491L15.518 18.5738L14.85 19.0423L14.9283 19.1985L15.2418 19.0834L14.9696 19.3177L15.2046 19.3958L15.0851 19.5109L14.8913 19.3547L14.85 19.6301L15.2046 20.0575H15.5964L16.1035 19.5109L16.3798 19.589L16.5364 19.0834L16.5653 19.7205H16.557L16.5777 20.0616L16.7261 20.0288C16.7261 20.0288 16.7013 20.151 16.6849 20.2302L16.656 20.3329L16.7385 20.2096C16.7725 20.1592 16.8045 20.1069 16.8045 20.1069L16.6973 20.4439L16.6932 20.4521L17.0024 21.1796L16.8498 21.3194L16.8127 21.3481V21.3522L16.8869 21.9359L17.3652 21.9811L17.5921 21.5125L17.9961 21.5824L18.3053 20.7645L18.2889 20.5672L18.2847 20.5302L18.2641 20.1438L18.3218 20.1356H18.4208L18.2971 20.0739L18.2023 20.0205L18.3053 20L18.6146 19.9425L18.627 19.8726L18.6641 19.7329L18.7341 19.9425L18.8373 19.8397L19.0104 19.6835L18.9981 19.6753L19.0063 19.6671L18.9156 19.6137L18.8991 19.6013H18.8949L18.8208 19.5479L18.8373 19.5355L18.8537 19.5274L18.8826 19.5068L19.1259 19.3547L18.9403 19.0588L18.9238 19.03L18.8166 18.8491L18.5403 18.7669L18.7341 17.3736L18.829 17.4558L18.8908 17.5174L19.3897 17.0941L19.398 17.0859L19.5959 16.8927L19.6 16.8804L19.8309 16.5022L19.8268 16.4941L19.7197 15.9679L19.7856 16.009L19.7938 16.0132L19.8722 16.0707L19.8557 15.9268L19.8351 15.7254L19.8846 15.7542L20.0248 15.8405V15.8364H20.0289L20.033 15.8076L20.0371 15.7953V15.787L20.0784 15.6021L20.536 15.6432L20.8123 16.1118L19.7155 17.5134L19.7114 17.5174L19.9093 18.3025L19.8309 18.8491L20.1856 19.0834L20.2144 19.0629L20.2186 19.0588L20.2227 19.0546L20.3381 18.9807L20.3299 19.0546L20.301 19.3177L20.3092 19.3136L21.9874 18.6149L22.0287 18.8491L22.5771 19.0054L21.909 19.1985L21.8719 19.4205V19.4246L21.5173 19.3958L21.4473 19.3875H21.4431L21.1628 19.3547L20.602 19.6177L20.4865 19.6712L20.6103 20.2219L20.8906 20.2302L20.8494 20.859L20.7505 20.9454L20.6308 21.0234L20.4494 20.8179L20.4371 20.8014L20.2639 20.5672L19.9505 20.7234L19.9216 20.8056L19.9093 20.8302L19.9011 20.8549L19.699 21.3481L19.7732 21.8989L19.8021 22.0798L19.8309 22.3264H19.5959L19.7732 21.8989L19.5959 22.2483L19.398 22.3264V22.5237L19.5547 22.4826L19.4104 22.5976H19.4062H19.3815L19.3773 22.6182L19.163 22.7579L19.3609 22.5237L18.9692 22.6798L18.6558 22.3675L17.4766 22.795L17.4394 23.0703L16.891 22.5237L16.1035 22.7168L16.2231 22.4455H15.8685L15.6747 22.0921L15.7902 21.5824L16.3386 21.192L16.0664 20.9988L16.3386 20.411L15.5964 20.6864L15.2418 22.0921L15.3984 22.0551L15.4767 22.2894L15.3201 22.3675L15.7118 22.9141L15.3201 22.6387L15.2046 22.9511L15.048 22.7168H14.7346L14.8129 22.9511L14.2604 22.7579L14.0254 22.9141L14.145 23.2265L13.9099 23.3416L13.7904 22.9141L13.3987 23.4608L13.5966 23.6581H13.1265L13.3987 23.8512L12.3802 23.8923L12.3019 24.3198L12.1452 24.3609L11.5184 24.6322L10.8876 24.1636V24.8664L10.3804 24.7884L10.3021 24.5171H9.59701L9.7908 24.7514L9.59701 24.6733V24.9856L10.3021 25.4172L10.3804 26.079L10.6155 26.2762L10.4588 26.6256L10.4959 26.7078L9.94748 27.8792L7.74978 27.0202L7.55599 26.7448L6.77257 26.864L6.92926 27.4107L6.41796 28.582L5.86957 29.2068H6.1046L5.90668 29.4411L6.14584 29.5603H6.06749L5.75 30.2631L6.69423 30.4974L7.0447 31.4345L7.71267 31.2414L8.73112 31.6318L9.16406 31.2784L9.51454 31.3195L9.71246 30.929L9.94748 30.8508L10.1042 30.8097L10.0258 30.6947L9.91038 30.5385L10.0258 30.185L10.1454 30.1069L10.7309 29.5973L11.7906 29.363V28.7794L12.0256 28.5409L12.3802 28.4629L13.242 28.9725L14.4955 28.3478L15.0851 28.7382L15.3613 29.7165L17.3611 31.3195L17.5962 32.0223L17.2828 32.4909L17.4766 32.5689L17.7528 32.0592L18.0662 31.9442L17.7528 31.5126L17.9466 31.1221L18.3795 31.2003L18.6146 31.5126L18.6929 31.3195L17.5178 30.4563L17.6332 30.222L17.0065 30.0658L16.5777 29.1287L16.0664 28.7013L16.0252 27.9573L16.6148 27.8011L16.6602 27.9861L16.7344 28.4095L17.0437 28.1176L17.5962 29.2438L17.9796 29.3178L18.3218 29.6178L18.3548 29.6918L18.8661 29.9261L19.2 30.3001L19.0392 31.1592L19.3238 31.4921L19.398 31.5907V31.5619L19.7319 32.01L19.934 31.9565L19.7691 32.0922L19.934 32.3593L20.9525 32.4498L20.8041 32.5566L20.066 32.458L19.9505 32.6429L20.2186 33.2677L20.4453 33.1238L20.6103 33.4896L20.6845 33.243L20.9525 33.4403L20.7463 32.8073L21.1133 32.8731L20.8617 32.6018L21.1215 32.4909L21.3565 32.7004L21.373 32.4251L20.6185 32.0592L20.837 31.9401L20.8205 31.7428L20.9937 31.8085L20.6185 31.0852L20.7876 31.0071L21.2617 31.3688L21.1628 31.1345L21.4638 31.2167L21.1215 30.8838L21.7895 30.6988L22.2306 30.7851V30.781L22.5771 30.8508L22.3008 31.2414L22.8904 30.6166L23.5543 30.5385L23.0925 29.9919L22.8904 29.7493L22.742 29.7864L23.2079 29.0835L23.2244 28.6355L23.2409 28.2121L23.311 28.3273L23.3192 28.3478L23.5955 28.1916L23.5171 27.6038L23.579 27.7272V27.7312L23.5955 27.76L23.6491 27.6573L23.8717 27.4107L23.9501 27.0983L24.4201 26.8229L24.6552 27.0202L24.2222 27.0572L24.4573 27.0983L24.3789 27.2134L25.1623 27.1353L25.2036 27.3326L24.7706 27.6819L25.0469 27.6038L25.2036 28.1135L25.4798 28.1505L26.4983 27.3326L26.0282 27.4888H25.7931L25.5169 27.2134L25.752 26.7859L25.7149 27.0572L26.0282 26.6256L27.2817 25.9227L27.125 26.3544L26.7704 26.4324L27.0466 26.6297L26.8488 27.2134L26.4983 27.4477L28.1434 28.0724L28.8898 28.3067L29.0671 28.6108H29.0877L29.3845 28.5615L29.632 28.6108L29.8629 28.5122L30.0113 28.4793L30.6091 28.4629L30.8896 28.6108H31.0545L31.2689 28.7588L31.7183 28.8738L31.8338 28.841L31.9822 28.7752L32.4605 28.7588L32.7656 28.8821L32.6955 28.4629L33.0089 28.1505H32.5759L31.4792 27.3696L31.2441 26.7037L31.2029 26.9421L30.6958 26.4324L30.7329 25.6885L31.2441 25.4172L31.2813 24.9076L31.8297 24.2828L31.9822 24.2294V24.0937L31.8502 23.9293L31.7018 23.7978L31.6359 23.5142L31.5369 23.1361L30.939 22.6264L30.8071 22.2113V22.0304L31.0875 21.7674L31.3019 21.6194L31.5204 21.4386L31.8173 21.2084L32.1966 21.0769L32.543 20.9946L32.7409 20.8755L33.0419 20.859L33.1573 20.7275L33.2727 20.6947L33.3223 20.8097L33.5037 20.8426L33.6851 20.7111L33.7511 20.7933L33.7717 20.6823L33.5944 20.3329L33.7717 20.6782L33.8006 20.5138L33.9655 20.5467L34.1634 20.3493L34.25 20.2343L34.1139 19.9384L34.0314 19.889L33.9325 20.0041L33.8006 19.9384L33.6521 20.0205L33.5862 19.9548L33.4377 19.9384L33.4542 19.7904L32.9924 19.6588L32.7903 19.6424L32.7244 19.5766V19.5068L32.5924 19.3752L32.543 18.7833L32.4605 18.6683L32.2791 18.6519L32.1637 18.7505L32.0316 19.03L31.9162 19.2273H31.7843L31.7183 19.2766L31.1534 19.0135L31.005 18.8656L31.0545 18.7011L31.438 18.3395L31.5369 18.023L31.438 17.8092L31.2854 17.7435H31.005L30.84 17.612L30.8071 17.2174L30.8896 16.9872L30.5597 16.1118L30.3453 15.5364L30.0978 15.0883L29.9618 14.9568V14.7924L29.9948 14.7266L29.0382 13.4073L29.2361 12.614L29.3845 11.7426L29.3021 11.0973L29.2196 11.048L28.7042 10.6452L28.3826 10.6L28.498 10.5589ZM26.8116 10.7932L26.9312 11.0275H26.9683H27.2817L27.2446 10.8713L27.2034 10.8343H27.125L26.8116 10.7932ZM9.75369 12.203L9.63412 12.5935L9.59701 12.2811L9.4362 12.5524L9.32075 12.3592L9.27951 12.5524L9.12283 12.4373L9.63412 12.8647H9.35785L9.47743 13.062L8.96614 12.7867L9.32075 13.4525L8.8507 13.5306L9.20118 13.6867L9.35785 13.9991L9.51454 14.3115L10.0258 14.3526L10.6155 14.3896L11.0855 14.1964L11.0072 14.0402L11.201 14.1184L11.1638 13.3744L11.3989 13.2963L11.1226 13.3374L11.0855 13.0209L10.8876 13.2182L10.5742 12.9839L10.4175 13.2593L10.4588 12.9058L10.1825 13.062L10.1454 12.8647L10.1042 12.7497L9.67535 13.1032L9.91038 12.6715L9.75369 12.203ZM25.4385 12.203L25.3602 12.5154L25.5953 12.6304L25.752 12.3181L25.4385 12.203ZM26.7704 12.4373L26.5766 12.9428L27.2034 14.0772L27.6363 13.806L27.7517 13.1401L27.6734 13.8429L27.2034 14.0772L26.5354 12.9428L26.7704 12.4373ZM28.3414 12.4373L28.3826 12.5154H28.3785L28.3414 12.4373ZM18.8496 13.4155L18.6929 13.7278L18.9692 13.4936L18.8496 13.4155ZM21.3195 13.4155L21.2411 13.7649H20.969L21.3195 13.4155ZM18.3424 13.7278L18.1445 13.921L18.26 13.9991L18.3424 13.7278ZM18.4208 13.7649L18.26 14.1553L18.4579 13.9991L18.4208 13.7649ZM22.3792 13.8841L22.4987 14.3526L22.342 14.4677L22.3792 13.8841ZM20.8123 14.2334H21.2411L21.1628 14.3896L20.8123 14.2334ZM22.1441 15.2116L22.2225 15.4089L22.0287 15.3308L22.1441 15.2116ZM25.0881 16.0337L25.4015 16.383L26.4199 16.6995V16.7365L25.4015 16.383L25.0881 16.0707V16.0337ZM21.204 16.3461L21.5957 16.5803L21.2411 16.5433L21.204 16.3461ZM23.2822 16.4611L23.6368 16.6584H23.4388L23.5171 17.0119L23.2822 16.4611ZM29.8711 16.4611L30.2999 16.9708L30.2216 17.205L30.2916 17.2503L30.2999 17.2461L30.3494 17.2832L30.4195 17.3243L30.6174 17.2461L30.4978 17.3613L30.7329 17.5585L30.3494 17.2832L30.2916 17.2503L30.0648 17.3243L30.2216 17.09H29.9865L30.0648 16.8146L29.8711 16.4611ZM23.1254 16.7365L23.2822 16.8927H23.0842L23.1254 16.7365ZM21.2824 16.9338L21.9503 17.5956L21.6328 17.4024L21.6741 17.7147H22.0657L22.0287 17.4394L22.2225 17.5174V17.8874L22.1977 17.9326L21.8307 18.2614L21.9998 18.2984L21.9916 18.3107L21.7111 18.3806L21.5173 18.1052L21.7524 18.1833L21.9874 17.949L21.4762 17.5956L21.5544 17.3243L21.2824 16.9338ZM23.48 17.0489L23.8717 17.2461L24.2222 17.949L24.1068 18.1833L23.7934 18.1422L23.9872 18.0271L23.5171 17.6736L23.3192 17.2832L23.5955 17.5585L23.4388 17.205L23.715 17.5174L23.8305 17.3613L23.48 17.0489ZM21.0473 17.2461L21.1257 17.6736L21.1628 17.3613L21.3195 17.5174L21.204 17.3243L21.3978 17.4024L21.0473 17.949V18.3806L21.2824 18.2614L21.204 18.5738L20.9277 18.2614L21.0844 17.7147L21.0473 17.4024L20.8906 17.3243L21.0473 17.2461ZM22.0657 17.7517L21.909 17.8298L22.0287 17.949L22.107 17.7517H22.0657ZM20.4577 17.8298H20.7711V18.0271L20.4989 18.1052V18.3806L20.7711 18.1052L20.5773 18.4176L20.7339 18.5738L20.4989 18.3806V18.4176L20.4577 17.8298ZM22.5771 17.9079L23.2822 18.4587L22.8904 19.0054L22.3008 18.2614L22.5771 17.9079ZM30.4607 17.949L30.5391 18.0271L30.2216 18.4587L30.4607 17.949ZM24.7706 18.3395L24.849 18.4587L24.6139 18.4956L24.7706 18.3395ZM11.2422 18.5738L10.8876 18.808L10.8505 18.9273L11.0443 18.8862L11.2422 18.5738ZM11.6339 18.6519L11.4401 19.1204L11.201 19.0054L11.1638 19.4739L10.8505 19.589L11.201 19.7451L10.6526 20.4521L10.9288 20.2179L11.1638 20.0616L11.201 20.2959L11.0855 20.2179L10.7721 20.8014L10.8092 20.9577L10.8505 20.8426L11.4772 20.9577L11.1638 21.192L11.2422 21.5044L11.3989 21.4262L11.1638 21.8208L11.2834 21.977L10.7309 21.8578L10.4588 22.0551H10.7309L10.6938 22.2894L10.0671 22.5237L10.6526 23.0292L11.0855 22.9141L10.7309 23.1854L10.3021 23.0292L9.55578 23.4978L10.3392 23.6581L10.4959 23.4197L11.7535 23.7732L12.339 23.695L12.3802 23.58L11.9885 23.3827H12.2235L12.6523 22.9511L12.574 22.6387L12.1452 22.5237H12.1039L12.2235 22.1702V22.1332L12.1823 22.0551L11.9885 21.977L12.2606 22.014L12.3019 21.8208L11.9885 21.4262L11.9473 20.5302L11.4401 20.2179L11.8689 20.2959L11.6339 20.1397L11.9473 20.0986L12.3802 19.589L11.5556 19.3547L12.2235 18.8491L11.6339 18.6519ZM25.1252 18.9273L24.9273 19.0834L25.084 19.1204L25.4385 19.3177L25.3231 19.6671L24.7706 19.3547L25.1252 19.3958L24.849 19.0423L25.1252 18.9273ZM10.9288 19.0423L10.9659 19.4739L11.0443 19.3177L10.9288 19.0423ZM26.9683 19.3177L27.0096 20.0616L26.7704 19.5109L26.9683 19.3177ZM29.7515 19.3958L29.8299 19.5109L29.9494 19.3958L29.2815 20.2549V20.411L29.2444 20.6453L29.4382 20.8014L29.6732 20.5672L29.5948 20.9988L29.9082 20.9577L29.5948 21.2331L29.6732 21.0769L29.2031 20.7645L29.2815 20.0986L29.1248 19.9425L28.5764 19.7451L28.1434 19.7863L27.8466 19.9959L27.6363 20.1767L27.6074 20.1685L27.595 20.1767L27.125 19.9836L27.6074 20.1685L27.8466 19.9959L28.1434 19.7451L28.6135 19.7082L29.1248 19.9425L29.2444 20.0205L29.2031 19.8232L29.401 19.9014L29.7515 19.589V19.3958ZM17.2415 19.5109L17.5549 19.552L17.4394 19.9014L16.9282 20.0986L17.0065 19.7451L17.2415 19.7863V19.5109ZM10.8876 19.7082L10.6938 19.8644H10.9288L10.8876 19.7082ZM21.8307 19.7451V20.0986L21.5957 19.8232L21.8307 19.7451ZM20.1856 19.8232L20.066 19.8644L20.1856 20.0205L20.3794 19.9014L20.1856 19.8232ZM23.0058 19.8644L23.2038 20.0205L22.8904 20.0616L23.0058 19.8644ZM32.9676 20.0986L33.2027 20.2549L33.046 20.411L32.9676 20.0986ZM19.9876 20.1397L20.066 20.4891L20.4577 20.1397H19.9876ZM9.94748 20.2179L9.55578 20.411L9.7908 20.5302L9.55578 20.7234L9.04449 20.4891L9.12283 20.8014L8.80946 20.9207L9.20118 21.2331L8.69401 21.4673L9.12283 21.5824L8.45898 21.5455L8.65278 21.7016L8.38064 21.7797L8.65278 21.8989L8.38064 21.9359L8.65278 21.977L8.45898 22.0921L9.16406 22.1332L9.83203 22.1702L10.1825 21.1138L10.5742 20.9988L10.5371 20.4521H10.1042L10.3021 20.374L10.1825 20.2179L9.98872 20.411L9.94748 20.2179ZM19.0846 20.4891L18.7713 20.7234L18.8125 21.0358L19.0846 20.4891ZM15.753 20.7234L16.0252 20.8014L15.7902 20.8426L15.8314 21.0769L15.753 20.8796L15.5551 20.9988L15.753 20.7234ZM16.7715 21.4673L16.656 21.7427L16.5777 21.5044L16.2602 21.6235L16.5364 22.4044V22.1332L16.8498 21.7797L16.7715 21.4673ZM15.9468 21.7016L15.8685 21.9359L16.1448 22.014V21.7016H15.9468ZM29.2815 22.2483L29.0464 22.6881L29.1207 23.0457L29.1289 23.0744L29.4382 23.3046L29.2031 23.5019V23.5389L29.1248 24.5171L29.166 23.5389L29.2031 23.2635L29.1289 23.0744L29.1248 23.0703L29.1207 23.0457L29.0093 22.7579L29.0464 22.6881V22.6798L29.2815 22.2483ZM17.1632 22.4455L16.9694 22.5606L17.1632 22.6387V22.4455ZM26.8116 23.0292L26.8529 23.1073L26.8899 23.2265L26.8488 23.1073L26.8116 23.0292ZM30.1061 23.1484L30.0278 23.1895L29.9082 23.2265L30.0278 23.1854L30.1061 23.1484ZM28.5764 24.0855L28.8115 24.2417V24.5541L28.7331 25.2199L28.3785 25.4172L28.3414 25.1418H28.5764L28.498 24.7514L28.6959 24.7103L28.7743 24.3609L28.5764 24.0855ZM23.9088 24.9856L23.7934 25.0267H23.5584L23.4388 25.0638L23.5584 25.0227H23.7934L23.9088 24.9856ZM11.4401 25.0638L11.3618 25.2199V25.298L11.3205 25.3762L11.3576 25.298V25.2199L11.4401 25.0638ZM23.3192 25.0638L23.2409 25.1049H23.0058L22.8904 25.1418L23.0058 25.1007H23.2409L23.3192 25.0638ZM23.9088 25.1007L25.3602 25.6515L25.5582 25.5323L25.7149 26.2351L25.2036 26.3544L25.1252 26.7037L24.6923 26.938L25.0469 26.7037L25.1252 26.2762L25.5582 26.1982V25.7666L23.9088 25.1007ZM22.6554 25.1418L22.5771 25.183H22.342L22.2225 25.2199L22.342 25.1788H22.5771L22.6554 25.1418ZM11.3205 25.4542L11.2834 25.5323V25.6515L11.201 25.8077L11.2793 25.6515V25.5323L11.3205 25.4542ZM31.3224 28.4629L31.5946 28.5409L31.2441 28.582L31.3224 28.4629ZM14.6521 29.2479L14.2233 29.5603L14.3388 30.1069L14.6521 29.7945V29.2479ZM14.4583 30.2631L13.9471 30.3823L13.9099 31.5537L14.4955 31.4345L14.6521 30.7317L14.4583 30.2631ZM11.5968 30.4604L11.1638 30.5755L11.3989 30.8097L11.6751 30.6536L11.5968 30.4604ZM20.969 31.9442L20.7711 32.0223L21.5173 32.4909L21.3978 32.1414L20.969 31.9442ZM19.6743 32.2977L19.5547 32.4538L19.7897 32.4909L19.6743 32.2977ZM17.2828 32.3347L15.753 32.3757L15.8314 32.647L16.9282 33.2348L17.2828 32.3347ZM21.204 33.9007V34.1349L21.7936 34.25L22.4987 34.1719L22.5771 33.9787L22.3008 34.1349L21.204 33.9007ZM16.6643 33.9048L16.7096 34.0609L16.8705 34.0773L16.854 33.9212L16.6643 33.9048Z" fill="#0C0C0D" fill-opacity="0.88"/>
</svg>
