<svg width="40" height="40" viewBox="0 0 40 40" fill="none" xmlns="http://www.w3.org/2000/svg">
<rect width="40" height="40" rx="8" fill="#907F6F" fill-opacity="0.1"/>
<path d="M11.5769 13.8558L11.992 14.3584L13.1282 14.2054L13.5215 14.5332L14.4392 15.4072L15.1384 16.0408L15.5317 16.0189L16.2309 16.303L16.0998 16.6963L16.9738 16.7619L17.826 17.3299L17.6511 17.6577L16.8208 17.8325L15.9906 17.8981L15.1821 17.7888L13.4122 17.9199L14.33 17.1552L13.8711 16.7837L13.0845 16.6963L12.7131 16.2811L12.5382 15.4945L11.8391 15.5383L10.7466 15.1668L10.4188 14.8609L8.86746 14.6424L8.47414 14.3802L8.97671 14.0306L7.7968 13.9651L6.83539 14.6861L6.33285 14.7079L6.11434 15.0576L5.50255 15.2105L5 15.0576L5.6992 14.6424L6.02695 14.118L6.61689 13.8121L7.2724 13.5499L8.21196 13.4188L8.51785 13.244L9.54481 13.3533L10.5062 13.3751L11.5769 13.8558Z" fill="#0C0C0D" fill-opacity="0.88"/>
<path d="M20.5134 20.4761L20.5789 20.0828L20.2949 19.6677L20.6227 19.4273L20.7756 18.8811L20.7538 18.1381L20.9285 17.8978H21.8681L22.5673 18.2474L22.895 18.2256L23.048 18.7281L23.7253 18.6844L23.638 19.0996L24.1842 19.1651L24.7304 19.6677L24.2279 20.2357L23.6598 19.9299L23.0917 19.9954L22.6984 19.9299L22.4581 20.1921L21.9773 20.2795L21.8244 19.9299L21.4093 20.1265L20.8193 21.0879L20.5352 20.8694L20.5134 20.4761Z" fill="#0C0C0D" fill-opacity="0.88"/>
<path d="M20.754 18.1383L20.7758 18.8812L20.6229 19.4274L20.2951 19.6678L20.5792 20.0829L20.5136 20.4762L19.727 20.2359L19.1371 20.3233L18.3942 20.2359L17.8042 20.4981L17.1924 20.0611L17.3454 19.6023L18.4597 19.7989L19.3556 19.9082L19.8363 19.6023L19.3337 18.9905L19.4212 18.4442L18.6564 18.2257L18.9841 17.8542L19.727 17.898L20.754 18.1383Z" fill="#0C0C0D" fill-opacity="0.88"/>
<path d="M14.1337 20.7167L13.7404 20.9571L13.0849 20.7167L12.4512 20.2141L12.626 19.8864L13.1504 19.799L13.4344 19.8427L14.2429 19.9738L14.8328 20.3016L15.0076 20.6949L14.1337 20.7167Z" fill="#0C0C0D" fill-opacity="0.88"/>
<path d="M22.0867 28.3421L21.9774 28.2984L21.8682 28.1892L21.8901 28.0581L21.9337 28.1237L22.0212 28.211L22.0867 28.3203V28.3421Z" fill="#0C0C0D" fill-opacity="0.88"/>
<path d="M31.1111 20.2359H31.0674L31.1329 20.1486H31.1985L31.1548 20.2141L31.1111 20.2359Z" fill="#0C0C0D" fill-opacity="0.88"/>
<path d="M32.5309 21.7654L32.662 21.8309L32.6183 21.8965H32.5746L32.4217 21.9184L32.3779 21.8965V21.7873L32.4435 21.7654L32.4654 21.6998H32.509L32.5309 21.7654Z" fill="#0C0C0D" fill-opacity="0.88"/>
<path d="M32.531 20.9568H32.5748L32.6184 21.0005L32.6403 21.0879L32.6184 21.1535L32.5748 21.1753L32.5529 21.1316L32.4873 21.0879V20.9787L32.531 20.9568Z" fill="#0C0C0D" fill-opacity="0.88"/>
<path d="M19.3557 16.1064L19.2683 16.2157L19.2246 16.3249L19.0935 16.3904H18.9842L18.9624 16.3686L18.875 16.4123L18.7658 16.4342L18.6347 16.3904L18.5473 16.4123L18.5254 16.3031L18.5909 16.2593L18.6347 16.1938L18.722 16.1501L18.7876 16.0627H18.875L18.9405 16.019L18.9842 16.0846L19.0935 16.1282L19.2028 16.0846L19.3557 15.866H19.4213V15.9098L19.3557 16.1064Z" fill="#0C0C0D" fill-opacity="0.88"/>
<path d="M19.3991 15.7349L19.3555 15.6038L19.4866 15.5383L19.5521 15.6038V15.6475L19.4866 15.6694L19.3991 15.7349Z" fill="#0C0C0D" fill-opacity="0.88"/>
<path d="M19.4868 14.3145L19.5305 14.2927L19.6397 14.3582H19.7272L19.8145 14.38L19.8801 14.4238V14.4893L19.8364 14.5111L19.7272 14.4238H19.6397L19.6179 14.4019L19.5086 14.4456L19.3994 14.4019V14.38L19.4431 14.2708L19.4868 14.3145Z" fill="#0C0C0D" fill-opacity="0.88"/>
<path d="M18.6344 13.9213L18.5907 14.0087V14.1616L18.5689 14.249L18.4815 14.3146L18.4378 14.402L18.3504 14.4676L18.1974 14.5331L18.1756 14.5768L18.1318 14.5331L18.1537 14.4894L18.2411 14.4676L18.2848 14.4238V14.3801L18.3722 14.3583L18.4159 14.2709L18.5033 14.249L18.5689 14.1616L18.5251 14.0961H18.4378L18.394 14.0524L18.4815 13.9432L18.5033 13.9213H18.6344Z" fill="#0C0C0D" fill-opacity="0.88"/>
<path d="M18.2191 13.8556L18.241 13.8774H18.3284L18.4158 13.9211L18.3284 14.0085L18.3066 13.9648H18.2628L18.1755 13.9429L18.088 13.8993L18.0225 13.7682L18.088 13.7463L18.1755 13.7682L18.2191 13.8556Z" fill="#0C0C0D" fill-opacity="0.88"/>
<path d="M16.2091 12.5668L16.3402 12.7197L16.4058 12.7634L16.4713 12.8727L16.4058 12.8508L16.3839 12.8071L16.3184 12.7852L16.231 12.6979L16.1873 12.676L16.1436 12.5886L16.2091 12.5668Z" fill="#0C0C0D" fill-opacity="0.88"/>
<path d="M17.0179 12.5668L17.0835 12.6979L17.1272 12.8071V12.8945L17.1709 12.9382L17.2146 13.0912V13.2878L17.2583 13.3534L17.3676 13.3971L17.4549 13.5282V13.7029L17.3676 13.55V13.5063L17.302 13.4189L17.1709 13.3752L17.2146 13.3315L17.149 13.266V13.2004L17.1927 13.1349L17.1709 13.0256L17.1054 12.9382L17.1272 12.9163L17.0616 12.829L17.0398 12.6979L16.9961 12.7197L17.0179 12.5668Z" fill="#0C0C0D" fill-opacity="0.88"/>
<path d="M17.651 12.5665L17.5854 12.6103L17.5199 12.5884L17.498 12.5447L17.6291 12.501L17.651 12.5665Z" fill="#0C0C0D" fill-opacity="0.88"/>
<path d="M15.8598 12.1514L15.838 12.1295L15.7725 11.9766H15.8161L15.8598 12.1514Z" fill="#0C0C0D" fill-opacity="0.88"/>
<path d="M18.1533 12.0424L18.0659 12.1735H17.9785L18.0222 12.1079L18.0441 11.9768L18.1314 11.9113L18.1533 11.9987V12.0424Z" fill="#0C0C0D" fill-opacity="0.88"/>
<path d="M14.1113 11.7799L14.0458 11.8017L14.0021 11.8672L13.9365 11.8454L14.0676 11.758L14.1113 11.7799Z" fill="#0C0C0D" fill-opacity="0.88"/>
<path d="M14.1556 11.9331L14.243 11.9768L14.2867 11.9331L14.3086 11.8238L14.3523 11.802L14.396 11.9331V12.0423L14.3741 12.1079L14.396 12.239V12.3045L14.3086 12.4793L14.2649 12.5012L14.1775 12.4575L14.2212 12.392L14.3086 12.3482L14.2867 12.3264L14.1556 12.4138L14.1119 12.3701L14.1994 12.3045H14.1119L14.0683 12.3264L14.0245 12.2827V12.1297L14.0464 12.086L13.959 11.9768V11.9331L14.0464 11.8894L14.0683 11.8238L14.1338 11.802L14.1556 11.7583L14.2867 11.6927L14.3086 11.7802L14.1994 11.8676L14.1556 11.9331Z" fill="#0C0C0D" fill-opacity="0.88"/>
<path d="M17.105 11.8016L17.1268 11.9109L17.0831 11.889L16.9739 11.9109L16.8864 11.9327L16.8646 11.889L16.9302 11.8453L17.0175 11.7798V11.7361L16.9302 11.6924L16.8864 11.5613L16.8646 11.4302L16.7772 11.3428V11.2991L16.668 11.1898L16.7335 11.1243L16.8209 11.2117V11.3209L16.8646 11.3865L16.8864 11.4957L16.952 11.605L17.0394 11.6705L17.0613 11.7361L17.105 11.8016Z" fill="#0C0C0D" fill-opacity="0.88"/>
<path d="M14.8543 10.6002L14.9199 10.6439L14.7888 10.7095L14.7232 10.6876L14.6795 10.7313L14.5703 10.7095L14.614 10.6439L14.7014 10.6002H14.8543Z" fill="#0C0C0D" fill-opacity="0.88"/>
<path d="M13.9365 10.4908L14.0239 10.4471L14.0894 10.5127L14.0676 10.5564L14.0894 10.6001L14.0457 10.6875L14.1113 10.753L14.155 10.9497L14.1987 11.0153L14.2861 11.1245L14.2424 11.2774L14.2643 11.4086L14.2205 11.4741L14.155 11.4959L14.0676 11.5833L14.0021 11.627H13.9365L13.871 11.6708H13.8054V11.5833L13.7399 11.5397L13.7617 11.4086L13.6961 11.4741L13.6524 11.4523L13.5213 11.3648L13.4558 11.2993L13.4121 11.2337L13.565 11.1682L13.6743 11.3211L13.6961 11.19L13.6306 11.1682L13.6088 11.1026L13.6306 11.0371L13.7617 10.906L13.8054 10.8186L13.7835 10.7967L13.8491 10.7093V10.6001L13.8054 10.4471L13.8272 10.4253H13.8928L13.9365 10.4908Z" fill="#0C0C0D" fill-opacity="0.88"/>
<path d="M15.7069 9.92255L15.7288 9.96624L15.7943 10.0536L15.9691 10.2066L16.0783 10.2284L16.1002 10.2503L16.1439 10.3377L16.2094 10.4251L16.3187 10.5125V10.5562L16.275 10.731L16.2532 10.7747V10.8402L16.2313 10.9495L16.1876 11.015L16.1658 11.168L16.1439 11.1898L16.1002 11.0587L16.0128 10.9932L16.0347 10.9495L16.1439 10.9713L16.1876 10.9276L16.1658 10.8839L16.1876 10.7965L16.2532 10.7091L16.275 10.5999V10.5343L16.1658 10.4469L16.0783 10.294L16.0128 10.2503L15.8817 10.1847L15.8161 10.1192L15.685 10.0755L15.5977 10.1192L15.685 9.92255H15.7069Z" fill="#0C0C0D" fill-opacity="0.88"/>
<path d="M13.7832 8.28381L13.8925 8.32751H13.9143L14.0673 8.34936L14.1109 8.30565L14.1547 8.32751H14.2639L14.3513 8.28381H14.4387L14.5042 8.2401L14.5261 8.34936L14.5042 8.39306H14.4387H14.3513L14.1109 8.43675H14.0454L13.7176 8.52415L13.5647 8.61156H13.4773L13.4336 8.58971L13.3681 8.52415L13.2588 8.39306L13.3899 8.45861L13.4118 8.50231H13.521L13.6303 8.45861L13.7176 8.32751L13.6521 8.30565L13.6958 8.2401L13.7176 8.17456L13.7832 8.28381Z" fill="#0C0C0D" fill-opacity="0.88"/>
<path d="M14.7235 8L14.8983 8.0437L14.942 8.02185L15.0294 8.0874L15.226 8.3059L15.2698 8.437L15.3571 8.45885L15.5101 8.5681V8.61181L15.4664 8.72106L15.5101 8.874H15.4227L15.3134 8.9614L15.2916 9.0051L15.226 9.2236L15.2042 9.42025L15.1605 9.46396L15.0949 9.42025L15.0731 9.33286L14.9857 9.311L15.0512 9.20176H15.0949L15.2042 9.11435L15.1823 9.02695L15.226 8.93955V8.874L15.2698 8.80845V8.67736L15.3134 8.6555L15.3571 8.58995L15.379 8.5244L15.3134 8.50255L15.2042 8.48071L15.1823 8.41515V8.37145L15.0949 8.32775V8.2622L15.0294 8.10925L14.9857 8.0874L14.9201 8.10925L14.8109 8.0874H14.7454L14.6143 8H14.7235Z" fill="#0C0C0D" fill-opacity="0.88"/>
<path d="M31.3295 20.6946L31.3076 20.629L31.3732 20.6509L31.3295 20.6946Z" fill="#0C0C0D" fill-opacity="0.88"/>
<path d="M34.8912 27.4682L34.7601 27.4245L34.7383 27.3152V27.1405L34.782 27.0531L34.8257 27.0967L34.8694 27.2279L34.9787 27.2934L35.0005 27.3809L34.8912 27.4682Z" fill="#0C0C0D" fill-opacity="0.88"/>
<path d="M23.4192 28.8887H23.3536L23.2662 28.8231L23.2007 28.8013L23.1351 28.7358L23.1133 28.692L23.0478 28.6702L23.004 28.5828L22.9385 28.5173L22.9603 28.408L23.0696 28.4736L23.0914 28.5828L23.1789 28.6702L23.3318 28.7139L23.3755 28.7795L23.4411 28.8669L23.4192 28.8887Z" fill="#0C0C0D" fill-opacity="0.88"/>
<path d="M8.93335 18.6846L8.9989 18.7064L9.0426 18.619L9.12999 18.6408H9.23925L9.2611 18.6846L9.2174 18.7283L9.1737 18.7064L9.08631 18.7283L9.0426 18.7501H8.88965L8.93335 18.6846Z" fill="#0C0C0D" fill-opacity="0.88"/>
<path d="M10.7028 18.1385L10.5498 18.204L10.5935 18.1385H10.7028Z" fill="#0C0C0D" fill-opacity="0.88"/>
<path d="M10.8344 18.1602L10.8125 18.1384L10.9873 18.0728L10.9436 18.1384L10.8344 18.1602Z" fill="#0C0C0D" fill-opacity="0.88"/>
<path d="M32.8153 23.9068L32.9246 23.9286L32.9683 24.0379V24.169L32.9464 24.3437L32.9246 24.3874L32.8809 24.4093L32.7935 24.453L32.8153 24.3656L32.7935 24.3219L32.7716 24.169L32.7061 24.0597V23.9941L32.728 23.9286V23.863H32.7716L32.8153 23.9068Z" fill="#0C0C0D" fill-opacity="0.88"/>
<path d="M32.2037 28.8887L32.1163 28.9543L32.0726 28.9325L32.0508 28.8232L32.0944 28.714L32.16 28.6265H32.2255L32.2474 28.6921L32.2255 28.845L32.2037 28.8887Z" fill="#0C0C0D" fill-opacity="0.88"/>
<path d="M31.5698 21.7874H31.5042L31.4824 21.7437L31.5261 21.6563H31.5698L31.5916 21.7L31.5698 21.7874Z" fill="#0C0C0D" fill-opacity="0.88"/>
<path d="M31.4164 21.4595L31.3946 21.525H31.3508L31.2635 21.4814L31.2197 21.4377L31.2853 21.3503L31.3946 21.4377L31.4164 21.4595Z" fill="#0C0C0D" fill-opacity="0.88"/>
<path d="M33.1861 26.5507L33.1424 26.5071L33.055 26.4634L33.0332 26.4196V26.2885L33.055 26.2449L33.208 26.0045L33.2735 26.0482V26.2012L33.2517 26.376L33.2299 26.4634L33.1861 26.5507Z" fill="#0C0C0D" fill-opacity="0.88"/>
<path d="M31.1108 20.4763L31.0234 20.4544L31.0671 20.3889L31.1326 20.3671L31.1108 20.4763Z" fill="#0C0C0D" fill-opacity="0.88"/>
<path d="M31.9845 22.2025L32.0282 22.2899V22.3554L31.9845 22.3992L31.9408 22.3773L31.9189 22.3118L31.9845 22.2025Z" fill="#0C0C0D" fill-opacity="0.88"/>
<path d="M25.1896 20.4544L25.124 20.4108L25.1459 20.3671H25.2115L25.2333 20.3889L25.1896 20.4544Z" fill="#0C0C0D" fill-opacity="0.88"/>
<path d="M28.3792 20.345H28.3356L28.1389 20.4105H28.0078L28.0515 20.3668L28.1389 20.3232L28.2263 20.3013L28.3574 20.3232L28.3792 20.345Z" fill="#0C0C0D" fill-opacity="0.88"/>
<path d="M26.3033 19.8208L26.4344 19.8427H26.5655L26.6311 19.8646L26.7622 19.8427L26.8277 19.8646L26.9151 19.8427L26.9588 19.8646L27.0681 19.8427L27.1555 19.8646H27.221L27.3959 19.9083V19.8646L27.527 19.9083L27.5488 19.8864L27.7236 19.9083L27.7673 19.9519H27.811L27.9421 20.0175L27.9858 19.9957L27.9639 20.1486L28.0076 20.2141L27.811 20.2797L27.7454 20.3671L27.6799 20.4982L27.6143 20.5419L27.5488 20.5638H27.4614L27.3303 20.5856L27.2648 20.6293L27.1118 20.6074L27.0681 20.5638L26.9588 20.6074L26.8933 20.5419L26.7404 20.5856L26.5437 20.5638L26.4782 20.5856L26.3471 20.6074L26.3033 20.6293L26.2596 20.5856L26.1722 20.5638L26.1067 20.6074L25.9756 20.5856L26.0411 20.4327V20.3452L26.0849 20.2579L26.0411 20.1268L25.9974 20.1049L25.9756 20.0175L26.063 19.9738L26.1067 19.9519V19.8427L26.1941 19.799L26.3033 19.8208Z" fill="#0C0C0D" fill-opacity="0.88"/>
<path d="M31.1108 20.4764V20.4983L31.0234 20.4764V20.4545L31.1108 20.4764Z" fill="#0C0C0D" fill-opacity="0.88"/>
<path d="M20.951 15.1448H21.104L21.1694 15.2322H21.104L21.0383 15.2103L20.9291 15.2322L20.9072 15.1666L20.951 15.1448Z" fill="#0C0C0D" fill-opacity="0.88"/>
<path d="M20.3605 15.123L20.426 15.2104L20.5571 15.1886L20.5134 15.2322H20.3823L20.2949 15.1886L20.3605 15.123Z" fill="#0C0C0D" fill-opacity="0.88"/>
<path d="M20.8411 14.9921V15.1013L20.7319 15.0577L20.71 14.9921L20.7319 14.9702L20.8411 14.9921Z" fill="#0C0C0D" fill-opacity="0.88"/>
<path d="M32.9893 30.5708L32.9456 30.6801L32.8801 30.7675L32.8364 30.7894L32.8145 30.8767L32.8583 31.0078L32.8145 31.0297V31.1827L32.8583 31.2481L32.9019 31.2919L32.8583 31.3356L32.8364 31.4011V31.5541L32.7927 31.5759L32.7053 31.6196L32.5961 31.6415H32.5305L32.4212 31.6633L32.312 31.6415L32.2246 31.6633L32.159 31.6415L32.0498 31.6852L31.9624 31.6415H31.8313L31.7657 31.6852L31.7002 31.6633L31.8095 31.6196L31.875 31.5541L31.9624 31.5322L32.0498 31.4667L32.0935 31.4011L32.2246 31.423L32.2901 31.3356L32.2464 31.1608L32.2901 31.0734V30.9641V30.9204L32.2246 30.833L32.159 30.8112L32.0716 30.7894L32.0498 30.7675L32.1372 30.7019L32.3775 30.6801L32.4212 30.6364H32.6615L32.6834 30.6145L32.9456 30.5708H32.9893Z" fill="#0C0C0D" fill-opacity="0.88"/>
<path d="M33.5138 29.8718L33.4919 29.981L33.4264 30.0029L33.339 30.0685H33.2953L33.1424 30.1559L33.0986 30.1121L33.1642 30.0466L33.3171 29.9374L33.5138 29.8718Z" fill="#0C0C0D" fill-opacity="0.88"/>
<path d="M32.8586 27.3372L32.8368 27.3591L32.7275 27.2935V27.2061L32.7713 27.1405L32.815 27.0313H32.9024L32.9242 27.1187L32.9024 27.2935L32.8586 27.3372Z" fill="#0C0C0D" fill-opacity="0.88"/>
<path d="M29.3412 19.9084L29.2537 19.9521H29.2319L29.1664 19.9958L29.1445 19.9739L29.1664 19.9084L29.2975 19.8865L29.3412 19.9084Z" fill="#0C0C0D" fill-opacity="0.88"/>
<path d="M28.9916 20.8695L29.0571 20.935L28.8167 20.9787L28.7949 20.8695L28.9478 20.8258L28.9916 20.8695Z" fill="#0C0C0D" fill-opacity="0.88"/>
<path d="M29.1441 20.0394L29.1005 20.0831H28.9912V20.0394L29.0568 20.0176L29.1441 20.0394Z" fill="#0C0C0D" fill-opacity="0.88"/>
<path d="M28.8381 19.9957L28.9255 20.0613L28.8818 20.105L28.8162 20.0613H28.707L28.7508 20.0176L28.8381 19.9957Z" fill="#0C0C0D" fill-opacity="0.88"/>
<path d="M24.075 28.9105H24.0313L24.0094 28.8013L24.0313 28.7358L24.0094 28.6702L23.922 28.6483L23.8564 28.5828L23.8783 28.5172L24.1405 28.6483L24.1186 28.692V28.7794L24.075 28.8231V28.9105Z" fill="#0C0C0D" fill-opacity="0.88"/>
<path d="M31.1326 21.2629L31.0889 21.2848V21.2411L31.1108 21.2193L31.1326 21.2629Z" fill="#0C0C0D" fill-opacity="0.88"/>
<path d="M30.805 21.0662H30.7832L30.805 21.0225L30.8269 21.0444L30.805 21.0662Z" fill="#0C0C0D" fill-opacity="0.88"/>
<path d="M33.2522 25.0431V25.0868L33.3397 25.065L33.2959 25.1742L33.3397 25.2179V25.2616L33.3833 25.3053L33.427 25.5019L33.3615 25.5675L33.3397 25.4801L33.3178 25.5019L33.1867 25.4801H33.0993L33.0556 25.4146L33.1867 25.3053H33.0993L33.0118 25.2179L32.99 25.1086L32.9463 24.9994L33.0118 24.912L33.0993 24.9339L33.2085 24.9994L33.2522 25.0431Z" fill="#0C0C0D" fill-opacity="0.88"/>
<path d="M33.033 23.5134H32.9675L32.9238 23.426L32.9457 23.3823L33.0112 23.3168L33.0768 23.3604L33.0986 23.426V23.4697L33.033 23.5134Z" fill="#0C0C0D" fill-opacity="0.88"/>
<path d="M32.6398 22.9455H32.7053V22.9892V23.0111L32.6616 23.033V23.2077V23.2952L32.6179 23.3389L32.4868 23.4044V23.3607L32.4431 23.317L32.4212 23.2077V23.0985L32.3994 22.9892V22.9237L32.4431 22.8581L32.5087 22.8363L32.6179 22.9019L32.6398 22.9455Z" fill="#0C0C0D" fill-opacity="0.88"/>
<path d="M32.9464 22.8581L33.0338 22.88L33.1431 22.9674L32.8591 23.0329L32.7935 23.0547L32.7061 22.9892L32.728 22.8581L32.7716 22.8363L32.7498 22.7052L32.7716 22.6614L32.8372 22.6178L32.9027 22.7052V22.7925L32.9464 22.8581Z" fill="#0C0C0D" fill-opacity="0.88"/>
</svg>
