<svg width="32" height="32" viewBox="0 0 32 32" fill="none" xmlns="http://www.w3.org/2000/svg">
<path fill-rule="evenodd" clip-rule="evenodd" d="M19.3732 0.799805L19.206 0.966405L19.3336 1.09355L19.3732 1.133V0.799805ZM19.3732 1.2163L19.1225 1.30399L19.3336 1.42674L19.3732 1.2163ZM18.4144 1.34344L18.2868 1.88708L18.5376 1.55388L18.4144 1.34344ZM21.7174 2.05368L21.6338 2.67624L21.216 3.00944V3.21988L21.0049 3.96958L21.3392 4.18002L21.2556 4.55268H21.5063L21.2556 4.59652L21.172 4.92972L21.5503 4.80257L21.4227 5.09632L21.8449 4.92972L21.5943 4.71928L21.8449 4.63597L21.5943 4.59652L21.8009 4.55268L21.5943 4.38608H21.8009L21.5503 4.13617L21.7614 4.09672L21.7174 3.84682L21.6778 3.46978L22.0516 2.38688L21.7174 2.05368ZM15.3181 2.25974V2.50964H15.107L15.1905 2.75954L15.3576 2.72008L15.5688 2.67624L15.3576 2.88668L15.8195 3.05328L16.1537 2.55348L15.903 2.34304L15.692 2.50964L15.6524 2.25974L15.6084 2.59294L15.3576 2.34304L15.3181 2.25974ZM14.9399 2.55348V3.21988L14.7332 2.67624L14.6496 2.96998L14.4384 2.75954L14.6496 2.63678L14.2713 2.75954L14.4384 3.59692L14.7727 3.26372V3.46978L14.9003 3.34702L15.0234 3.51362L14.4824 3.71968L14.522 3.93012L14.9399 3.80297L14.6056 3.96958L14.8167 4.09672L14.4824 4.01342L14.6892 4.34662L14.9003 4.63597L15.2345 3.51362L15.3576 3.43032L15.5688 3.34702L15.3576 3.09712V3.09274L15.1509 2.80338L15.0674 2.96998L14.9399 2.55348ZM15.5688 3.38648L15.3576 3.46978L15.4852 3.63638L15.5688 3.38648ZM15.7359 3.59692L15.4852 3.71968V4.09672L15.692 4.01342L15.7359 4.21948L15.903 3.96958L15.7359 3.59692ZM21.8449 5.01301L21.5503 5.09632L21.3392 5.30676L21.5107 5.39005L21.3392 5.59612L21.5943 5.51281L21.4667 6.17921L21.6778 6.34581L21.9285 6.13975L22.3024 6.51241L22.9313 6.17921L22.0956 5.80656L21.8449 5.42952V5.01301ZM25.0644 5.92931L23.8505 6.22305V6.47295L24.3123 6.72285L24.1452 6.93329L24.2288 7.13935L23.8505 6.88945L23.7273 7.34979L23.3491 7.59969V7.84959L23.0148 8.0162L22.8873 7.63915L23.0148 7.43309L22.8873 7.51639L22.8037 8.05564L22.6806 7.88905L22.1352 8.64317L22.3464 8.76588L22.0516 8.93244L22.1792 9.349L21.8449 9.51556L21.4667 9.26565L21.7614 8.893L21.6338 8.72645L20.7542 8.64317L21.0884 8.80972L21.6338 10.2258L21.0488 10.0154L20.7982 10.4757L20.6706 10.7695L20.6443 10.8747L20.7982 11.1027L21.0049 11.392H20.8817H20.42L20.3364 11.5586L20.42 11.3525L19.9625 11.2692L19.9185 11.5586L20.42 11.7252L20.3364 12.1023L19.5008 11.8085L19.206 11.2692L19.2896 10.936L18.7487 10.8089L18.9158 10.6861L18.3704 10.3091L20.3364 10.5196L20.5035 10.2258L20.7146 9.72604L20.1824 9.32268L20.1692 9.30949L20.0856 9.2262L18.8718 8.80972L18.498 8.84916L18.4144 9.14292L18.454 8.80972L18.1637 8.84916L18.0801 8.64317H18.3308L18.0801 8.51596L17.913 8.80972L17.6579 8.64317L17.5348 8.80972L17.3236 8.59932L17.2401 8.51596H17.6183L17.7855 8.26612L17.284 8.05564L17.0729 8.3494L17.2005 8.0162L16.9894 7.93289L16.9058 8.3494L16.7827 8.43268V8.05564L16.532 8.64317L16.6156 8.13892L16.3648 8.05564L16.1537 8.72645L15.7403 8.46772L15.7799 8.72645L15.8635 8.893L15.6524 8.72645L15.3576 9.14292L15.3181 9.18236L15.3576 9.09908L15.4412 8.72645L15.3576 8.893L15.2741 9.09908V8.84916L15.107 8.97637L15.2345 9.2262L14.9399 9.05964L14.8167 9.55941L14.522 9.64268L14.8563 9.72604H14.4824V10.0987L14.3988 9.80933L14.1878 9.93204L14.3549 10.0154H14.1042L14.3153 10.2258L13.9371 10.3924L14.1878 10.5152L13.6864 10.6028L13.8096 10.6861L13.5192 11.0588L13.8096 11.0193L13.3917 11.1421L13.5192 11.3087L13.3917 11.2254L13.185 11.6419H13.4357L12.9343 11.8524L13.185 11.8085L12.9343 11.9751L13.0574 12.1417L12.8508 12.225L12.8068 12.0189L12.3053 12.5626L12.556 12.6459L12.8903 12.3521L12.7232 12.7687L12.3889 12.8125L12.3493 12.602L12.0107 12.6853L11.9711 13.0624L11.76 12.8958L11.9271 13.1457L11.5093 12.8958L11.804 13.1019L11.2586 13.0624L11.4697 13.4351L11.3422 13.2684L11.2586 13.3956L11.0915 13.3123L11.175 13.4351L10.8408 13.2684V13.4351L11.3026 13.5622L10.8408 13.4789L10.7176 13.6455L10.9683 13.7683L10.6736 13.7288L10.8848 13.8121L10.7176 13.9787H11.1355L11.219 13.8516L11.3861 14.062L11.5093 13.8516V14.0181L11.2586 14.2286L11.175 14.0181L10.634 13.9787L10.8012 14.1453H10.59L10.6736 14.3119L10.8408 14.2286L10.59 14.439L10.634 14.6056L10.8012 14.439L10.634 14.7722L11.219 14.4785L10.5065 14.9783L10.59 15.1448L10.9244 15.0221L10.634 15.272L10.8848 15.3553L10.7572 15.4781L10.5505 15.3115L10.5065 15.6052L10.8848 16.0612H11.3026L11.8436 15.4781L12.1382 15.5614L12.3053 15.0221L12.3361 15.7016H12.3273L12.3493 16.0656L12.5076 16.0305C12.5076 16.0305 12.4812 16.1608 12.4637 16.2453L12.4329 16.3549L12.5208 16.2234C12.5572 16.1696 12.5912 16.1138 12.5912 16.1138L12.4769 16.4733L12.4725 16.482L12.8024 17.258L12.6396 17.4072L12.6 17.4378V17.4422L12.6792 18.0648L13.1894 18.113L13.4313 17.6132L13.8623 17.6877L14.1921 16.8152L14.1746 16.6048L14.1702 16.5653L14.1482 16.1532L14.2097 16.1444H14.3153L14.1834 16.0787L14.0822 16.0217L14.1921 15.9998L14.522 15.9384L14.5352 15.8639L14.5748 15.7148L14.6496 15.9384L14.7596 15.8288L14.9443 15.6622L14.9311 15.6535L14.9399 15.6447L14.8431 15.5877L14.8255 15.5745H14.8211L14.742 15.5176L14.7596 15.5044L14.7771 15.4956L14.8079 15.4737L15.0674 15.3115L14.8695 14.9958L14.8519 14.9652L14.7376 14.7722L14.4428 14.6845L14.6496 13.1983L14.7508 13.286L14.8167 13.3517L15.3488 12.9002L15.3576 12.8914L15.5688 12.6853L15.5732 12.6722L15.8195 12.2688L15.8151 12.2601L15.7008 11.6989L15.7711 11.7428L15.7799 11.7472L15.8635 11.8085L15.8459 11.6551L15.8239 11.4402L15.8767 11.4709L16.0262 11.563V11.5586H16.0306L16.035 11.528L16.0394 11.5148V11.506L16.0834 11.3087L16.5716 11.3525L16.8662 11.8524L15.6964 13.3474L15.692 13.3517L15.903 14.1892L15.8195 14.7722L16.1977 15.0221L16.2285 15.0002L16.2329 14.9958L16.2373 14.9914L16.3604 14.9125L16.3516 14.9914L16.3208 15.272L16.3296 15.2676L18.1197 14.5224L18.1637 14.7722L18.7487 14.9388L18.0361 15.1448L17.9965 15.3816V15.386L17.6183 15.3553L17.5436 15.3465H17.5392L17.2401 15.3115L16.642 15.592L16.5188 15.6491L16.6508 16.2365L16.9498 16.2453L16.9058 16.9161L16.8003 17.0082L16.6727 17.0915L16.4792 16.8723L16.466 16.8547L16.2813 16.6048L15.947 16.7714L15.9162 16.8591L15.903 16.8854L15.8943 16.9117L15.6788 17.4378L15.7579 18.0253L15.7887 18.2182L15.8195 18.4812H15.5688L15.7579 18.0253L15.5688 18.398L15.3576 18.4812V18.6917L15.5248 18.6479L15.3708 18.7706H15.3664H15.34L15.3356 18.7925L15.107 18.9416L15.3181 18.6917L14.9003 18.8583L14.566 18.5251L13.3081 18.9811L13.2685 19.2748L12.6836 18.6917L11.8436 18.8977L11.9711 18.6084H11.5928L11.3861 18.2313L11.5093 17.6877L12.0943 17.2712L11.804 17.0652L12.0943 16.4382L11.3026 16.732L10.9244 18.2313L11.0915 18.1919L11.175 18.4418L11.0079 18.5251L11.4257 19.1082L11.0079 18.8144L10.8848 19.1476L10.7176 18.8977H10.3834L10.4669 19.1476L9.87757 18.9416L9.62693 19.1082L9.75445 19.4414L9.50373 19.5641L9.3762 19.1082L8.95837 19.6913L9.16949 19.9017H8.66812L8.95837 20.1078L7.87203 20.1516L7.78846 20.6076L7.62133 20.6514L6.95281 20.9408L6.2799 20.441V21.1907L5.73892 21.1074L5.65536 20.818H4.90328L5.10999 21.068L4.90328 20.9846V21.3178L5.65536 21.7782L5.73892 22.484L5.98962 22.6944L5.82249 23.0671L5.86207 23.1548L5.27712 24.4043L2.93291 23.488L2.7262 23.1943L1.89055 23.3214L2.05768 23.9045L1.5123 25.154L0.927349 25.8204H1.17804L0.966933 26.0703L1.22203 26.1974H1.13846L0.799805 26.9472L1.80698 27.197L2.18082 28.1966L2.89332 27.9906L3.97967 28.4071L4.44147 28.03L4.81532 28.0739L5.02643 27.6574L5.27712 27.574L5.44425 27.5302L5.36068 27.4075L5.23754 27.2408L5.36068 26.8638L5.48823 26.7805L6.11277 26.2369L7.24309 25.987V25.3644L7.49379 25.1101L7.87203 25.0268L8.79124 25.5705L10.1283 24.9041L10.7572 25.3206L11.0519 26.364L13.185 28.0739L13.4357 28.8236L13.1014 29.3234L13.3081 29.4067L13.6028 28.863L13.9371 28.7403L13.6028 28.28L13.8096 27.8634L14.2713 27.9468L14.522 28.28L14.6056 28.0739L13.3521 27.1532L13.4752 26.9033L12.8068 26.7367L12.3493 25.7371L11.804 25.2812L11.76 24.4876L12.3889 24.321L12.4373 24.5183L12.5164 24.9699L12.8464 24.6586L13.4357 25.8599L13.8447 25.9388L14.2097 26.2588L14.2449 26.3377L14.7903 26.5876L15.1465 26.9866L14.975 27.9029L15.2785 28.258L15.3576 28.3632V28.3325L15.7139 28.8104L15.9294 28.7534L15.7535 28.8981L15.9294 29.1831L17.0158 29.2796L16.8575 29.3935L16.0702 29.2883L15.947 29.4856L16.2329 30.152L16.4748 29.9985L16.6508 30.3888L16.7299 30.1256L17.0158 30.3361L16.7959 29.6609L17.1873 29.7311L16.919 29.4417L17.1961 29.3234L17.4468 29.5469L17.4644 29.2532L16.6596 28.863L16.8926 28.7359L16.875 28.5255L17.0597 28.5956L16.6596 27.824L16.8399 27.7407L17.3456 28.1265L17.2401 27.8766L17.5612 27.9643L17.1961 27.6092L17.9086 27.4119L18.3792 27.504V27.4996L18.7487 27.574L18.454 27.9906L19.0829 27.3242L19.791 27.2408L19.2984 26.6578L19.0829 26.3991L18.9246 26.4386L19.4216 25.6888L19.4392 25.211L19.4568 24.7594L19.5315 24.8822L19.5403 24.9041L19.835 24.7375L19.7514 24.1105L19.8174 24.2421V24.2464L19.835 24.2772L19.8922 24.1676L20.1296 23.9045L20.2132 23.5713L20.7146 23.2776L20.9653 23.488L20.5035 23.5275L20.7542 23.5713L20.6706 23.694L21.5063 23.6108L21.5503 23.8212L21.0884 24.1939L21.3832 24.1105L21.5503 24.6542L21.8449 24.6936L22.9313 23.8212L22.4299 23.9878H22.1792L21.8845 23.694L22.1352 23.2381L22.0956 23.5275L22.4299 23.0671L23.7669 22.3174L23.5998 22.7778L23.2216 22.8611L23.5162 23.0715L23.3052 23.694L22.9313 23.944L24.6861 24.6104L25.4822 24.8603L25.6713 25.1847H25.6933L26.01 25.132L26.2739 25.1847L26.5202 25.0795L26.6785 25.0444L27.3162 25.0268L27.6153 25.1847H27.7912L28.02 25.3425L28.4993 25.4652L28.6225 25.4302L28.7808 25.36L29.291 25.3425L29.6164 25.474L29.5417 25.0268L29.876 24.6936H29.4141L28.2443 23.8607L27.9936 23.1504L27.9496 23.4047L27.4086 22.8611L27.4482 22.0676L27.9936 21.7782L28.0332 21.2345L28.6181 20.5681L28.7808 20.5112V20.3664L28.64 20.1911L28.4817 20.0508L28.4114 19.7483L28.3058 19.3449L27.6681 18.8013L27.5273 18.3585V18.1656L27.8264 17.885L28.0552 17.7272L28.2882 17.5343L28.6049 17.2888L29.0096 17.1484L29.379 17.0608L29.59 16.9336L29.9112 16.9161L30.0343 16.7758L30.1574 16.7408L30.2102 16.8635L30.4037 16.8985L30.5972 16.7583L30.6676 16.846L30.6896 16.7276L30.5005 16.3549L30.6896 16.7232L30.7204 16.5478L30.8964 16.5829L31.1074 16.3724L31.1998 16.2497L31.0547 15.934L30.9667 15.8814L30.8612 16.0042L30.7204 15.934L30.562 16.0217L30.4917 15.9516L30.3334 15.934L30.3509 15.7762L29.8584 15.6359L29.6428 15.6184L29.5725 15.5482V15.4737L29.4317 15.3334L29.379 14.702L29.291 14.5793L29.0975 14.5618L28.9744 14.667L28.8336 14.9652L28.7104 15.1756H28.5697L28.4993 15.2282L27.8968 14.9476L27.7384 14.7898L27.7912 14.6144L28.2003 14.2286L28.3058 13.891L28.2003 13.663L28.0376 13.5928H27.7384L27.5625 13.4526L27.5273 13.0317L27.6153 12.7862L27.2635 11.8524L27.0348 11.2386L26.7708 10.7607L26.6257 10.6204V10.445L26.6609 10.3748L25.6405 8.96756L25.8516 8.12141L26.01 7.19196L25.922 6.50364L25.834 6.45103L25.2843 6.02138L24.9412 5.97316L25.0644 5.92931ZM23.2656 6.17921L23.3931 6.42911H23.4327H23.7669L23.7273 6.26251L23.6834 6.22305H23.5998L23.2656 6.17921ZM5.07041 7.68299L4.94286 8.09948L4.90328 7.76629L4.73175 8.05564L4.6086 7.84959L4.56462 8.05564L4.39749 7.93289L4.94286 8.38884H4.64818L4.77573 8.59932L4.23036 8.30556L4.6086 9.01581L4.10721 9.09908L4.48106 9.26565L4.64818 9.59885L4.81532 9.93204L5.36068 9.97589L5.98962 10.0154L6.49101 9.80933L6.40744 9.64268L6.61416 9.72604L6.57457 8.93244L6.82527 8.84916L6.53059 8.893L6.49101 8.5554L6.2799 8.76588L5.94564 8.51596L5.77851 8.80972L5.82249 8.43268L5.52781 8.59932L5.48823 8.38884L5.44425 8.26612L4.98684 8.64317L5.23754 8.18276L5.07041 7.68299ZM21.8009 7.68299L21.7174 8.0162L21.9681 8.13892L22.1352 7.80575L21.8009 7.68299ZM23.2216 7.93289L23.0148 8.47212L23.6834 9.6822L24.1452 9.39284L24.2683 8.68261L24.1848 9.43228L23.6834 9.6822L22.9708 8.47212L23.2216 7.93289ZM24.8972 7.93289L24.9412 8.0162H24.9368L24.8972 7.93289ZM14.7727 8.97637L14.6056 9.30949L14.9003 9.05964L14.7727 8.97637ZM17.4072 8.97637L17.3236 9.349H17.0334L17.4072 8.97637ZM14.2317 9.30949L14.0206 9.51556L14.1438 9.59885L14.2317 9.30949ZM14.3153 9.349L14.1438 9.76548L14.3549 9.59885L14.3153 9.349ZM18.5376 9.47612L18.6651 9.97589L18.498 10.0987L18.5376 9.47612ZM16.8662 9.84877H17.3236L17.2401 10.0154L16.8662 9.84877ZM18.2868 10.8922L18.3704 11.1027L18.1637 11.0193L18.2868 10.8922ZM21.4271 11.7691L21.7614 12.1417L22.8477 12.4793V12.5188L21.7614 12.1417L21.4271 11.8085V11.7691ZM17.284 12.1023L17.7019 12.3521L17.3236 12.3127L17.284 12.1023ZM19.5008 12.225L19.879 12.4355H19.6679L19.7514 12.8125L19.5008 12.225ZM26.529 12.225L26.9864 12.7687L26.9028 13.0185L26.9776 13.0668L26.9864 13.0624L27.0392 13.1019L27.114 13.1457L27.325 13.0624L27.1975 13.1852L27.4482 13.3956L27.0392 13.1019L26.9776 13.0668L26.7356 13.1457L26.9028 12.8958H26.6521L26.7356 12.602L26.529 12.225ZM19.3336 12.5188L19.5008 12.6853H19.2896L19.3336 12.5188ZM17.3676 12.7292L18.0801 13.4351L17.7415 13.229L17.7855 13.5622H18.2032L18.1637 13.2684L18.3704 13.3517V13.7464L18.344 13.7945L17.9526 14.1453L18.1329 14.1848L18.1241 14.1979L17.825 14.2724L17.6183 13.9787L17.869 14.062L18.1197 13.8121L17.5744 13.4351L17.6579 13.1457L17.3676 12.7292ZM19.7118 12.852L20.1296 13.0624L20.5035 13.8121L20.3804 14.062L20.0461 14.0181L20.2528 13.8954L19.7514 13.5184L19.5403 13.1019L19.835 13.3956L19.6679 13.0185L19.9625 13.3517L20.0856 13.1852L19.7118 12.852ZM17.1169 13.0624L17.2005 13.5184L17.2401 13.1852L17.4072 13.3517L17.284 13.1457L17.4908 13.229L17.1169 13.8121V14.2724L17.3676 14.1453L17.284 14.4785L16.9894 14.1453L17.1565 13.5622L17.1169 13.229L16.9498 13.1457L17.1169 13.0624ZM18.2032 13.6016L18.0361 13.6849L18.1637 13.8121L18.2472 13.6016H18.2032ZM16.488 13.6849H16.8223V13.8954L16.532 13.9787V14.2724L16.8223 13.9787L16.6156 14.3119L16.7827 14.4785L16.532 14.2724V14.3119L16.488 13.6849ZM18.7487 13.7683L19.5008 14.3557L19.0829 14.9388L18.454 14.1453L18.7487 13.7683ZM27.1579 13.8121L27.2415 13.8954L26.9028 14.3557L27.1579 13.8121ZM21.0884 14.2286L21.172 14.3557L20.9213 14.3952L21.0884 14.2286ZM6.65814 14.4785L6.2799 14.7284L6.24032 14.8556L6.44703 14.8117L6.65814 14.4785ZM7.07596 14.5618L6.86925 15.0616L6.61416 14.9388L6.57457 15.4386L6.24032 15.5614L6.61416 15.728L6.0292 16.482L6.32388 16.2322L6.57457 16.0656L6.61416 16.3155L6.49101 16.2322L6.15675 16.8547L6.19633 17.0213L6.24032 16.8985L6.90883 17.0213L6.57457 17.2712L6.65814 17.6044L6.82527 17.5211L6.57457 17.942L6.70213 18.1086L6.11277 17.9815L5.82249 18.1919H6.11277L6.07319 18.4418L5.40467 18.6917L6.0292 19.2309L6.49101 19.1082L6.11277 19.3976L5.65536 19.2309L4.8593 19.7308L5.69494 19.9017L5.86207 19.6475L7.20351 20.0245L7.82804 19.9412L7.87203 19.8184L7.4542 19.608H7.7049L8.16228 19.1476L8.07876 18.8144L7.62133 18.6917H7.57735L7.7049 18.3147V18.2752L7.66092 18.1919L7.4542 18.1086L7.74448 18.148L7.78846 17.942L7.4542 17.5211L7.41022 16.5653L6.86925 16.2322L7.32665 16.3155L7.07596 16.1488L7.41022 16.105L7.87203 15.5614L6.9924 15.3115L7.7049 14.7722L7.07596 14.5618ZM21.4667 14.8556L21.2556 15.0221L21.4227 15.0616L21.8009 15.272L21.6778 15.6447L21.0884 15.3115L21.4667 15.3553L21.172 14.9783L21.4667 14.8556ZM6.32388 14.9783L6.36346 15.4386L6.44703 15.272L6.32388 14.9783ZM23.4327 15.272L23.4767 16.0656L23.2216 15.4781L23.4327 15.272ZM26.4014 15.3553L26.485 15.4781L26.6125 15.3553L25.9 16.2716V16.4382L25.8604 16.6881L26.0672 16.8547L26.3179 16.6048L26.2343 17.0652L26.5685 17.0213L26.2343 17.3151L26.3179 17.1484L25.8164 16.8152L25.9 16.105L25.7329 15.9384L25.148 15.728L24.6861 15.7718L24.3695 15.9954L24.1452 16.1883L24.1144 16.1796L24.1012 16.1883L23.5998 15.9823L24.1144 16.1796L24.3695 15.9954L24.6861 15.728L25.1876 15.6885L25.7329 15.9384L25.8604 16.0217L25.8164 15.8112L26.0276 15.8946L26.4014 15.5614V15.3553ZM13.0574 15.4781L13.3917 15.522L13.2685 15.8946L12.7232 16.105L12.8068 15.728L13.0574 15.7718V15.4781ZM6.2799 15.6885L6.07319 15.8552H6.32388L6.2799 15.6885ZM17.9526 15.728V16.105L17.7019 15.8112L17.9526 15.728ZM16.1977 15.8112L16.0702 15.8552L16.1977 16.0217L16.4044 15.8946L16.1977 15.8112ZM19.206 15.8552L19.4172 16.0217L19.0829 16.0656L19.206 15.8552ZM29.832 16.105L30.0827 16.2716L29.9156 16.4382L29.832 16.105ZM15.9866 16.1488L16.0702 16.5215L16.488 16.1488H15.9866ZM5.27712 16.2322L4.8593 16.4382L5.10999 16.5653L4.8593 16.7714L4.31392 16.5215L4.39749 16.8547L4.06323 16.9819L4.48106 17.3151L3.94008 17.5649L4.39749 17.6877L3.68939 17.6483L3.8961 17.8148L3.60582 17.8981L3.8961 18.0253L3.60582 18.0648L3.8961 18.1086L3.68939 18.2313L4.44147 18.2752L5.15397 18.3147L5.52781 17.1879L5.94564 17.0652L5.90605 16.482H5.44425L5.65536 16.3988L5.52781 16.2322L5.3211 16.4382L5.27712 16.2322ZM15.0234 16.5215L14.6892 16.7714L14.7332 17.1046L15.0234 16.5215ZM11.4697 16.7714L11.76 16.8547L11.5093 16.8985L11.5532 17.1484L11.4697 16.938L11.2586 17.0652L11.4697 16.7714ZM12.556 17.5649L12.4329 17.8587L12.3493 17.6044L12.0107 17.7316L12.3053 18.5645V18.2752L12.6396 17.8981L12.556 17.5649ZM11.6764 17.8148L11.5928 18.0648L11.8876 18.148V17.8148H11.6764ZM25.9 18.398L25.6493 18.8671L25.7285 19.2485L25.7373 19.2792L26.0672 19.5247L25.8164 19.7352V19.7746L25.7329 20.818L25.7769 19.7746L25.8164 19.4808L25.7373 19.2792L25.7329 19.2748L25.7285 19.2485L25.6097 18.9416L25.6493 18.8671V18.8583L25.9 18.398ZM12.9739 18.6084L12.7672 18.7312L12.9739 18.8144V18.6084ZM23.2656 19.2309L23.3096 19.3143L23.3491 19.4414L23.3052 19.3143L23.2656 19.2309ZM26.7796 19.3581L26.6961 19.402L26.5685 19.4414L26.6961 19.3976L26.7796 19.3581ZM25.148 20.3577L25.3987 20.5243V20.8575L25.3151 21.5677L24.9368 21.7782L24.8972 21.4844H25.148L25.0644 21.068L25.2755 21.0241L25.3591 20.6514L25.148 20.3577ZM20.1692 21.3178L20.0461 21.3616H19.7954L19.6679 21.4012L19.7954 21.3573H20.0461L20.1692 21.3178ZM6.86925 21.4012L6.78569 21.5677V21.651L6.7417 21.7344L6.78128 21.651V21.5677L6.86925 21.4012ZM19.5403 21.4012L19.4568 21.445H19.206L19.0829 21.4844L19.206 21.4406H19.4568L19.5403 21.4012ZM20.1692 21.4406L21.7174 22.028L21.9285 21.9009L22.0956 22.6506L21.5503 22.7778L21.4667 23.1504L21.0049 23.4003L21.3832 23.1504L21.4667 22.6944L21.9285 22.6112V22.1508L20.1692 21.4406ZM18.8322 21.4844L18.7487 21.5283H18.498L18.3704 21.5677L18.498 21.5239H18.7487L18.8322 21.4844ZM6.7417 21.8176L6.70213 21.9009V22.028L6.61416 22.1947L6.69772 22.028V21.9009L6.7417 21.8176ZM28.0771 25.0268L28.3674 25.1101L27.9936 25.154L28.0771 25.0268ZM10.2954 25.8642L9.83797 26.1974L9.96117 26.7805L10.2954 26.4473V25.8642ZM10.0887 26.9472L9.54333 27.0743L9.50373 28.3238L10.1283 28.1966L10.2954 27.4469L10.0887 26.9472ZM7.03638 27.1576L6.57457 27.2804L6.82527 27.5302L7.11994 27.3636L7.03638 27.1576ZM17.0334 28.7403L16.8223 28.8236L17.6183 29.3234L17.4908 28.9507L17.0334 28.7403ZM15.6524 29.1173L15.5248 29.2839L15.7755 29.3234L15.6524 29.1173ZM13.1014 29.1568L11.4697 29.2006L11.5532 29.49L12.7232 30.1169L13.1014 29.1568ZM17.284 30.8272V31.077L17.913 31.1998L18.6651 31.1165L18.7487 30.9104L18.454 31.077L17.284 30.8272ZM12.4417 30.8316L12.49 30.9981L12.6616 31.0156L12.644 30.8491L12.4417 30.8316Z" fill="#0C0C0D" fill-opacity="0.88"/>
</svg>
