<svg width="17" height="16" viewBox="0 0 17 16" fill="none" xmlns="http://www.w3.org/2000/svg">
<path d="M9.72949 2.62746C9.72949 1.77037 9.72949 1.34183 9.51122 1.04142C9.44073 0.944393 9.35541 0.85907 9.25839 0.788579C8.95797 0.570312 8.52943 0.570313 7.67235 0.570313H3.78663C2.92955 0.570313 2.50101 0.570312 2.20059 0.788579C2.10357 0.85907 2.01825 0.944393 1.94776 1.04142C1.72949 1.34183 1.72949 1.77037 1.72949 2.62746V8.22745C1.72949 9.08454 1.72949 9.51308 1.94776 9.8135C2.01825 9.91052 2.10357 9.99584 2.20059 10.0663C2.50101 10.2846 2.92955 10.2846 3.78663 10.2846H7.67235C8.52943 10.2846 8.95797 10.2846 9.25839 10.0663C9.35541 9.99584 9.44073 9.91052 9.51122 9.8135C9.72949 9.51308 9.72949 9.08454 9.72949 8.22746V2.62746Z" fill="#0C0C0D" fill-opacity="0.6"/>
<path opacity="0.6" d="M10.9875 5.71484H12.4731C13.3302 5.71484 13.7588 5.71484 14.0592 5.93311C14.1562 6.0036 14.2415 6.08892 14.312 6.18595C14.5303 6.48636 14.5303 6.91491 14.5303 7.77199V13.372C14.5303 14.2291 14.5303 14.6576 14.312 14.958C14.2415 15.055 14.1562 15.1404 14.0592 15.2109C13.7588 15.4291 13.3302 15.4291 12.4731 15.4291H8.58741C7.73033 15.4291 7.30179 15.4291 7.00137 15.2109C6.90435 15.1404 6.81903 15.055 6.74854 14.958C6.53027 14.6576 6.53027 14.2291 6.53027 13.372V11.4291H8.34254C9.44451 11.4291 9.99549 11.4291 10.3818 11.1338C10.5065 11.0385 10.6162 10.923 10.7068 10.7918C10.9875 10.3853 10.9875 9.80552 10.9875 8.64594V5.71484Z" fill="#0C0C0D" fill-opacity="0.6"/>
</svg>
