<svg width="17" height="16" viewBox="0 0 17 16" fill="none" xmlns="http://www.w3.org/2000/svg">
<path d="M7.71719 2.27529C8.00258 1.56461 8.14528 1.20926 8.34914 1.10428C8.52594 1.01323 8.73584 1.01323 8.91264 1.10428C9.1165 1.20926 9.2592 1.56461 9.54459 2.27529L10.4695 4.57862C10.5531 4.78667 10.5948 4.89069 10.6636 4.96937C10.7244 5.03893 10.8001 5.09391 10.885 5.13024C10.9811 5.17132 11.0929 5.1789 11.3166 5.19407L13.793 5.36198C14.5571 5.41379 14.9392 5.4397 15.102 5.60113C15.2432 5.74115 15.3081 5.94078 15.2761 6.13706C15.2393 6.36338 14.9454 6.6089 14.3577 7.09994L12.4529 8.69139C12.2809 8.83514 12.1949 8.90701 12.1413 8.99672C12.0939 9.07603 12.065 9.16499 12.0567 9.25701C12.0473 9.36107 12.0747 9.46978 12.1294 9.6872L12.735 12.0943C12.9218 12.837 13.0152 13.2084 12.912 13.4131C12.8225 13.5907 12.6527 13.7141 12.4561 13.7444C12.2295 13.7792 11.9052 13.5756 11.2566 13.1684L9.15442 11.8487C8.96454 11.7295 8.8696 11.6699 8.76773 11.6466C8.67766 11.6261 8.58412 11.6261 8.49405 11.6466C8.39218 11.6699 8.29724 11.7295 8.10736 11.8487L6.00519 13.1684C5.35657 13.5756 5.03227 13.7792 4.80563 13.7444C4.60908 13.7141 4.43926 13.5907 4.34975 13.4131C4.24653 13.2084 4.33996 12.837 4.5268 12.0943L5.13236 9.6872C5.18706 9.46978 5.21441 9.36107 5.20502 9.25701C5.19673 9.16499 5.16782 9.07603 5.12045 8.99672C5.06687 8.90701 4.98085 8.83514 4.8088 8.69139L2.90403 7.09994C2.31632 6.6089 2.02246 6.36338 1.98561 6.13706C1.95365 5.94078 2.01851 5.74115 2.15974 5.60113C2.32259 5.4397 2.70463 5.41379 3.46872 5.36198L5.94515 5.19407C6.16883 5.1789 6.28067 5.17132 6.37674 5.13024C6.46169 5.09391 6.53737 5.03893 6.59816 4.96937C6.66692 4.89069 6.70869 4.78667 6.79224 4.57862L7.71719 2.27529Z" fill="white"/>
</svg>
